<svg xmlns="http://www.w3.org/2000/svg" viewBox="0 0 512.05 512.05"><defs><style>.cls-1{fill:#7e3d4a;}.cls-2{fill:#f9f9f9;}.cls-3{fill:#f78caf;}.cls-4{fill:#fcfcfc;}</style></defs><title>Ресурс 1</title><g id="Слой_2" data-name="Слой 2"><g id="Слой_1-2" data-name="Слой 1"><path class="cls-1" d="M512,39.05c-2.18,3.39-2.24,7.45-3.53,11.13-7,20-18.72,37-32.48,52.79-2.39,2.74-4.14,4.73-.38,7.91,2.7,2.28,2.39,6,2.32,9.38q-1.32,57.48-2.56,115c-.21,9.5-.39,19-.45,28.49A13.82,13.82,0,0,1,470.7,274q-117,117-234.06,234c-1.45,1.45-3.09,2.73-4.64,4.09h-7c-3-2.76-6.1-5.42-9-8.29q-104-104-208-208C5.24,293,2.67,290,0,287.05v-7c3.48-3.67,6.89-7.41,10.46-11q58.79-58.84,117.61-117.64c6.66-6.66,9.31-7,17.46-2.6,3.63,8.2,3.26,10.24-3.19,16.68Q85.09,222.77,27.75,280c-2.95,2.94-2.95,4.42,0,7.34q44.72,44.37,89.15,89Q171,430.4,225,484.5c2,2,3.3,3.58,6.24.63Q341.79,374.37,452.52,263.82a7.59,7.59,0,0,0,2.44-5.68q1.32-66.72,2.84-133.43a7.18,7.18,0,0,0-2.14-5.78q-24.12-24-48.07-48.07c-1.86-1.87-3-2.49-5.07-.09a211.73,211.73,0,0,0-19,25.64c-1.74,2.78-.61,3.46,1.67,4.59,22.06,11,33.85,32.72,31,57-3.73,31.67-33.77,53.63-65.47,47.85-30.66-5.58-51.1-36.7-44-66.95,5.74-24.43,24.4-40.49,50.52-43.36,2.44-.27,4.3-.6,5.6-3.12,6.23-12,14.32-22.83,23.05-33.16,1.21-1.44,3.13-2.5,3.34-4.8a11.89,11.89,0,0,0-1.53-.17q-67,1.43-133.92,2.78c-2.66.06-4.27,1.26-6,3q-22.22,22.32-44.54,44.54c-5.48,5.46-9.8,5.66-15.74,1-3.91-6.14-3.58-9.93,1.53-15.05q24.53-24.61,49.1-49.18a13.43,13.43,0,0,1,9.78-4.17q72.21-1.45,144.43-3c3.62-.08,7.21.16,9.67,3s3.79,1.84,6-.11c13.87-12.35,29-22.85,46-30.44,6.16-2.75,12.86-3.76,19-6.5h15c.14.81.73.89,1.42,1,10,1.66,16.58,7.58,20.5,16.76.74,1.73.39,3.89,2.08,5.23Zm-20.09-7c.12-7.56-1.72-10.51-6.73-11.63a19,19,0,0,0-7.94,0c-22.36,4.5-39.82,17.65-56.58,32.06-2,1.71-.41,2.55.56,3.52,11.52,11.56,23.1,23,34.56,34.68,2,2,2.92,1.63,4.61-.29,9.66-11.08,18.26-22.86,24.68-36.14C488.64,46.94,491.37,39.31,491.91,32.07ZM352.5,116.86c-16.54,3.12-28.83,20.31-27,37.21,2.12,19.25,17.94,33.41,36.44,32.62,16.5-.71,32.27-13.71,32.82-27.06C364.06,166.25,345.55,150.2,352.5,116.86ZM383.14,141a52,52,0,0,0,8.57-1.65c2.19-.54,2.63-1.22,1.6-3.33a35.63,35.63,0,0,0-8.9-11.79c-3.15-2.67-7.31-7-10.36-5.61-3.33,1.57-2.9,7.53-3,11.77C370.87,138,373.89,141,383.14,141Z"/><path class="cls-2" d="M512,23.05c-1.69-1.34-1.34-3.5-2.08-5.23C506,8.64,499.45,2.72,489.42,1.06c-.69-.12-1.28-.2-1.42-1,7.26,0,14.51.07,21.77,0,1.85,0,2.32.4,2.28,2.27C511.92,9.2,512,16.13,512,23.05Z"/><path class="cls-3" d="M187.51,105.54c5.94,4.69,10.26,4.49,15.74-1Q225.58,82.36,247.79,60c1.69-1.7,3.3-2.9,6-3q67-1.29,133.92-2.78a11.89,11.89,0,0,1,1.53.17c-.21,2.3-2.13,3.36-3.34,4.8C377.13,69.59,369,80.37,362.81,92.42c-1.3,2.52-3.16,2.85-5.6,3.12-26.12,2.87-44.78,18.93-50.52,43.36-7.12,30.25,13.32,61.37,44,66.95,31.7,5.78,61.74-16.18,65.47-47.85,2.86-24.28-8.93-46-31-57-2.28-1.13-3.41-1.81-1.67-4.59a211.73,211.73,0,0,1,19-25.64c2.07-2.4,3.21-1.78,5.07.09q24,24.12,48.07,48.07a7.18,7.18,0,0,1,2.14,5.78q-1.5,66.72-2.84,133.43a7.59,7.59,0,0,1-2.44,5.68Q341.84,374.42,231.27,485.13c-2.94,2.95-4.2,1.41-6.24-.63q-54-54.12-108.14-108.19-44.53-44.54-89.15-89c-2.94-2.92-2.94-4.4,0-7.34q57.42-57.1,114.59-114.46c6.45-6.44,6.82-8.48,3.19-16.68,3.95-5.25,8.87-9.56,13.64-14,1.83.69,3.31,2.1,5.38,2.34,4.12.49,7.56-.67,9.94-4.1,3-4.39,1.92-8.71-.69-12.89ZM169.26,328.25c-4.86-14.4-3.08-26.87,6.91-38,4.63-5.14,4.56-11.09.12-15.09-4.28-3.86-10.51-3.24-15,1.74-14.23,15.78-19.17,34.38-11.77,54.11,3.73,10,3.54,15.92-4.78,22.39-4.48,3.48-3.82,10,0,13.84s9.62,4,14,.22a65.3,65.3,0,0,0,6.74-6.67c1.87-2.14,3.36-2.49,5.82-.7A49.11,49.11,0,0,0,188,367.6c31.77,8.2,62.17-14.29,62.22-45.94,0-11.28-3.84-21.19-10.3-30.16-1.74-2.41-1.66-3.73.5-5.72,4.41-4.06,8.54-8.43,12.77-12.67l25-25.07a8.23,8.23,0,0,1,.9,1.07,9.86,9.86,0,0,1,.78,1.84c3.59,13.22,1.09,24.95-8.29,35.18-4.39,4.79-4.1,10.78.22,14.68s10.45,3.34,14.68-1.34C300.55,283.93,305,266,299.2,245.78c-1.26-4.43-5.24-8.83-4.73-12.82.56-4.32,6.29-6.88,9.33-10.6a10,10,0,0,0-14-14.15,40.46,40.46,0,0,0-6,6c-2.56,3.29-4.61,3-8.2,1-19.14-11.12-38.69-12.14-57.38.65-22.72,15.54-26.83,44.39-10.26,68.36,1.94,2.8,1.77,4.18-.59,6.49-11.68,11.41-23.15,23-34.7,34.56C171.69,326.11,170.69,327,169.26,328.25Z"/><path class="cls-1" d="M173.8,120.16c2.61,4.18,3.74,8.5.69,12.89-2.38,3.43-5.82,4.59-9.94,4.1-2.07-.24-3.55-1.65-5.38-2.34-2.52-3.7-3.94-7.56-1.77-12C160.32,117,166.72,115.9,173.8,120.16Z"/><path class="cls-4" d="M491.91,32.07c-.54,7.24-3.27,14.87-6.84,22.24-6.42,13.28-15,25.06-24.68,36.14-1.69,1.92-2.65,2.28-4.61.29-11.46-11.63-23-23.12-34.56-34.68-1-1-2.56-1.81-.56-3.52C437.42,38.13,454.88,25,477.24,20.48a19,19,0,0,1,7.94,0C490.19,21.56,492,24.51,491.91,32.07Z"/><path class="cls-1" d="M169.26,328.25c1.43-1.3,2.43-2.14,3.34-3.06,11.55-11.53,23-23.15,34.7-34.56,2.36-2.31,2.53-3.69.59-6.49-16.57-24-12.46-52.82,10.26-68.36,18.69-12.79,38.24-11.77,57.38-.65,3.59,2.08,5.64,2.33,8.2-1a40.46,40.46,0,0,1,6-6,10,10,0,0,1,14,14.15c-3,3.72-8.77,6.28-9.33,10.6-.51,4,3.47,8.39,4.73,12.82,5.76,20.2,1.35,38.15-12.71,53.69-4.23,4.68-10.49,5.12-14.68,1.34s-4.61-9.89-.22-14.68c9.38-10.23,11.88-22,8.29-35.18a9.86,9.86,0,0,0-.78-1.84,8.23,8.23,0,0,0-.9-1.07l-25,25.07c-4.23,4.24-8.36,8.61-12.77,12.67-2.16,2-2.24,3.31-.5,5.72,6.46,9,10.32,18.88,10.3,30.16-.05,31.65-30.45,54.14-62.22,45.94a49.11,49.11,0,0,1-16.77-7.47c-2.46-1.79-3.95-1.44-5.82.7a65.3,65.3,0,0,1-6.74,6.67c-4.35,3.76-10.21,3.58-14-.22s-4.44-10.36,0-13.84c8.32-6.47,8.51-12.43,4.78-22.39-7.4-19.73-2.46-38.33,11.77-54.11,4.5-5,10.73-5.6,15-1.74,4.44,4,4.51,9.95-.12,15.09C166.18,301.38,164.4,313.85,169.26,328.25Zm95.29-96c-10.89-8.4-28.75-7-38.87,3.34s-10.41,25.49-1.22,36.76ZM183.62,344c12.11,8.2,29,6.69,38.95-3.74,9.71-10.15,10.11-24.42,1.17-36.68Z"/><path class="cls-3" d="M264.55,232.26l-40.09,40.1c-9.19-11.27-8.77-26.56,1.22-36.76S253.66,223.86,264.55,232.26Z"/><path class="cls-3" d="M183.62,344l40.12-40.42c8.94,12.26,8.54,26.53-1.17,36.68C212.59,350.68,195.73,352.19,183.62,344Z"/></g></g></svg>