<svg xmlns="http://www.w3.org/2000/svg" viewBox="0 0 409.63 377.55"><defs><style>.cls-1{fill:#7e3d4a;}.cls-2{fill:#fac49c;}.cls-3{fill:#e27da4;}.cls-4{fill:#cf3b68;}</style></defs><title>Ресурс 1</title><g id="Слой_2" data-name="Слой 2"><g id="Слой_1-2" data-name="Слой 1"><path class="cls-1" d="M16.12,369.59C13.67,378.85,8,380,0,372.79v-64c2-2,3.44-4.66,6.81-5,2-.19,1.18-2.11,1.19-3.26.06-14,0-28,0-42,0-16.93.32-33.87-.07-50.79A251.38,251.38,0,0,1,29.43,99.84C40.55,74.41,50.84,48.61,61.47,23,66.45,10.93,75,3.27,88,.62c21.74-4.44,42.95,15.62,39.61,37.56a47.16,47.16,0,0,1-3.29,11.44Q106,92.52,87.8,135.43c-1.59,3.75-3.71,6.7-7.88,7.67-8.21-1.6-10.4-5.7-7.11-13.49C77.72,118,82.7,106.38,87.66,94.77c7.45-17.49,15-34.94,22.33-52.47,5-12-1-23.6-13.26-26-8.44-1.66-16.59,3.37-20.52,12.81Q58.53,71.61,40.9,114.16a215.33,215.33,0,0,0-16.81,82.38c-.12,34.52,0,69-.11,103.56,0,2.82.79,3.54,3.56,3.53q50.18-.13,100.36,0c3.06,0,3.37-1.13,3.35-3.69-.11-14.39-.05-28.79-.06-43.18a84.15,84.15,0,0,0-3.05-22.48,78.91,78.91,0,0,0-13.7-27.72c-9-11.57-18-23.11-27.25-34.5-5.23-6.48-13.32-7.54-19.54-3-6,4.37-7.26,12.32-3.05,19.29.89,1.48,1.88,2.9,2.83,4.34C75.67,205.13,84,217.52,92.12,230c2.9,4.44,2.08,9.11-1.65,11.66s-8.41,1.84-11.2-2.31c-10-14.91-20.35-29.65-29.58-45.06-8.78-14.66-1.9-34,13.59-41.22,5.34-2.49,11-2.9,16.77-2.74,10.21,1.86,17.28,8,23.27,16.15,9.47,12.84,20.53,24.5,29.06,38.05,10.09,16,14.79,33.71,14.82,52.64q0,21.38,0,42.76c0,2.23-.09,3.71,2.92,4.44,3.53.85,5.08,4.13,5.08,7.77,0,18.92.07,37.83,0,56.74,0,4.84-3,8.15-7.23,8.61s-7.37-2.3-8.86-7.89c0-15.45,0-30.9.19-46.34,0-3-.76-3.74-3.73-3.72-20.78.14-41.56.08-62.33.08q-27,0-53.94,0c-2.12,0-3.37,0-3.34,2.87C16.12,338.17,16.08,353.88,16.12,369.59Z"/><path class="cls-2" d="M393.6,252.09,393.45,269c-5.27,1.28-8,4.18-7.85,8.31s2.89,6.75,8,7.73q0,9.13,0,18.26a10.81,10.81,0,0,1-1.57.23q-55.38,0-110.75.07c-2.28,0-2.91-.64-2.89-2.91.1-15.19-.07-30.38.11-45.57a79.44,79.44,0,0,1,12.22-42c7.1-11.31,16.14-21.17,24.27-31.71a119.82,119.82,0,0,1,9.44-11.35,13.48,13.48,0,0,1,17.57-1,14,14,0,0,1,4.17,17.2,49.76,49.76,0,0,1-3.34,5.43c-8.44,12.77-17,25.49-25.33,38.3-2.9,4.44-2.07,9.11,1.68,11.66s8.4,1.81,11.19-2.34c10-14.8,20.17-29.45,29.41-44.69,8.95-14.76,2.2-34.29-13.43-41.58-5.34-2.49-11-2.9-16.77-2.74,0-2.41.09-4.82.13-7.22,8.21-1.62,10.4-5.71,7.11-13.5-4.91-11.63-9.89-23.23-14.85-34.84-7.45-17.49-15-34.94-22.33-52.46-4.45-10.6-.46-20.84,9.45-24.87s19.73.63,24.32,11.65c10.94,26.25,21.54,52.64,32.79,78.76,13.43,31.16,20.15,63.52,19.43,97.47-.26,12.12-.06,24.25,0,36.38C385.57,248.36,387.27,250.52,393.6,252.09Z"/><path class="cls-2" d="M80.05,150.33c-5.76-.16-11.43.25-16.77,2.74-15.49,7.23-22.37,26.56-13.59,41.22,9.23,15.41,19.56,30.15,29.58,45.06,2.79,4.15,7.47,4.86,11.2,2.31S95,234.44,92.12,230C84,217.52,75.67,205.13,67.43,192.7c-1-1.44-1.94-2.86-2.83-4.34-4.21-7-2.94-14.92,3.05-19.29,6.22-4.53,14.31-3.47,19.54,3,9.21,11.39,18.25,22.93,27.25,34.5a78.91,78.91,0,0,1,13.7,27.72,84.15,84.15,0,0,1,3.05,22.48c0,14.39-.05,28.79.06,43.18,0,2.56-.29,3.7-3.35,3.69q-50.18-.19-100.36,0c-2.77,0-3.56-.71-3.56-3.53.11-34.52,0-69,.11-103.56A215.33,215.33,0,0,1,40.9,114.16Q58.53,71.62,76.21,29.09c3.93-9.44,12.08-14.47,20.52-12.81C109,18.7,115,30.3,110,42.3c-7.34,17.53-14.88,35-22.33,52.47-5,11.61-9.94,23.21-14.85,34.84-3.29,7.79-1.1,11.89,7.11,13.49C80,145.51,80,147.92,80.05,150.33Z"/><path class="cls-1" d="M329.55,150.33c5.76-.16,11.43.25,16.77,2.74,15.63,7.29,22.38,26.82,13.43,41.58-9.24,15.24-19.45,29.89-29.41,44.69-2.79,4.15-7.46,4.87-11.19,2.34s-4.58-7.22-1.68-11.66c8.37-12.81,16.89-25.53,25.33-38.3a49.76,49.76,0,0,0,3.34-5.43,14,14,0,0,0-4.17-17.2,13.48,13.48,0,0,0-17.57,1A119.82,119.82,0,0,0,315,181.43c-8.13,10.54-17.17,20.4-24.27,31.71a79.44,79.44,0,0,0-12.22,42c-.18,15.19,0,30.38-.11,45.57,0,2.27.61,2.91,2.89,2.91q55.38-.11,110.75-.07a10.81,10.81,0,0,0,1.57-.23c2.77.13,5.57.13,8.33.42,4.79.52,7.61,3.28,7.64,8.09q.18,28.74,0,57.48a8,8,0,0,1-7.22,8.19c-4.26.46-7.36-2.31-8.84-7.9,0-15.45,0-30.9.19-46.34,0-3-.76-3.73-3.74-3.71-20.77.14-41.55.07-62.32.07q-27,0-53.94,0c-2.11,0-3.37,0-3.34,2.87.19,15.71.15,31.42.19,47.13-1.39,5.23-3.74,7.67-7.66,7.94-4.61.31-8.4-3.35-8.43-8.64-.09-18.92-.06-37.83,0-56.75,0-3.8,1.68-7,5.45-7.91,2.69-.63,2.54-2,2.54-3.9,0-13.86.07-27.71,0-41.56A100.61,100.61,0,0,1,285,193.41c7.14-8.95,14.46-17.76,21.29-26.94C312.28,158.37,319.34,152.19,329.55,150.33Z"/><path class="cls-1" d="M288.11,126.32c.08,13.24-4.74,23.4-11,33-11.93,18.14-27.8,32.58-44.35,46.3-7.16,6-14.74,11.4-22.22,17-4.11,3.06-7.06,3.15-11,.34-22.35-16.07-43.6-33.38-60.88-55.05-7.17-9-13.49-18.62-16-30-7.19-32.89,20.27-68.91,55.7-64.5a48.37,48.37,0,0,1,23.76,9.46c1.88,1.42,3.18,1.59,5.2.11,30.74-22.58,69.91-4.64,79,31.07A47.76,47.76,0,0,1,288.11,126.32Zm-16,1.16a44.2,44.2,0,0,0-2.42-13.34c-4.75-14.94-19.3-25.8-34.22-25.27-9.22.32-16.77,4.43-23.31,10.83-5.55,5.44-9,5.29-14.7,0-.89-.81-1.74-1.66-2.64-2.45a32.45,32.45,0,0,0-21.45-8.43c-16.87-.16-31.68,13.59-35.18,31.9-2.37,12.39,2.46,22.46,9.25,32,13.53,19,31,34,49.32,48.14,8.05,6.22,8.12,6.22,16.19,0,18.3-14.15,35.81-29.13,49.3-48.16C267.55,145.15,272.16,137.19,272.07,127.48Z"/><path class="cls-1" d="M393.6,252.09c-6.33-1.57-8-3.73-8-10.39,0-12.13-.22-24.26,0-36.38.72-33.95-6-66.31-19.43-97.47-11.25-26.12-21.85-52.51-32.79-78.76-4.59-11-14.43-15.68-24.32-11.65s-13.9,14.27-9.45,24.87c7.36,17.52,14.88,35,22.33,52.46,5,11.61,9.94,23.21,14.85,34.84,3.29,7.79,1.1,11.88-7.11,13.5-3.76-1-6-3.37-7.52-7C309.83,107.06,297.31,78,285,48.94c-6.78-16-2.37-33.17,10.55-42.15,18.94-13.18,42.83-6.57,52.05,15q19.47,45.6,37.95,91.63c10.79,26.69,15.81,54.6,16,83.37.11,15.06.05,30.11,0,45.17C401.54,248.2,399.7,250.48,393.6,252.09Z"/><path class="cls-3" d="M16.12,369.59c0-15.71,0-31.42-.19-47.13,0-2.83,1.22-2.88,3.34-2.87q27,.07,53.94,0c20.77,0,41.55.06,62.33-.08,3,0,3.77.69,3.73,3.72-.2,15.44-.15,30.89-.19,46.34Zm91.8-32.76a8.23,8.23,0,0,0-7.91,8,8.06,8.06,0,0,0,7.79,8,8,8,0,1,0,.12-16Z"/><path class="cls-3" d="M270.52,369.59c0-15.71,0-31.42-.19-47.13,0-2.83,1.23-2.88,3.34-2.87q27,.07,53.94,0c20.77,0,41.55.07,62.32-.07,3,0,3.78.68,3.74,3.71-.2,15.44-.15,30.89-.19,46.34Zm39.07-24.77a8,8,0,1,0-7.82,8A8,8,0,0,0,309.59,344.82Z"/><path class="cls-1" d="M393.61,285.06c-5.12-1-7.85-3.62-8-7.73s2.58-7,7.85-8.31c3.11.7,6,1.6,7.4,5C402.9,279.13,399.92,283.75,393.61,285.06Z"/><path class="cls-4" d="M272.07,127.48c.09,9.71-4.52,17.67-9.86,25.21-13.49,19-31,34-49.3,48.16-8.07,6.24-8.14,6.24-16.19,0-18.3-14.14-35.79-29.14-49.32-48.14-6.79-9.54-11.62-19.61-9.25-32,3.5-18.31,18.31-32.06,35.18-31.9a32.45,32.45,0,0,1,21.45,8.43c.9.79,1.75,1.64,2.64,2.45,5.74,5.28,9.15,5.43,14.7,0,6.54-6.4,14.09-10.51,23.31-10.83,14.92-.53,29.47,10.33,34.22,25.27A44.2,44.2,0,0,1,272.07,127.48Z"/><path class="cls-1" d="M107.92,336.83a8,8,0,1,1-.12,16,8.06,8.06,0,0,1-7.79-8A8.23,8.23,0,0,1,107.92,336.83Z"/><path class="cls-1" d="M309.59,344.82a8,8,0,0,1-7.82,8,8,8,0,1,1,7.82-8Z"/></g></g></svg>