<svg xmlns="http://www.w3.org/2000/svg" viewBox="0 0 409.69 259.17"><defs><style>.cls-1{fill:#7e3d4a;}.cls-2{fill:#ef95ba;}.cls-3{fill:#e577a0;}.cls-4{fill:#fecbd2;}.cls-5{fill:#e9d9e5;}.cls-6{fill:#f7edf5;}.cls-7{fill:#f4dce0;}.cls-8{fill:#99d3fb;}.cls-9{fill:#fdda63;}</style></defs><title>Ресурс 1</title><g id="Слой_2" data-name="Слой 2"><g id="Слой_1-2" data-name="Слой 1"><path class="cls-1" d="M33.64,136.08c-4.92-1.5-6.32-3.2-6.32-8.26q0-56.79,0-113.59C27.35,5.51,32.93,0,41.68,0q122,0,244,0c9,0,14.32,5.39,14.44,14.44,0,.13,0,.27,0,.4.26,4.08-1.76,9.54.83,11.85,2.26,2,7.61.54,11.6.62,13.32.3,26.67-.77,40,.59,11.44,1.17,21.52,11.54,22.59,23,.31,3.31.18,6.66.24,10,0,2.13-.58,4.28-2.47,5.14-2.74,1.23-2.18,2.94-1.64,5.07q4.5,17.77,8.88,35.6c.5,2,1.18,3.3,3.66,3.91,15.09,3.74,25.4,16,25.69,31.63.44,22.93.19,45.86.13,68.79,0,4.69-2.63,7-7.8,7.08-5.47.11-10.94.15-16.4,0-2.4-.09-3,.57-3.28,3-2.09,21.2-18.32,37.14-38.45,38-21.8.91-40-14.9-42.38-37.13-.36-3.46-1.53-3.89-4.55-3.88q-68,.14-136,0c-3.6,0-4.29,1.12-4.59,4.38-2.35,26.08-29.17,43.37-53.63,34.3-16.15-6-25.25-18.07-27.07-35.27-.3-2.82-1.05-3.42-3.71-3.37-9.47.17-18.94.08-28.4.06-10.86,0-16-5.11-16-15.83,0-3.72,1.25-8.67-.63-10.82-2.16-2.47-7.24-.54-11-.78a34.8,34.8,0,0,0-4.79,0c-4.13.35-7.89-.31-10.83-3.55v-5.6c2.87-3.26,6.55-3.83,10.73-3.8,17.06.15,34.12.07,51.19.06,1.46,0,2.92-.16,4.37-.25,3.08.47,6.08,1.06,7.65,4.24.91,5.82-1.33,8.67-7.13,8.8-5.2.11-10.4,0-15.6,0-11.32,0-11.21,0-11.16,11.19,0,2.92,1.05,3.57,3.72,3.54q15.39-.18,30.79,0c2.24,0,3.2-.81,4.11-2.77,7.31-15.73,19.71-24.43,37-24.48,17.5,0,30.05,8.6,37.35,24.57a3.93,3.93,0,0,0,4.22,2.68c9.19-.12,18.39,0,27.59,0,32.66,0,65.31-.07,98,.1,3.82,0,4.7-1.15,4.5-4.68-.31-5.58-.16-11.19-.21-16.78q.08-12.3.14-24.6c0-5.68,1.11-7.21,6.34-9,5.6,1.74,6.45,2.89,6.49,8.84q.06,11.18.11,22.35c0,7.06-.09,14.12-.11,21.18,0,1-.32,2.25,1.23,2.53s2.21-.56,2.67-1.81c.28-.75.61-1.48.94-2.2,6.75-14.93,23.2-24.5,39.56-23.05,16.18,1.43,27.47,9.75,34.35,24.33.54,1.15.51,3.2,2.8,2.52a61.43,61.43,0,0,0,12.79,0c1.76.7,2.38,0,2.37-1.77-.05-8-.07-15.92,0-23.88,0-2-.71-2.5-2.55-2.44-4.25.16-8.49.12-12.57-1.37C373,171.14,369,164,369.44,154.23c.15-3.18.1-6.38,0-9.56a8.05,8.05,0,0,1,2.7-6.75,14.11,14.11,0,0,1,6.23-1.12c4.8.06,9.6-.09,14.39.06,2.71.09,2.93-.78,1.75-2.93-4.22-7.74-10.74-11.56-19.5-11.57-23.84,0-47.69,0-71.54-.08-2.92,0-3.67.91-3.41,3.61.38,4,.07,7.8-4.2,9.86l-1.46.32-.79,0c-5.19-1.59-6.34-3.2-6.34-9,0-36.52-.07-73,.09-109.55,0-3.88-1-4.77-4.8-4.76q-118.73.18-237.47,0c-4,0-5.07.91-5.05,5,.17,36.51.11,73,.09,109.54C40.13,133.25,39,134.69,33.64,136.08ZM360.46,81.41c-.91-3.74-1.95-7.45-2.67-11.22-.38-2-1.19-2.63-3.16-2.62q-25.9.09-51.83,0c-2.05,0-2.76.6-2.75,2.72.09,12.22.07,24.45,0,36.68,0,1.8.38,2.68,2.41,2.59,4-.17,8-.14,11.95-.19l52,0c.48.09.88.1.71-.59C365.41,99.55,362.81,90.51,360.46,81.41ZM115.94,191c-15.28,0-27.89,12.4-27.87,27.46s12.55,27.91,27.7,27.79a27.53,27.53,0,0,0,27.66-27.63C143.32,203.13,131.4,191,115.94,191Zm225.82,0a27.66,27.66,0,0,0-27.91,27.4c-.05,15,12.59,28.07,27.63,27.84,15.78-.24,27.76-11.82,27.78-27.55C369.28,201.05,355,190.6,341.76,191ZM331.46,54.73c9.18,0,18.37-.17,27.54.08,3.78.09,3.86-1.45,3-4.28-1.94-6.38-7.07-10.28-14.44-10.33-14.77-.11-29.54,0-44.3-.09-2.36,0-3.43.5-3.21,3.08a41.61,41.61,0,0,1,0,7.57c-.29,3.06.61,4.13,3.88,4.05C313.09,54.57,322.28,54.73,331.46,54.73Zm65.33,102.48c0-7.57,0-7.57-7.66-7.57h-.8c-6.26,0-6.26,0-6,6.41.17,4.91,2.54,7.62,7,8C396.79,164.77,396.79,164.77,396.79,157.21Z"/><path class="cls-2" d="M73.94,181.83c-1.57-3.18-4.57-3.77-7.65-4.24,2.13-4.71,2.31-9.4-.1-14.08,6.24-.07,12.49-.16,18.73-.2,5.85-.05,11.7.05,17.55-.11,3.6-.09,5.71-2.38,6-5.78s-1.56-5.85-5-6.62a20.94,20.94,0,0,0-4.35-.32q-32.7-.1-65.41-.16V136.08c5.39-1.39,6.49-2.83,6.49-8.8,0-36.51.08-73-.09-109.54,0-4.09,1-5,5.05-5q118.74.18,237.47,0c3.84,0,4.82.88,4.8,4.76-.16,36.52-.1,73-.09,109.55,0,5.85,1.15,7.46,6.34,9a3.82,3.82,0,0,0,.06.68l-.06,13.58c-5.23,1.81-6.31,3.34-6.34,9q-.07,12.3-.14,24.6H272.87c-1.71-5-3.23-6.14-8.85-6.14q-45.55,0-91.13,0c-5.51,0-7,1.11-8.87,6.15-3.58.58-6.16-.77-8.74-3.37-8.41-8.47-18.4-14.14-30.39-16-17.9-2.72-33.49,2-46.73,14.38C76.91,180.21,75.85,181.66,73.94,181.83ZM122.63,89a6.37,6.37,0,0,0-5.33,9.54,17.24,17.24,0,0,0,2.81,3.35Q135.2,117,150.34,132.1c5.23,5.23,7.88,5.25,13,.08q28.7-28.67,57.38-57.36c4.57-4.57,5.26-8.24,2.17-11.31s-6.65-2.4-11.31,2.26q-26.15,26.15-52.24,52.33c-2,2-3,2-5,0-8.46-8.68-17.11-17.18-25.66-25.77C127,90.57,125.2,89.14,122.63,89Z"/><path class="cls-1" d="M33.64,150.32q32.7.08,65.41.16a20.94,20.94,0,0,1,4.35.32c3.49.77,5.33,3.19,5,6.62s-2.38,5.69-6,5.78c-5.85.16-11.7.06-17.55.11-6.24,0-12.49.13-18.73.2l-42-.21c-1.2,0-2.4,0-3.6,0-4.15-.2-6.87-2.67-6.92-6.25s2.73-6.29,6.77-6.5C24.84,150.3,29.24,150.38,33.64,150.32Z"/><path class="cls-3" d="M272.87,184h14.26c.05,5.59-.1,11.2.21,16.78.2,3.53-.68,4.7-4.5,4.68-32.66-.17-65.31-.1-98-.1-9.2,0-18.4-.07-27.59,0a3.93,3.93,0,0,1-4.22-2.68c-7.3-16-19.85-24.61-37.35-24.57-17.33.05-29.73,8.75-37,24.48-.91,2-1.87,2.8-4.11,2.77q-15.39-.18-30.79,0c-2.67,0-3.71-.62-3.72-3.54,0-11.2-.16-11.19,11.16-11.19,5.2,0,10.4.08,15.6,0,5.8-.13,8-3,7.13-8.8,1.91-.17,3-1.62,4.22-2.79,13.24-12.37,28.83-17.1,46.73-14.38,12,1.82,22,7.49,30.39,16,2.58,2.6,5.16,3.95,8.74,3.37,1.52,5.5,2.83,6.65,8.29,6.65q46.17.06,92.33,0C270.13,190.64,271.61,189.34,272.87,184Z"/><path class="cls-4" d="M293.61,150.36l.06-13.58.73-.71,1.46-.32c1.19,1.62,2.93,1,4.44,1,22.36,0,44.72,0,67.08.06,1.62,0,3.53-.74,4.76,1.11a8.05,8.05,0,0,0-2.7,6.75c.1,3.18.15,6.38,0,9.56C369,164,373,171.14,381.71,175.56l-.15,5.27c-5.78-5.34-11.92-10.14-19.4-13-18.34-6.89-35.57-5-51.94,6-3.53,2.38-6.05,6-10,7.69q-.06-11.18-.11-22.35C300.06,153.25,299.21,152.1,293.61,150.36Z"/><path class="cls-5" d="M115.94,191c15.46,0,27.38,12.14,27.49,27.62a27.53,27.53,0,0,1-27.66,27.63c-15.15.12-27.69-12.77-27.7-27.79S100.66,191,115.94,191Zm13,27.46a12.76,12.76,0,0,0-13.16-13,13.13,13.13,0,0,0-13.21,13.15A13.84,13.84,0,0,0,116,231.83,13.12,13.12,0,0,0,128.92,218.45Z"/><path class="cls-5" d="M341.76,191c13.27-.39,27.52,10.06,27.5,27.69,0,15.73-12,27.31-27.78,27.55-15,.23-27.68-12.87-27.63-27.84A27.66,27.66,0,0,1,341.76,191Zm-13.15,27.52a13.09,13.09,0,0,0,13,13.32,13.56,13.56,0,0,0,13.27-13.28,13,13,0,0,0-13.22-13.09C334,205.44,328.62,210.86,328.61,218.51Z"/><path class="cls-3" d="M300.21,181.55c4-1.73,6.48-5.31,10-7.69,16.37-11,33.6-12.88,51.94-6,7.48,2.82,13.62,7.62,19.4,13,0,.51.07,1,.1,1.52q0,11.35,0,22.7c-2.29.68-2.26-1.37-2.8-2.52C372,188,360.68,179.63,344.5,178.2c-16.36-1.45-32.81,8.12-39.56,23.05-.33.72-.66,1.45-.94,2.2-.46,1.25-1.19,2.08-2.67,1.81s-1.23-1.52-1.23-2.53C300.12,195.67,300.17,188.61,300.21,181.55Z"/><path class="cls-6" d="M366.42,109.39l-52,0q0-9.34,0-18.7c0-6.57,2.49-9.06,9-9.09l37-.17c2.35,9.1,5,18.14,6.67,27.39Z"/><path class="cls-7" d="M372.14,137.92c-1.23-1.85-3.14-1.1-4.76-1.11-22.36-.05-44.72,0-67.08-.06-1.51,0-3.25.62-4.44-1,4.27-2.06,4.58-5.88,4.2-9.86-.26-2.7.49-3.63,3.41-3.61,23.85.12,47.7.06,71.54.08,8.76,0,15.28,3.83,19.5,11.57,1.18,2.15,1,3-1.75,2.93-4.79-.15-9.59,0-14.39-.06A14.11,14.11,0,0,0,372.14,137.92Z"/><path class="cls-5" d="M360.46,81.41l-37,.17c-6.55,0-9,2.52-9,9.09q0,9.35,0,18.7c-4,0-8,0-11.95.19-2,.09-2.41-.79-2.41-2.59.06-12.23.08-24.46,0-36.68,0-2.12.7-2.73,2.75-2.72q25.92.09,51.83,0c2,0,2.78.67,3.16,2.62C358.51,74,359.55,77.67,360.46,81.41Z"/><path class="cls-7" d="M331.46,54.73c-9.18,0-18.37-.16-27.54.08-3.27.08-4.17-1-3.88-4.05a41.61,41.61,0,0,0,0-7.57c-.22-2.58.85-3.09,3.21-3.08,14.76.1,29.53,0,44.3.09,7.37,0,12.5,3.95,14.44,10.33.87,2.83.79,4.37-3,4.28C349.83,54.56,340.64,54.73,331.46,54.73Z"/><path class="cls-7" d="M381.66,182.35c0-.5-.06-1-.1-1.52l.15-5.27c4.08,1.49,8.32,1.53,12.57,1.37,1.84-.06,2.57.47,2.55,2.44-.09,8-.07,15.92,0,23.88,0,1.82-.61,2.47-2.37,1.77-1.13-6.92-4.28-12.94-8.38-18.48C384.88,185,384.25,182.55,381.66,182.35Z"/><path class="cls-6" d="M396.79,157.21c0,7.56,0,7.56-7.49,6.87-4.47-.41-6.84-3.12-7-8-.22-6.41-.22-6.41,6-6.41h.8C396.79,149.64,396.79,149.64,396.79,157.21Z"/><path class="cls-4" d="M381.66,182.35c2.59.2,3.22,2.6,4.4,4.19,4.1,5.54,7.25,11.56,8.38,18.48a61.43,61.43,0,0,1-12.79,0Q381.67,193.71,381.66,182.35Z"/><path class="cls-8" d="M366.42,109.39l.71-.59C367.3,109.49,366.9,109.48,366.42,109.39Z"/><path class="cls-9" d="M294.4,136.07l-.73.71a3.82,3.82,0,0,1-.06-.68Z"/><path class="cls-1" d="M122.63,89c2.57.17,4.41,1.6,6.14,3.35,8.55,8.59,17.2,17.09,25.66,25.77,1.94,2,3,2,5,0q26-26.26,52.24-52.33c4.66-4.66,8.18-5.36,11.31-2.26s2.4,6.74-2.17,11.31q-28.7,28.68-57.38,57.36c-5.17,5.17-7.82,5.15-13-.08Q135.2,117,120.11,101.86a17.24,17.24,0,0,1-2.81-3.35A6.37,6.37,0,0,1,122.63,89Z"/><path class="cls-1" d="M272.87,184c-1.26,5.36-2.74,6.66-8.23,6.66q-46.15.06-92.33,0c-5.46,0-6.77-1.15-8.29-6.65,1.86-5,3.36-6.15,8.87-6.15q45.57,0,91.13,0C269.64,177.84,271.16,179,272.87,184Z"/><path class="cls-1" d="M128.92,218.45a13.12,13.12,0,0,1-13,13.38,13.84,13.84,0,0,1-13.4-13.22,13.13,13.13,0,0,1,13.21-13.15A12.76,12.76,0,0,1,128.92,218.45Z"/><path class="cls-1" d="M328.61,218.51c0-7.65,5.42-13.07,13.05-13a13,13,0,0,1,13.22,13.09,13.56,13.56,0,0,1-13.27,13.28A13.09,13.09,0,0,1,328.61,218.51Z"/></g></g></svg>