<svg xmlns="http://www.w3.org/2000/svg" viewBox="0 0 354.2 348.16"><defs><style>.cls-1{fill:#e6a1ca;}.cls-2{fill:#e179b1;}.cls-3{fill:#d9397d;}.cls-4{fill:#7e3d4a;}.cls-5{fill:#633340;}</style></defs><title>Ресурс 1</title><g id="Слой_2" data-name="Слой 2"><g id="Слой_1-2" data-name="Слой 1"><path class="cls-1" d="M36.11,312.09c-10.5,0-21-.16-31.49.08-3.57.07-4.61-.87-4.6-4.53Q.2,227,.1,146.45.1,111,.12,75.6c0-1.43-.55-3,.68-4.29,1.1,1.25,2.57.75,3.88.75,21.1,0,42.21,0,63.32.1,3.31,0,4.2-.87,4.18-4.18-.16-21.11-.07-42.21-.1-63.32,0-1.31.5-2.78-.75-3.88C72.47-.39,73.93.1,75.24.1q80.21,0,160.42-.1c3.66,0,4.6,1,4.52,4.61-.23,10.49-.08,21-.08,31.48q0,47.32.1,94.65l-6.38,6.73c-2.09-1-4.07-2.28-6.6-1.17-3.75,1.66-4.57,5-2.3,10q-26.08,26.1-52.17,52.2c-.94.95-2.26,1.65-2.45,3.19-1,.9-1.16,2.16-1.56,3.33-4.16,12.3-8.39,24.57-12.46,36.89-1.06,3.21-2.66,6.33-2.9,10.1,16.45-5.4,32.56-10.68,48.67-16a5.68,5.68,0,0,0,1.44-1.11c1.54-.18,2.24-1.5,3.18-2.43q16.72-16.5,33.39-33.07,0,53.61,0,107.2c0,6.09.68,5.49-5.32,5.49Q135.44,312.1,36.11,312.09Zm83.94-210H38.36a17.52,17.52,0,0,0-3,0c-3.25.54-5.11,2.47-5.25,5.81a5.78,5.78,0,0,0,5.34,6.11,22.88,22.88,0,0,0,2.62,0H202.21a13.53,13.53,0,0,0,3-.09c3-.69,4.82-2.59,4.87-5.77.05-3.35-1.75-5.37-5-6.06a16.35,16.35,0,0,0-3.36-.08Zm-11.57,36H38.42a16.42,16.42,0,0,0-3.37.09c-3,.64-4.84,2.54-4.92,5.72C30,147.23,31.84,149.26,35,150a14.08,14.08,0,0,0,3,.08H178.15a14.15,14.15,0,0,0,3-.08c3-.66,4.85-2.55,4.93-5.72.08-3.35-1.71-5.39-4.91-6.11a15.67,15.67,0,0,0-3.36-.09Zm-18.34,48q26.6,0,53.19,0c4.21,0,6.68-2.21,6.76-5.84s-2.38-6.13-6.46-6.13q-53.58,0-107.14,0a6,6,0,0,0-5.22,2.38,5.8,5.8,0,0,0-.52,6.36c1.29,2.55,3.48,3.3,6.2,3.29Q63.55,186,90.14,186.08Zm66.34-120H109.66c-5,0-7.67,2.17-7.56,6.18.11,3.85,2.64,5.82,7.55,5.82h92.89c5,0,7.66-2.17,7.55-6.18-.1-3.85-2.63-5.81-7.54-5.82Zm-72.41,156h46.44c5.05,0,7.68-2.16,7.58-6.16-.09-3.85-2.62-5.83-7.52-5.84H37.68c-5,0-7.67,2.16-7.58,6.16.1,3.85,2.63,5.84,7.53,5.84Zm-6,24H37.65c-4.91,0-7.44,2-7.55,5.81-.11,4,2.51,6.19,7.55,6.19h80.89c4.91,0,7.44-2,7.55-5.81.12-4-2.51-6.18-7.55-6.19Z"/><path class="cls-2" d="M36.11,312.09q99.33,0,198.66,0c6,0,5.32.6,5.32-5.49q0-53.59,0-107.2c6.06-6.53,12.39-12.8,18.88-18.91,3.06,1.4,6.13,2.25,8.8-.69,2.51-2.76,1.85-5.62,0-8.42l8.27-7.91c0,1.12.11,2.24.11,3.36q0,88.49.08,177c0,3.39-.83,4.38-4.32,4.38Q156,348,40.14,348.16c-3.38,0-4.18-1-4.12-4.21C36.23,333.33,36.1,322.71,36.11,312.09Z"/><path class="cls-3" d="M276,163.45l-8.27,7.91q-17.26-16.63-33.89-33.89l6.38-6.73c12.18-11.8,24.22-23.74,35.94-36q9.14-9,18.28-17.94c1-.94,2.05-1.75,3.08-2.62Q312,88.72,326.43,103.26c4.53,4.55,4.52,4.56.58,9.15q-19.63,19.5-39.27,39C283.77,155.38,279.9,159.44,276,163.45Z"/><path class="cls-2" d="M276.14,94.74c-11.72,12.26-23.76,24.2-35.94,36q0-47.33-.1-94.65c10.49,0,21,.21,31.45-.12,4-.13,4.66,1.26,4.63,4.85C276,58.8,276.13,76.77,276.14,94.74Z"/><path class="cls-4" d="M327,112.41c3.94-4.59,3.95-4.6-.58-9.15Q312,88.71,297.5,74.18a57.85,57.85,0,0,1,11.09-11.07c10.1-7.49,23.7-5.9,32.17,3.51,8.17,9.09,7.88,23-.67,32.42-4.3,4.72-4.34,4.76.15,9.46,3.71,3.88,7.55,7.64,11.29,11.49,3.49,3.6,3.6,6.53.05,10.07q-24.81,24.75-49.75,49.37c-2.89,2.85-6.53,2.93-9,.45s-2.35-6.12.79-9.24q21.53-21.42,43.16-42.71c2.26-2.21,2.79-3.55.12-5.83C333.42,119.1,330.3,115.66,327,112.41Z"/><path class="cls-2" d="M71.33.78c1.25,1.1.75,2.57.75,3.88,0,21.11-.06,42.21.1,63.32,0,3.31-.87,4.2-4.18,4.18-21.11-.15-42.22-.07-63.32-.1-1.31,0-2.78.5-3.88-.75C9.92,62.12,19,52.89,28.16,43.74Q49.7,22.22,71.33.78Z"/><path class="cls-3" d="M258.94,180.47c-6.49,6.11-12.82,12.38-18.88,18.91q-16.68,16.55-33.39,33.07c-.94.93-1.64,2.25-3.18,2.43q-16.59-16.62-33.19-33.22c.19-1.54,1.51-2.24,2.45-3.19q26.06-26.11,52.17-52.2a22.24,22.24,0,0,1,2,1.6q15.15,15.12,30.27,30.27C257.88,178.83,258.74,179.41,258.94,180.47Z"/><path class="cls-2" d="M120.05,102.08h81.69a16.35,16.35,0,0,1,3.36.08c3.22.69,5,2.71,5,6.06,0,3.18-1.85,5.08-4.87,5.77a13.53,13.53,0,0,1-3,.09H38.08a22.88,22.88,0,0,1-2.62,0,5.78,5.78,0,0,1-5.34-6.11c.14-3.34,2-5.27,5.25-5.81a17.52,17.52,0,0,1,3,0Z"/><path class="cls-2" d="M108.48,138.08H177.8a15.67,15.67,0,0,1,3.36.09c3.2.72,5,2.76,4.91,6.11-.08,3.17-1.9,5.06-4.93,5.72a14.15,14.15,0,0,1-3,.08H38a14.08,14.08,0,0,1-3-.08c-3.2-.74-5-2.77-4.91-6.11.08-3.18,1.89-5.08,4.92-5.72a16.42,16.42,0,0,1,3.37-.09Z"/><path class="cls-2" d="M90.14,186.08q-26.6,0-53.19,0c-2.72,0-4.91-.74-6.2-3.29a5.8,5.8,0,0,1,.52-6.36,6,6,0,0,1,5.22-2.38q53.57,0,107.14,0c4.08,0,6.55,2.46,6.46,6.13s-2.55,5.83-6.76,5.84Q116.73,186.12,90.14,186.08Z"/><path class="cls-2" d="M156.48,66.08h46.07c4.91,0,7.44,2,7.54,5.82.11,4-2.51,6.18-7.55,6.18H109.65c-4.91,0-7.44-2-7.55-5.82-.11-4,2.52-6.17,7.56-6.18Z"/><path class="cls-2" d="M84.07,222.08H37.63c-4.9,0-7.43-2-7.53-5.84-.09-4,2.53-6.15,7.58-6.16h92.89c4.9,0,7.43,2,7.52,5.84.1,4-2.53,6.16-7.58,6.16Z"/><path class="cls-4" d="M170.3,201.66q16.59,16.6,33.19,33.22a5.68,5.68,0,0,1-1.44,1.11c-16.11,5.31-32.22,10.59-48.67,16,.24-3.77,1.84-6.89,2.9-10.1,4.07-12.32,8.3-24.59,12.46-36.89C169.14,203.82,169.33,202.56,170.3,201.66Z"/><path class="cls-2" d="M78.1,246.08h40.44c5,0,7.67,2.17,7.55,6.19-.11,3.84-2.64,5.81-7.55,5.81H37.65c-5,0-7.66-2.17-7.55-6.19.11-3.84,2.64-5.8,7.55-5.81Z"/><path class="cls-5" d="M258.94,180.47c-.2-1.06-1.06-1.64-1.75-2.33Q242.07,163,226.92,147.87a22.24,22.24,0,0,0-2-1.6c-2.27-5-1.45-8.31,2.3-10,2.53-1.11,4.51.19,6.6,1.17q16.62,17.26,33.89,33.89c1.88,2.8,2.54,5.66,0,8.42C265.07,182.72,262,181.87,258.94,180.47Z"/></g></g></svg>