<svg xmlns="http://www.w3.org/2000/svg" viewBox="0 0 384.17 409.06"><defs><style>.cls-1{fill:#7e3d4a;}.cls-2{fill:#cf3b68;}.cls-3{fill:#dd5f89;}.cls-4{fill:#e27da4;}.cls-5{fill:#fc7f85;}.cls-6{fill:#e3636d;}</style></defs><title>Ресурс 1</title><g id="Слой_2" data-name="Слой 2"><g id="Слой_1-2" data-name="Слой 1"><path class="cls-1" d="M189.68,409.06c-.92-1.46-2.6-1.72-4-2.39Q96,363.33,6.18,320.1C1.76,318,0,315.2,0,310.22q.2-106,0-212c0-5,1.81-7.74,6.22-9.85Q96.4,45.08,186.44,1.46a11.65,11.65,0,0,1,11.25,0q90,43.62,180.22,87c4.4,2.11,6.27,4.82,6.26,9.84q-.19,106,0,212c0,5-1.69,7.76-6.14,9.9q-89.82,43.17-179.53,86.56c-1.61.78-3.2,1.61-4.81,2.42Zm68.16-256.3c-6.07-3-12.11-6-18.21-9Q161.21,105.91,82.79,68a6.52,6.52,0,0,0-6.61,0c-6.25,3.23-12.67,6.14-19,9.21L20.57,95c1.26,1.68,3,2,4.55,2.78q61.18,29.61,122.38,59.14c5.49,2.65,6.18,4,4.95,9.63-2.94,3.59-6.27,3.07-10,1.26Q79.59,137.34,16.68,107.05c-1.39-.66-2.67-1.73-4.58-1.69v2q0,99.57-.07,199.15c0,2.7,1.23,3.59,3.28,4.58q83.39,40.19,166.74,80.43c1.16.56,2.2,1.53,3.78,1.3a18.68,18.68,0,0,0,.2-1.95q0-99.58.06-199.16c0-2.17-.62-3.37-2.65-4.25-3.79-1.63-7.45-3.53-11.16-5.34-5-2.45-5.67-3.71-5-9,3.51-3.78,5.13-4.13,9.76-2,3.84,1.8,7.73,3.52,11.44,5.57a6.78,6.78,0,0,0,7,.1c12.23-6.09,24.6-11.92,36.86-17.95,3.78-1.86,7.08-1.93,10,1.5,1,5.45.27,7-4.79,9.44-11.85,5.73-23.67,11.52-35.61,17.06-3,1.38-3.9,3.07-3.9,6.31q.15,97.76.08,195.52c0,4.85,0,4.85,4.55,2.66q83-40.06,166-80.07c2.68-1.29,3.5-2.73,3.5-5.67q-.15-98.16-.07-196.32V105c-1.7.76-3,1.3-4.3,1.92-15.81,7.63-31.57,15.34-47.44,22.84-2.65,1.26-3.62,2.66-3.6,5.64.14,22.12.06,44.25.09,66.37,0,3.08-.34,6-3.45,7.49-14.95,7.26-29.88,14.56-44.92,21.62-4.36,2-8-.47-8.48-5.27a35.73,35.73,0,0,1-.07-3.59q0-32.39,0-64.78C259.87,155.48,260.64,153.26,257.84,152.76ZM363.48,95c-.68-.37-1.32-.78-2-1.1Q278,53.58,194.55,13.23a5.31,5.31,0,0,0-5.18.14C174.69,20.55,160,27.62,145.24,34.75c-.72.35-1.75.44-2.09,1.62.78.44,1.44.86,2.14,1.2q83.49,40.29,166.94,80.65c2,1,3.43.5,5.15-.33q21.51-10.44,43.07-20.84C361.49,96.54,362.77,96.34,363.48,95Zm-63.61,31.31c-.53-1.27-1.5-1.5-2.29-1.88L131.25,44.15c-1.2-.58-2.34-1.28-3.76-.59L94.13,59.76a8.48,8.48,0,0,0,1.24,1l168.12,81.15c1.11.53,2.06,1,3.36.33C277.81,136.93,288.8,131.65,299.87,126.32Zm-27.95,89.62c10.91-5.26,21.06-10.19,31.25-15,1.75-.83,1.62-2.16,1.62-3.63,0-18.8-.05-37.59,0-56.39,0-2.92-.59-3.47-3.28-2.13q-13.4,6.67-26.95,13c-2.21,1-2.78,2.36-2.73,4.61.13,6.13.05,12.26,0,18.39Z"/><path class="cls-2" d="M167.29,173.07c-.68,5.33,0,6.59,5,9,3.71,1.81,7.37,3.71,11.16,5.34,2,.88,2.65,2.08,2.65,4.25Q186,291.28,186,390.86a18.68,18.68,0,0,1-.2,1.95c-1.58.23-2.62-.74-3.78-1.3Q98.68,351.29,15.31,311.08c-2.05-1-3.29-1.88-3.28-4.58q.13-99.57.07-199.15v-2c1.91,0,3.19,1,4.58,1.69q62.89,30.32,125.76,60.71c3.74,1.81,7.07,2.33,10-1.26C157.83,167.71,162.35,170.86,167.29,173.07ZM90,275.35c0-2.93-1.67-4.68-4.1-5.86q-25.48-12.3-51-24.55a7.24,7.24,0,0,0-2.26-.7,5.6,5.6,0,0,0-6.37,3.65c-1.16,2.72-.27,5,1.86,6.74a13.11,13.11,0,0,0,2.73,1.62l48.8,23.58a10.66,10.66,0,0,0,4.14,1.33A5.72,5.72,0,0,0,90,275.35ZM32.1,272.47c-3,.29-5.07,1.44-6,4.19a5.43,5.43,0,0,0,2.9,7.06Q42.71,290.59,56.6,297c3,1.4,5.78.52,7.53-2.44,2-3.3.66-6.73-3.44-8.77-8.44-4.18-16.94-8.23-25.43-12.29A23.94,23.94,0,0,0,32.1,272.47Z"/><path class="cls-3" d="M257.84,152.76c2.8.5,2,2.72,2,4.44q.06,32.4,0,64.78a35.73,35.73,0,0,0,.07,3.59c.48,4.8,4.12,7.31,8.48,5.27,15-7.06,30-14.36,44.92-21.62,3.11-1.51,3.45-4.41,3.45-7.49,0-22.12.05-44.25-.09-66.37,0-3,.95-4.38,3.6-5.64,15.87-7.5,31.63-15.21,47.44-22.84,1.28-.62,2.6-1.16,4.3-1.92v4.3q0,98.16.07,196.32c0,2.94-.82,4.38-3.5,5.67q-83,39.93-166,80.07c-4.55,2.19-4.55,2.19-4.55-2.66q0-97.76-.08-195.52c0-3.24.92-4.93,3.9-6.31,11.94-5.54,23.76-11.33,35.61-17.06,5.06-2.45,5.81-4,4.79-9.44C247.56,157.92,253.22,156.41,257.84,152.76Z"/><path class="cls-4" d="M257.84,152.76c-4.62,3.65-10.28,5.16-15.5,7.57-2.88-3.43-6.18-3.36-10-1.5-12.26,6-24.63,11.86-36.86,17.95a6.78,6.78,0,0,1-7-.1c-3.71-2.05-7.6-3.77-11.44-5.57-4.63-2.17-6.25-1.82-9.76,2-4.94-2.21-9.46-5.36-14.84-6.57,1.23-5.58.54-7-4.95-9.63Q86.32,127.31,25.12,97.73c-1.51-.73-3.29-1.1-4.55-2.78l36.6-17.71c6.34-3.07,12.76-6,19-9.21a6.52,6.52,0,0,1,6.61,0q78.37,38,156.84,75.77C245.73,146.72,251.77,149.76,257.84,152.76Z"/><path class="cls-4" d="M363.48,95c-.71,1.33-2,1.53-3,2q-21.52,10.44-43.07,20.84c-1.72.83-3.11,1.31-5.15.33Q228.8,77.79,145.29,37.57c-.7-.34-1.36-.76-2.14-1.2.34-1.18,1.37-1.27,2.09-1.62,14.71-7.13,29.45-14.2,44.13-21.38a5.31,5.31,0,0,1,5.18-.14Q278,53.63,361.48,93.91C362.16,94.23,362.8,94.64,363.48,95Z"/><path class="cls-5" d="M299.87,126.32c-11.07,5.33-22.06,10.61-33,16-1.3.63-2.25.2-3.36-.33L95.37,60.79a8.48,8.48,0,0,1-1.24-1l33.36-16.2c1.42-.69,2.56,0,3.76.59l166.33,80.29C298.37,124.82,299.34,125.05,299.87,126.32Z"/><path class="cls-6" d="M271.92,215.94V174.79c0-6.13.09-12.26,0-18.39-.05-2.25.52-3.59,2.73-4.61q13.56-6.31,26.95-13c2.69-1.34,3.3-.79,3.28,2.13-.1,18.8,0,37.59,0,56.39,0,1.47.13,2.8-1.62,3.63C293,205.75,282.83,210.68,271.92,215.94Z"/><path class="cls-1" d="M90,275.35a5.72,5.72,0,0,1-6.18,5.81,10.66,10.66,0,0,1-4.14-1.33l-48.8-23.58a13.11,13.11,0,0,1-2.73-1.62c-2.13-1.79-3-4-1.86-6.74a5.6,5.6,0,0,1,6.37-3.65,7.24,7.24,0,0,1,2.26.7q25.5,12.26,51,24.55C88.34,270.67,90,272.42,90,275.35Z"/><path class="cls-1" d="M32.1,272.47a23.94,23.94,0,0,1,3.16,1.06c8.49,4.06,17,8.11,25.43,12.29,4.1,2,5.39,5.47,3.44,8.77-1.75,3-4.52,3.84-7.53,2.44Q42.73,290.58,29,283.72a5.43,5.43,0,0,1-2.9-7.06C27,273.91,29.12,272.76,32.1,272.47Z"/></g></g></svg>