<svg xmlns="http://www.w3.org/2000/svg" viewBox="0 0 244.12 384.01"><defs><style>.cls-1{fill:#e178b0;}.cls-2{fill:#e6a1ca;}.cls-3{fill:#dc5790;}.cls-4{fill:#d9397d;}.cls-5{fill:#e179b1;}.cls-6{fill:#7e3d4a;}.cls-7{fill:#dd5a92;}.cls-8{fill:#dd5a91;}.cls-9{fill:#633340;}.cls-10{fill:#dc5891;}</style></defs><title>Ресурс 1</title><g id="Слой_2" data-name="Слой 2"><g id="Слой_1-2" data-name="Слой 1"><path class="cls-1" d="M106.3,384c-4.84-1.49-9.93-1.32-14.87-2.17a181.53,181.53,0,0,1-18.07-3.9c.54-1.25,1.61-1.37,2.79-1.43,10-.51,19.33-3.58,28.11-8.08,18.78-9.64,32.33-24.66,42.18-43.05,13.87-25.89,18.26-53.61,15.43-82.7a140.72,140.72,0,0,0-13.62-47.76c-3.31-6.86-7.78-13-11.92-19.36l9.76,0c1.41,1.58,2.91,3.09,4.2,4.75,15.4,19.85,24.35,42.73,31,66.62a374.12,374.12,0,0,1,11.42,62.88c1.41,14,2,28,2.87,42,0,1.87,0,3.74-.07,5.61-.06,7.31-3.14,12.67-10.06,15.55a148.61,148.61,0,0,1-32.31,8.8c-5.1.87-10.33.75-15.33,2.22Z"/><path class="cls-2" d="M136.33,175.56c4.14,6.35,8.61,12.5,11.92,19.36a140.72,140.72,0,0,1,13.62,47.76c2.83,29.09-1.56,56.81-15.43,82.7-9.85,18.39-23.4,33.41-42.18,43.05-8.78,4.5-18.12,7.57-28.11,8.08-1.18.06-2.25.18-2.79,1.43a126.47,126.47,0,0,1-15-5.17c-6.41-2.75-9.26-7.89-9.69-14.59-.13-2.1-.1-4.21-.14-6.32,1.23-1.25.75-2.84.73-4.28-.2-13.21,1.14-26.35,2.49-39.44A371.74,371.74,0,0,1,59,263.33c7.3-31.82,17.56-62.29,39.07-87.78l12-.19q12,9.18,23.91,0Z"/><path class="cls-2" d="M81.55,150.79c-5.12-11.89-8.75-24.3-12.68-36.61a249.06,249.06,0,0,1-7-27.8C57.93,66.5,68.67,51.54,85.12,47.61a2.85,2.85,0,0,0,.65-.37l11.49,0c7.83,2.28,14.69,6,19.4,13,2.51,3.73,4,7.88,5.42,12.27,1.48-5.19,3.32-10.12,6.83-14.16,4.12-4.76,8.69-8.9,15.38-9.6A22.39,22.39,0,0,1,156.35,55c9.79,9.07,11.37,20.37,8.82,32.89-4.39,21.54-11.77,42.15-19.07,62.79L134,150.9q-11.94-9.27-23.87,0Zm61-36.83c5.22.05,8.36-3.42,7.09-7.55-1.14-3.68-4.37-4.23-7.52-4.28a21.25,21.25,0,0,1-15.94-6.9c-3-3.18-5.23-3.18-8.21,0a23.3,23.3,0,0,1-9.3,6c-2.91,1.06-5.94.5-8.84,1.13-4.08.88-5.8,2.89-5.51,6.26s2.82,5.58,6.81,5.33c6.5-.41,12.86-1.59,18.41-5.3a3.85,3.85,0,0,1,5,0C130.07,112.34,136.46,113.35,142.54,114Z"/><path class="cls-3" d="M98.05,175.55C76.54,201,66.28,231.51,59,263.33a371.74,371.74,0,0,0-7.27,44.81c-1.35,13.09-2.69,26.23-2.49,39.44,0,1.44.5,3-.73,4.28a113.66,113.66,0,0,1-15.66-6.77c-5.55-2.87-8.27-7.48-8.45-13.8-.09-3.1,1.35-6.39-.81-9.32,1.56-2.25,1.69-4.84,1.71-7.42.06-10.95,1.54-21.79,3.28-32.53,2.63-16.29,6.35-32.37,12.33-47.85,7.75-20,17.68-38.68,33.63-53.58,1.21-1.13,3.13-1.75,3.36-3.79l3.53-1.5Z"/><path class="cls-3" d="M195.57,351.83c-.85-14-1.46-28-2.87-42A374.12,374.12,0,0,0,181.28,247c-6.64-23.89-15.59-46.77-31-66.62-1.29-1.66-2.79-3.17-4.2-4.75l16.6-.29a8.18,8.18,0,0,1,3.53,1.51,5.08,5.08,0,0,0,.82,1.59c19.33,16.82,30.58,38.74,38.55,62.46a265.12,265.12,0,0,1,13.27,74.81c.08,2.15.2,4.45,1.68,6.29-1.83,1.61-1.07,3.77-.88,5.6,1,9.65-3.1,15.93-12,19.41C203.58,348.53,199.75,350.61,195.57,351.83Z"/><path class="cls-4" d="M220.54,322c-1.48-1.84-1.6-4.14-1.68-6.29a265.12,265.12,0,0,0-13.27-74.81c-8-23.72-19.22-45.64-38.55-62.46a5.08,5.08,0,0,1-.82-1.59c12.24,4.5,22.84,11.68,32.51,20.27,22.69,20.17,35.64,45.8,41.79,75.19a193.1,193.1,0,0,1,3.57,28.94c.36,6.52-2.33,11.75-8.26,14.79A74.73,74.73,0,0,1,220.54,322Z"/><path class="cls-4" d="M77.88,176.8c-.23,2-2.15,2.66-3.36,3.79-15.95,14.9-25.88,33.53-33.63,53.58-6,15.48-9.7,31.56-12.33,47.85-1.74,10.74-3.22,21.58-3.28,32.53,0,2.58-.15,5.17-1.71,7.42a80.42,80.42,0,0,1-15-5.78C2.93,313.44-.28,308.58,0,302.34c2-40.87,14.2-77.39,45.64-105.5C55.2,188.31,65.78,181.29,77.88,176.8Z"/><path class="cls-5" d="M146.1,150.69c7.3-20.64,14.68-41.25,19.07-62.79,2.55-12.52,1-23.82-8.82-32.89a22.39,22.39,0,0,0-12.06-6.28l2.52-1.47a41.86,41.86,0,0,1,11.51,0c8.32,2.24,15.3,6.34,20.12,13.8,5.7,8.83,5.57,18.31,3.49,28C177.47,109.9,170.56,130,163.26,150a3.85,3.85,0,0,1-.64.89Z"/><path class="cls-6" d="M146.1,150.69l16.52.17q0,12.22.07,24.44l-16.6.29-9.76,0-2.32-.19c6.44-10.51,6.43-16,0-24.47Z"/><path class="cls-6" d="M98.08,175.55l-16.64-.21q0-12.26.07-24.51l28.57,0c-3.58,4-4.91,8.7-4.63,14.12.21,4.21,2.62,7.13,4.68,10.35Z"/><path class="cls-7" d="M97.26,47.26l-11.49,0q2.9-20.19,5.8-40.38c.07-.49.23-1,.34-1.45.84-3.77,3.28-5.8,6.43-5.35,3.34.49,5.37,3.3,4.85,7.22-1,7.3-2.12,14.57-3.2,21.85Q98.64,38.19,97.26,47.26Z"/><path class="cls-8" d="M158.32,47.21a41.86,41.86,0,0,0-11.51,0L141.17,9.15a25.3,25.3,0,0,1-.33-2.6c-.14-3.46,1.82-6,4.9-6.48s5.75,1.46,6.35,4.95c1.33,7.87,2.48,15.77,3.64,23.66C156.64,34.85,157.46,41,158.32,47.21Z"/><path class="cls-9" d="M110.1,175.36c-2-3.22-4.46-6.15-4.66-10.36-.26-5.41,1.08-10.07,4.68-14.1q11.92-9.3,23.87,0c6.45,8.52,6.46,14,0,24.47Q122.06,184.53,110.1,175.36Z"/><path class="cls-10" d="M142.54,114c-6.08-.61-12.47-1.62-18-5.36a3.85,3.85,0,0,0-5,0c-5.55,3.71-11.91,4.89-18.41,5.3-4,.25-6.52-1.91-6.81-5.33s1.43-5.38,5.51-6.26c2.9-.63,5.93-.07,8.84-1.13a23.3,23.3,0,0,0,9.3-6c3-3.15,5.23-3.15,8.21,0a21.25,21.25,0,0,0,15.94,6.9c3.15.05,6.38.6,7.52,4.28C150.9,110.54,147.76,114,142.54,114Z"/></g></g></svg>