<svg xmlns="http://www.w3.org/2000/svg" viewBox="0 0 512 512"><defs><style>.cls-1{fill:#fcfcfd;}.cls-2{fill:#36589e;}.cls-3{fill:#335392;}.cls-4{fill:#375696;}.cls-5{fill:#214078;}.cls-6{fill:#385798;}.cls-7{fill:#335498;}.cls-8{fill:#2f4f8d;}.cls-9{fill:#2a4a88;}.cls-10{fill:#274784;}.cls-11{fill:#24447e;}.cls-12{fill:#2a4c8d;}.cls-13{fill:#315295;}.cls-14{fill:#2e5093;}.cls-15{fill:#2c4e90;}</style></defs><title>Ресурс 1</title><g id="Слой_2" data-name="Слой 2"><g id="Слой_1-2" data-name="Слой 1"><path class="cls-1" d="M72.18,70.51l59.12-23,110.93,6,141.67-6,56.54,23,3.8,69s-2.55,67.4,0,68.09,5.1,85.3,5.1,85.3L415.09,399.61s-9.78,52.56-12.85,57.74S389.81,502,389.81,502l-36.67,7L263,512l-42-17.68-97.22-62.39S86.93,314.29,87,297s.41-155-1.88-168.66S72.18,70.51,72.18,70.51Z"/><path class="cls-2" d="M419.63,86c-1.77-1.37-3.85-.81-5.79-.8q-38.41.09-76.84.27c1.16-8,7-12.56,13.53-14.46,15.94-4.62,22.83-18.35,32.18-29.67,2.2-2.67,1.33-3.93-2.46-4.51-10.59-1.62-21.36-1.08-31.9-3.78s-21.7-2.4-32.54-2.81c-14.58-.56-29.18-2-43.81-1.27H222c-5.27-.1-10.41,1.46-15.74,1-10.55-.82-21,1.55-31.6,1A2.88,2.88,0,0,0,172,32c-5.92.33-11.85,1-17.76.89-6.49-.17-12.89.74-19.23,1.44-4.29.48-8.93-.62-13,1.66-19.51-.15-37.25,5.14-53,17A80.33,80.33,0,0,0,40.57,92.74c-3,9-3.88,18.37-4.8,27.79C34.13,137.34,32.46,154.12,32,171c-2.35,7.41-1.36,15.18-1.68,22.68C29.58,211.43,28.24,229.2,29,247v50c-1.09,2.24-2.5,4.52,1,6v13c-3.46,1-1.89,3.82-1.9,5.79,0,3.42-1,5.59-4.53,6.57-2.18.6-4.15,2-6.23,3-4.85,2.33-9.48,5.28-15.06,5.68-.38-7.82-.65-15.64-1.2-23.45-.21-2.85,1-5.93-1.08-8.55V207c1.6-.83.94-2.34,1-3.55,1.27-37.44,4.08-74.77,7.88-112C13.23,48.6,48.21,13.35,90.92,8.91,128.34,5,165.84,2.26,203.45,1c1.21,0,2.72.61,3.55-1h97c.84,1.59,2.35.92,3.56,1,37.77,1.23,75.44,4,113,7.9,38.85,4.06,71.59,32.86,80.48,70.79,2.83,12,3.14,24.4,4.41,36.63,2,19.19,3.15,38.46,4.19,57.73-4.93-2.12-7.22-7.32-11.67-10q-14.89-16.11-31-31a18.25,18.25,0,0,0-1.5-2Q444,109.48,422.45,88C421.63,87.14,420.89,86.21,419.63,86Z"/><path class="cls-3" d="M498,164c4.45,2.69,6.74,7.89,11.67,10a132.4,132.4,0,0,1,.41,16.31c-.27,5.62-.69,11.35,1.92,16.68v6c-1.69,1.44-1,3.4-1,5.14-.06,9.62,0,19.24,0,28.86.14,1.38-.46,2.95,1,4v10c-1.81,1.75-.68,4-1,6,.62,6.65-1.31,13.43,1,20v6c-3.17-.61-4.26,1.49-5.47,3.86-9.22,18.05-18.09,36.28-27.46,54.26-13.13,25.22-25.52,50.81-38.23,76.24-1.13,2.26.35,12.2,2.11,13.78a2.66,2.66,0,0,0,1.76.76c6.47-.65,11.58,3.71,17.68,5,10.24,2.08,20.38,4.86,30.81,6.2-2.74,5.41-5.07,11.11-10.09,15-8.55-2.12-17.36-2.35-26-2.86-13.08-.77-25.9-3.32-38.89-4.6a110.15,110.15,0,0,1-15.94-3.24c-7.45-1.89-15.09-4-20.72-10-.72-.76-2.07-1-3.18-1.32-9-2.53-12.67-10.46-8.48-18.71,12.36-24.33,24.32-48.86,36.9-73.09,14.73-28.36,28.76-57.09,42.9-85.75,1.87-3.78,6.16-7.39,2.48-12.5-.53-.74.29-1.92,1-2.63,1.87-1.78,2.7-4.18,3.82-6.39,7.84-15.63,15.73-31.22,23.42-46.92,3-6.17,6.42-11.87,11.49-16.71,3.17-3,5.32-7.15,7.69-10.94a4,4,0,0,0-.47-4.7A5.18,5.18,0,0,1,498,164Z"/><path class="cls-4" d="M493.2,453.06c-10.43-1.34-20.57-4.12-30.81-6.2-6.1-1.25-11.21-5.61-17.68-5a2.66,2.66,0,0,1-1.76-.76c-1.76-1.58-3.24-11.52-2.11-13.78,12.71-25.43,25.1-51,38.23-76.24,9.37-18,18.24-36.21,27.46-54.26,1.21-2.37,2.3-4.47,5.47-3.86v13c-1.81,1.18-.94,3-1,4.54q-1.92,56.38-8.18,112.43A74.15,74.15,0,0,1,493.2,453.06Z"/><path class="cls-5" d="M205,512c-.44-1.31-1.57-1-2.49-1-24.75-.43-49.45-2-74.08-4.26-17.78-1.62-35.79-1.82-53.2-6.64a54.47,54.47,0,0,1-14.38-5.79c1.94-2.85,4.92-2.31,7.69-2.31H263.08a123.66,123.66,0,0,1-.08,20H239a33.44,33.44,0,0,0-18,0Z"/><path class="cls-2" d="M511,247c0-9.62-.05-19.24,0-28.86,0-1.74-.7-3.7,1-5.14v34Z"/><path class="cls-2" d="M512,287c-2.31-6.57-.38-13.35-1-20h1Z"/><path class="cls-6" d="M221,512a33.44,33.44,0,0,1,18,0Z"/><path class="cls-4" d="M512,267h-1c.32-2-.81-4.25,1-6Z"/><path class="cls-4" d="M511,247h1v4C510.54,250,511.14,248.38,511,247Z"/><path class="cls-7" d="M272,29c14.63-.73,29.23.71,43.81,1.27,10.84.41,22,.1,32.54,2.81s21.31,2.16,31.9,3.78c3.79.58,4.66,1.84,2.46,4.51C373.36,52.69,366.47,66.42,350.53,71,344,72.94,338.16,77.55,337,85.5c-27.31,3.37-48.43,16.47-62.66,40.19-8,13.35-10.95,28-10.95,43.45,0,17.48-.1,35,.07,52.43,0,3.61-.77,4.91-4.64,4.82-12.81-.3-25.63-.2-38.44-.26-2.55-.06-2.37,1.77-2.38,3.45,0,11.11-1.74,22.18-1,33.3.23,3.3-1.1,5.29-4,6.65-11.45,5.3-22.79,10.84-34.31,16a15.5,15.5,0,0,0-6.73,5.55q-7,10-14,19.94c-1.91.05-2.91,1.35-3.89,2.75-8.65,12.35-17.49,24.58-25.92,37.08a23.19,23.19,0,0,1-13.51,9.88c-.69-1.81.42-2.78,1-3.85,6.62-11.31,13.89-22.2,21.56-32.82.92-1.26,2.48-2.86,1-4.41-1.24-1.32-3.11-.67-4.67.07a53.22,53.22,0,0,1-6.31,3c-1.46.48-3.32,2.18-4.57.73s.72-2.89,1.5-4.26c2.13-3.72,6.3-6.91,6.13-11.14-.17-4,1.41-6.62,3.31-9.45,2.95-4.4,6.17-8.63,9-13.13,1.75-2.82,4.46-5.21,5.05-9-6.45,1.76-8.81,3.36-11.91,7.91-5.61,8.22-11.11,16.51-16.87,24.63-3.6,5.08-6.83,10.58-13.1,13.16-4.75,1.95-9.35,4.3-14,6.47-1.79.83-3.59,2.2-5.6.87-2.42-1.6-.22-3.62-.25-5.45v-1a1.83,1.83,0,0,0,2-2c3.29-4.48,6.85-8.78,9-14a1.83,1.83,0,0,0,2-2c1.16-1.6,2.29-3.23,3.48-4.81,2.19-2.9,5-5.72.39-9-1-.68-.7-1.82-.09-2.71,5.32-7.78,9.4-16.59,17-22.58a67,67,0,0,0,14.45-15.61c6.42-9.66,13.31-19,19.61-28.74,10.72-16.58,23.09-32,34.28-48.2,1-1.53,2.13-3.12,1.87-5-.42-3,1.14-5.07,2.6-7.29,8.35-12.76,17.86-24.69,26.81-37a17.89,17.89,0,0,1,8.81-6.78c5.45-2,9.41-6.07,12.53-10.87.58-.89,2.11-2.91-.07-3.14-6.27-.65-2.37-4-1.34-5.56,5.9-9,12-17.87,18.23-26.7,5.79-8.28,11-17,18-24.36.95-1,1.86-2.52,1.05-4.12s-2.31-1.61-3.85-.93c-.79.34-1.69.51-2.27-.27a2,2,0,0,1,.44-2.69C273.71,35.67,274.57,32.54,272,29Z"/><path class="cls-6" d="M158,311q7-10,14-19.94a15.5,15.5,0,0,1,6.73-5.55c11.52-5.14,22.86-10.68,34.31-16,2.93-1.36,4.26-3.35,4-6.65-.77-11.12.93-22.19,1-33.3,0-1.68-.17-3.51,2.38-3.45C220.25,234.07,220,242,220,250q-.07,23.12,0,46.22c0,1.66-.94,3.67,1,5C234.3,314.65,248.57,327,263.11,339c.09,8,.26,15.91.25,23.86q-.08,42.56-.24,85.1c-22-.55-43.89.19-65.86-.72-20.74-.86-41.54-2-62.34-1.28a13.35,13.35,0,0,1-2,0,7.71,7.71,0,0,1-2.89-.56c-8.81-5.1-19.38-.14-28.43-5.14-2.26-1.26-5.78-1.21-7.95-3.28-2.66-2.55-5.67-3-9.14-3.07-4,0-8.12.78-12.33-.66,1.64-2.23,3.8-2.88,5.74-3.66,5.3-2.13,9.52-6.17,12.58-10.3,11.26-15.18,21.63-31,32.35-46.62.9-1.3,1.74-2.67.54-4-1-1.19-2.44-.43-3.71,0-4.82,1.48-9,4.27-13.57,6.3-.83.36-1.8,1.35-2.67.28s0-1.8.52-2.68c2.13-3.87,5.65-5.85,9.53-7.58,5-2.2,10.67-3.56,14-8.23,9.66-13.49,19.05-27.16,28.52-40.78C157.05,314.46,158.36,313.05,158,311Z"/><path class="cls-8" d="M498,164a5.18,5.18,0,0,0,1.13,3.71,4,4,0,0,1,.47,4.7c-2.37,3.79-4.52,7.92-7.69,10.94-5.07,4.84-8.47,10.54-11.49,16.71-7.69,15.7-15.58,31.29-23.42,46.92-1.12,2.21-1.95,4.61-3.82,6.39-.75.71-1.57,1.89-1,2.63,3.68,5.11-.61,8.72-2.48,12.5-14.14,28.66-28.17,57.39-42.9,85.75-12.58,24.23-24.54,48.76-36.9,73.09-4.19,8.25-.51,16.18,8.48,18.71,1.11.31,2.46.56,3.18,1.32,5.63,6,13.27,8.09,20.72,10a110.15,110.15,0,0,0,15.94,3.24c13,1.28,25.81,3.83,38.89,4.6,8.68.51,17.49.74,26,2.86-2.38,2-2.78,5.79-6.06,7.05a5.28,5.28,0,0,0-4.82-2.07c-8.81.64-17.53-.94-26.31-1.09-10.74-.19-21.43-1.51-32.15-2.18-10.33-.65-20.52-3.45-30.85-4.11-10.54-.67-19.32-7.27-29.78-7.65-.06-18.49-.16-37-.18-55.47,0-32.16.07-64.32-.13-96.48,0-4.22,1.12-5.2,5.23-5.13,16.65.25,33.32.09,50,.14,2.48,0,4.41.1,4.71-3.35,2-22.89,4.23-45.76,6.35-68.64a14.86,14.86,0,0,0-.32-2.94,70.28,70.28,0,0,0,10-12.83c10.11-17.83,18.53-36.52,27.94-54.72a24.38,24.38,0,0,1,2.87-4.63c5.13-6.07,9.6-12.32,7.39-20.95Q483.13,147.88,498,164Z"/><path class="cls-4" d="M158,311c.36,2.05-.95,3.46-2,4.94-9.47,13.62-18.86,27.29-28.52,40.78-3.34,4.67-9,6-14,8.23-3.88,1.73-7.4,3.71-9.53,7.58-.49.88-1.28,1.75-.52,2.68s1.84.08,2.67-.28c4.55-2,8.75-4.82,13.57-6.3,1.27-.4,2.66-1.16,3.71,0,1.2,1.36.36,2.73-.54,4-10.72,15.59-21.09,31.44-32.35,46.62-3.06,4.13-7.28,8.17-12.58,10.3-1.94.78-4.1,1.43-5.74,3.66,4.21,1.44,8.33.62,12.33.66,3.47,0,6.48.52,9.14,3.07,2.17,2.07,5.69,2,7.95,3.28,9.05,5,19.62,0,28.43,5.14a7.71,7.71,0,0,0,2.89.56,13.35,13.35,0,0,0,2,0c20.8-.76,41.6.42,62.34,1.28,22,.91,43.91.17,65.86.72a25.86,25.86,0,0,1,0,8q-38.34.21-76.62-1.92c-22.68-1.25-45.37.45-68.15-1.6-18.06-1.62-36.19-3.37-54.34-4.33-1.8-.09-3.42.31-2.83,2.24,1.94,6.36-2.51,5.48-6.05,5.59-3.33.1-6.66-.12-10,0-8.1.39-16.29-1.12-24.31,1a22.13,22.13,0,0,1-3.91-8c11.28-.42,22.59.77,33.87-.93,3.11-.47,3.91-1.64,2.58-4.17-2.07-3.94-3.65-8.08-6.21-11.84C37.49,417.9,36.74,401.3,35,385c3.64,2.25,5.74,1.18,8.12-2.44,10.1-15.38,20.41-30.64,31.07-45.64C77.54,332.21,79.73,326.15,86,324c0,1.83-2.17,3.85.25,5.45,2,1.33,3.81,0,5.6-.87,4.67-2.17,9.27-4.52,14-6.47,6.27-2.58,9.5-8.08,13.1-13.16,5.76-8.12,11.26-16.41,16.87-24.63,3.1-4.55,5.46-6.15,11.91-7.91-.59,3.8-3.3,6.19-5.05,9-2.81,4.5-6,8.73-9,13.13-1.9,2.83-3.48,5.44-3.31,9.45.17,4.23-4,7.42-6.13,11.14-.78,1.37-2.78,2.76-1.5,4.26s3.11-.25,4.57-.73a53.22,53.22,0,0,0,6.31-3c1.56-.74,3.43-1.39,4.67-.07,1.44,1.55-.12,3.15-1,4.41-7.67,10.62-14.94,21.51-21.56,32.82-.63,1.07-1.74,2-1,3.85a23.19,23.19,0,0,0,13.51-9.88c8.43-12.5,17.27-24.73,25.92-37.08C155.09,312.35,156.09,311.05,158,311Z"/><path class="cls-9" d="M467,133c2.21,8.63-2.26,14.88-7.39,20.95a24.38,24.38,0,0,0-2.87,4.63c-9.41,18.2-17.83,36.89-27.94,54.72a70.28,70.28,0,0,1-10,12.83L381,226c-.24-2.32,1.06-4.13,2-6q13.55-27.13,27.11-54.26c.88-1.77,2.08-3.43,1.88-5.57,7.41-.4,7.39-.4,7.41-7.88q.1-33.12.22-66.25c1.26.18,2,1.11,2.82,1.93Q444,109.49,465.5,131A18.25,18.25,0,0,1,467,133Z"/><path class="cls-10" d="M412,160.16c.2,2.14-1,3.8-1.88,5.57Q396.57,192.87,383,220c-.95,1.91-2.25,3.72-2,6-8.3.08-16.61.1-24.91.29-2.31.05-3.2-.59-3.18-3.06.11-15.12-.15-30.25.18-45.37a18.28,18.28,0,0,1,18-17.79C384.74,159.86,398.37,160.12,412,160.16Z"/><path class="cls-3" d="M20.83,457.06c8-2.15,16.21-.64,24.31-1,3.32-.17,6.65.05,10,0,3.54-.11,8,.77,6.05-5.59-.59-1.93,1-2.33,2.83-2.24,18.15,1,36.28,2.71,54.34,4.33,22.78,2,45.47.35,68.15,1.6q38.3,2.09,76.62,1.92a38.92,38.92,0,0,1,0,10c-18.1-.49-36.2,0-54.33-.76-33-1.41-66.16.6-99.25-1.13-26.06-1.36-52,3.39-78.14,1.9a5.19,5.19,0,0,0-2,.16,7.19,7.19,0,0,0-1.58,1.11A37.32,37.32,0,0,1,20.83,457.06Z"/><path class="cls-8" d="M27.84,467.28a7.19,7.19,0,0,1,1.58-1.11,5.19,5.19,0,0,1,2-.16c26.11,1.49,52.08-3.26,78.14-1.9,33.09,1.73,66.21-.28,99.25,1.13,18.13.77,36.23.27,54.33.76a31.56,31.56,0,0,1,0,9c-34.4-.11-68.8.1-103.21-.89-39.55-1.13-79.1,1.6-118.67.87a12,12,0,0,0-5.78,1.22C32.77,473.34,29.54,471,27.84,467.28Z"/><path class="cls-9" d="M35.44,476.2A12,12,0,0,1,41.22,475c39.57.73,79.12-2,118.67-.87,34.41,1,68.81.78,103.21.89a19.6,19.6,0,0,1,0,7H207.69q-79.12,0-158.25.06c-1.87,0-4.53-1.36-5.44,1.85A48.6,48.6,0,0,1,35.44,476.2Z"/><path class="cls-11" d="M459.1,489c-4.4,4.72-10.51,6.48-16.13,8.9-11.89,5.13-24.74,5.76-37.41,6.94-15.35,1.42-30.73,2.56-46.09,3.88-6.52.56-6.54.62-6.51-5.82,0-5.31.12-10.62.18-15.93,7.45.14,14.91.6,22.32.77,21.48.48,43,.47,64.46,1.09C446.29,489.05,452.71,487.09,459.1,489Z"/><path class="cls-12" d="M353.14,458c10.46.38,19.24,7,29.78,7.65,10.33.66,20.52,3.46,30.85,4.11,10.72.67,21.41,2,32.15,2.18,8.78.15,17.5,1.73,26.31,1.09a5.28,5.28,0,0,1,4.82,2.07c-2.12,3-4.42,5.72-8,7-.93-1.3-2.32-1.07-3.63-1.1l-49.74-1a27.71,27.71,0,0,1-4-.09c-19.39-3.36-39.29-1.49-58.56-5.91Z"/><path class="cls-10" d="M44,483.91c.91-3.21,3.57-1.85,5.44-1.85q79.13-.1,158.25-.06H263.1a10.44,10.44,0,0,1,0,5H60.74c-3.14,0-6.35-.27-8.86,2.25C48.73,488.25,46.49,485.9,44,483.91Z"/><path class="cls-11" d="M51.88,489.25c2.51-2.52,5.72-2.25,8.86-2.25H263.09a10.32,10.32,0,0,1,0,5H68.54c-2.77,0-5.75-.54-7.69,2.31C57.73,492.86,54.36,491.85,51.88,489.25Z"/><path class="cls-10" d="M353.14,474c19.27,4.42,39.17,2.55,58.56,5.91a27.71,27.71,0,0,0,4,.09l49.74,1c1.31,0,2.7-.2,3.63,1.1-2.48,3.51-6.14,5.33-9.95,6.94-6.39-2-12.81,0-19.18-.17-21.49-.62-43-.61-64.46-1.09-7.41-.17-14.87-.63-22.32-.77Z"/><path class="cls-11" d="M263.11,339c-14.54-12-28.81-24.39-42.06-37.86,12.94-.05,25.88-.05,38.82-.19,2.42,0,3.6.42,3.55,3.22C263.2,315.82,263.19,327.43,263.11,339Z"/><path class="cls-13" d="M86,324c-6.27,2.15-8.46,8.21-11.81,12.92-10.66,15-21,30.26-31.07,45.64-2.38,3.62-4.48,4.69-8.12,2.44v-4c3.93-2.94,1.7-5-1-7v-4c3.57-2.65,1.32-4.33-1-6q-1-15-2-30c1.83,0,1.92,1.53,2.4,2.72.84,2.07,2.24,2.74,3.56.69,3-4.75,7-8.85,9.36-14.07.55-1.27,1.17-2.69.13-3.75-2.64-2.67-.45-4.45.91-6.45q16.16-23.61,32.31-47.22c.65-1,1.72-1.9.89-3.1s-2.5-1.05-3.66-.58c-2.77,1.12-5.4,2.57-8.11,3.84-1,.47-2.2,1.5-3.15.3s.21-2.22.82-3.11c4.69-6.84,9.36-13.7,14.22-20.41,4.63-6.4,8.34-13.54,15.11-18.25,4.56-3.16,9.8-4.93,14.48-7.77,6.5-4,10.21-10.4,12.45-17.23,1.12-3.43,1.85-6.87,3.88-10,9.42-14.46,22.47-26.18,31.13-41.2,1.28-2.24,4.77-4.84,3.43-6.59-2-2.62-5,.44-7.56,1.33-1.65.57-3.79,2.34-5,1-1.53-1.77.69-3.56,1.76-5.14,9.13-13.44,18.37-26.82,27.4-40.33A45.19,45.19,0,0,1,197,82c3.22-1.44,6.35-3.07,8.4-6Q218.79,56.44,232,36.88c2.6-3.85,2.1-4.62-2.51-4.9-2.8-.17-6.22,1-7.53-3h50c2.57,3.54,1.71,6.67-1.07,9.63a2,2,0,0,0-.44,2.69c.58.78,1.48.61,2.27.27,1.54-.68,3-.77,3.85.93s-.1,3.13-1.05,4.12c-7.07,7.34-12.24,16.08-18,24.36-6.18,8.83-12.33,17.68-18.23,26.7-1,1.58-4.93,4.91,1.34,5.56,2.18.23.65,2.25.07,3.14-3.12,4.8-7.08,8.91-12.53,10.87a17.89,17.89,0,0,0-8.81,6.78c-9,12.33-18.46,24.26-26.81,37-1.46,2.22-3,4.34-2.6,7.29.26,1.91-.82,3.5-1.87,5-11.19,16.24-23.56,31.62-34.28,48.2-6.3,9.74-13.19,19.08-19.61,28.74a67,67,0,0,1-14.45,15.61c-7.57,6-11.65,14.8-17,22.58-.61.89-.87,2,.09,2.71,4.61,3.24,1.8,6.06-.39,9-1.19,1.58-2.32,3.21-3.48,4.81a1.83,1.83,0,0,0-2,2c-2.15,5.22-5.71,9.52-9,14a1.83,1.83,0,0,0-2,2Z"/><path class="cls-14" d="M222,29c1.31,4,4.73,2.81,7.53,3,4.61.28,5.11,1.05,2.51,4.9Q218.8,56.46,205.42,75.94c-2,3-5.18,4.61-8.4,6a45.19,45.19,0,0,0-19.22,16.7c-9,13.51-18.27,26.89-27.4,40.33-1.07,1.58-3.29,3.37-1.76,5.14,1.17,1.35,3.31-.42,5-1,2.55-.89,5.56-3.95,7.56-1.33,1.34,1.75-2.15,4.35-3.43,6.59-8.66,15-21.71,26.74-31.13,41.2-2,3.11-2.76,6.55-3.88,10-2.24,6.83-6,13.26-12.45,17.23-4.68,2.84-9.92,4.61-14.48,7.77-6.77,4.71-10.48,11.85-15.11,18.25-4.86,6.71-9.53,13.57-14.22,20.41-.61.89-1.69,2-.82,3.11s2.14.17,3.15-.3c2.71-1.27,5.34-2.72,8.11-3.84,1.16-.47,2.76-.72,3.66.58s-.24,2.14-.89,3.1q-16.15,23.59-32.31,47.22c-1.36,2-3.55,3.78-.91,6.45,1,1.06.42,2.48-.13,3.75C44,328.56,40,332.66,37,337.41c-1.32,2-2.72,1.38-3.56-.69-.48-1.19-.57-2.72-2.4-2.72V322c1.1-2.85,2.7-5.75-1-8V303c-.32-2,.81-4.24-1-6V247a3.53,3.53,0,0,0,2.87-1.7c10.5-14.21,19.33-29.55,31.11-43,7.35-8.37,14.42-17.5,17.57-28.93,1.12-4.09,5-7.38,7.3-11.18,11-17.81,24.16-34.1,35.43-51.75,15.63-24.46,32.55-48.1,49.1-71.95,1.9-2.74,1.34-4.45-.38-6.53a2.88,2.88,0,0,1,2.66-1c10.57.58,21.05-1.79,31.6-1C211.59,30.46,216.73,28.9,222,29Z"/><path class="cls-15" d="M172,32c1.72,2.08,2.28,3.79.38,6.53-16.55,23.85-33.47,47.49-49.1,72C112,128.13,98.85,144.42,87.85,162.23c-2.34,3.8-6.18,7.09-7.3,11.18C77.4,184.84,70.33,194,63,202.34c-11.78,13.41-20.61,28.75-31.11,43A3.53,3.53,0,0,1,29,247c-.76-17.8.58-35.57,1.32-53.32.32-7.5-.67-15.27,1.68-22.68,2.41.34,3.48-1.19,4.64-3,4.5-6.95,9-13.87,13.75-20.68Q85.51,96.41,120.68,45.51c2-2.86,5.12-5.77,1.31-9.52,4.09-2.28,8.73-1.18,13-1.66,6.34-.7,12.74-1.61,19.23-1.44C160.15,33.05,166.08,32.33,172,32Z"/><path class="cls-12" d="M122,36c3.81,3.75.66,6.66-1.31,9.52q-35.1,51-70.29,101.84c-4.7,6.81-9.25,13.73-13.75,20.68-1.16,1.78-2.23,3.31-4.64,3,.46-16.88,2.13-33.66,3.77-50.47.92-9.42,1.77-18.75,4.8-27.79A80.33,80.33,0,0,1,69,53C84.74,41.13,102.48,35.84,122,36Z"/><path class="cls-6" d="M31,322v12q1,15,2,30c0,2.06-.19,4.14,1,6v4c-.32,2.43.43,4.7,1,7v4c1.74,16.3,2.49,32.9,12.16,47.08,2.56,3.76,4.14,7.9,6.21,11.84,1.33,2.53.53,3.7-2.58,4.17-11.28,1.7-22.59.51-33.87.93-5.73-10.6-7.65-22.22-8.65-34-2.19-25.5-4.1-51-6.11-76.56A9.23,9.23,0,0,1,2.28,337c5.58-.4,10.21-3.35,15.06-5.68,2.08-1,4.05-2.36,6.23-3,3.55-1,4.52-3.15,4.53-6.57,0-2-1.56-4.83,1.9-5.79C30.33,318,29.19,320.25,31,322Z"/><path class="cls-13" d="M31,322c-1.81-1.75-.67-4-1-6v-2C33.7,316.25,32.1,319.15,31,322Z"/><path class="cls-6" d="M29,297c1.81,1.76.68,4,1,6C26.5,301.52,27.91,299.24,29,297Z"/><path class="cls-4" d="M97,307a1.83,1.83,0,0,1,2-2A1.83,1.83,0,0,1,97,307Z"/><path class="cls-4" d="M86,323a1.83,1.83,0,0,1,2-2A1.83,1.83,0,0,1,86,323Z"/><path class="cls-4" d="M35,381c-.57-2.3-1.32-4.57-1-7C36.7,376,38.93,378.06,35,381Z"/><path class="cls-4" d="M34,370c-1.19-1.86-1-3.94-1-6C35.32,365.67,37.57,367.35,34,370Z"/></g></g></svg>