<svg xmlns="http://www.w3.org/2000/svg" viewBox="0 0 384.07 298.37"><defs><style>.cls-1{fill:#7b424b;}</style></defs><title>Ресурс 1</title><g id="Слой_2" data-name="Слой 2"><g id="Слой_1-2" data-name="Слой 1"><path class="cls-1" d="M0,155.1C3.65,142.87,13.5,135.43,22,127c12.45-12.46,30.21-12.39,42.75.08q33,32.79,65.68,65.79c2.38,2.4,3.4,2.17,5.65-.08q90.81-91,181.79-181.89c14.44-14.45,31.35-14.49,45.73-.14,3.53,3.53,7.08,7.06,10.6,10.61,13.22,13.35,13.25,30.83-.06,44.16q-58.81,58.88-117.68,117.7L149.05,290.56c-10.39,10.39-21.3,10.42-31.64.08Q64.66,237.9,11.85,185.2A50.74,50.74,0,0,1,0,167.1Z"/></g></g></svg>