<svg xmlns="http://www.w3.org/2000/svg" viewBox="0 0 270.38 354.37"><defs><style>.cls-1{fill:#7e3d4a;}.cls-2{fill:#e577a0;}.cls-3{fill:#958bd1;}.cls-4{fill:#fdc7d1;}.cls-5{fill:#8c7bd3;}.cls-6{fill:#feb3bd;}.cls-7{fill:#f2f2f0;}.cls-8{fill:#f78bb4;}.cls-9{fill:#e5779f;}.cls-10{fill:#d1648c;}.cls-11{fill:#8e7cd3;}.cls-12{fill:#a899df;}.cls-13{fill:#fff;}.cls-14{fill:#fefefe;}</style></defs><title>Ресурс 37</title><g id="Слой_2" data-name="Слой 2"><g id="Слой_1-2" data-name="Слой 1"><path class="cls-1" d="M143.82,354.28c-39.75,0-79.49,0-119.23.09a14.3,14.3,0,0,1-9.85-3.62C2.91,340.8-1.17,327.84.28,312.88c1.62-16.68,9.2-31.23,16.82-45.73,4.59-8.72,9.49-17.28,13.2-26.45,6.06-15,7.57-30.12,2.19-45.68-2-5.64-4-11.42-4-17.45,0-17.39,7.41-31,21.74-40.78a36.36,36.36,0,0,1,6.5-3.69c11.78-4.94,16-14.33,16.75-26.43,1-15.68,2.61-31.33,7.08-46.53,9.25-31.45,29.76-50.77,62-57.11,24.81-4.88,49.55-4.11,73.57,4.12C245,17,263.25,36.73,268.75,67.3A58.38,58.38,0,0,1,269.8,77c.28,22.87.76,45.74.52,68.6-.2,18.85-1.23,37.69-6.36,56A71.08,71.08,0,0,1,253.8,224c-1.1,1.56-1,2.41.29,3.74,10.67,11,15.42,24.49,15.63,39.43.37,27.61.12,55.24.22,82.86,0,4-2.31,4.3-5.4,4.3Q204.18,354.25,143.82,354.28Zm89.9-134.85a9.38,9.38,0,0,0-1.74-1.86c-6.34-3.91-12-8.7-18-13.09-6.45-4.74-6.44-4.75-10,2.81-3.26,5.67-6.55,11.31-9.76,17-1.21,2.15-2.56,3.69-5.28,2.53-1.49-2-1.05-4,.24-5.88,2.46-3.54,3.07-7.42,2.92-11.67-.23-6.34-.21-12.7,0-19.05.11-3-.64-4.18-3.86-4-5.34.27-10.71,0-16.06.1-2.29,0-3.89-.66-4.41-3,.58-2.65,2.47-3,4.83-3,9.62.06,19.24.11,28.87,0a38.65,38.65,0,0,0,35.6-24.79c5.27-13.75,1.68-28,3-42.57-4.51,3.09-6.84,6.26-6.32,11.31.32,3.2,1.44,7.26-3.5,8.61-.39.11-.5,1.1-.79,1.65-3.12,6.11-8.36,9-15,9.78-2.15.26-4.3-.08-4.53-2.68s1.71-3.17,4-3.35a12.71,12.71,0,0,0,8.35-3.76c.81-.83,1.71-1.72.12-2.67-6.84-4.13-9.14-11.24-11.88-18.07-.83-2-1.18-4.12,1.25-5.09,2.76-1.11,3.74,1.09,4.51,3.16a57.66,57.66,0,0,0,5.47,11.46c1.41,2.16,3.11,3.53,6.09,3.18,0-4.56-.05-9.17,0-13.77.05-3.93,1.41-4.86,5-3.44.61.24,1.13.64,1.67.12,1.67-1.65,3.39-.89,5.11.05.63-8.68-2.52-12.6-10.39-13.11a29.14,29.14,0,0,0-3.37,0c-2.15.1-3.89-.58-3.93-2.94s1.73-3,3.85-3.12a25.79,25.79,0,0,1,14,3.1V80.52l1.72-2.13c3.38-.45,4.39,1.32,4.39,4.4-.05,20.25.17,40.5-.13,60.74-.15,10.31-4.16,19.45-11,27.2a44.4,44.4,0,0,1-33.61,15.56c-1.06,0-2.56-.28-2.6,1.36-.1,4.85,0,9.71,0,14.56a39.16,39.16,0,0,0,5-7.43c1.54-2.69,3.63-3.34,6.18-1.36,11.53,9,23.47,17.35,35.22,26,2.51,1.85,3.63,1.85,5.31-.94,7.61-12.62,10.28-26.69,12-41,2.08-16.73,2.43-33.61,2.12-50.44-.25-13.23-.27-26.47-.49-39.7-.06-3.38.18-6.77-.1-10.12-.38-4.7-.5-9.46-2.12-14-.05-.84.18-1.76-.74-2.32l0,0c-.27-4.6-2.27-8.67-4.25-12.67C247.67,30.11,232.28,19.39,213.59,13,193,6,171.89,4.71,150.46,7.75c-19.23,2.73-36.37,9.68-49.17,25A69.32,69.32,0,0,0,86.08,64l0,0c-.88.55-.69,1.47-.78,2.3C82.14,77,81.26,88.13,80.17,99.2c-.86,8.62-1.1,17.34-4.55,25.5-2.57,3.69-5.24,7.31-9.21,9.66-3.32,2-6.7,3.85-10.08,5.72-12,6.69-18.84,17.06-21.35,30.43-.78,1-.53,2.15-.57,3.25-.25,6.35,1.52,12.35,3.54,18.24A67.6,67.6,0,0,1,38.76,235c-3.08,9.94-7.77,19.15-12.67,28.29-7.78,14.49-16,28.83-19.12,45.28-2.14,11.2-1.21,21.92,5.66,31.42,3.61,5,7.7,9.75,15,8.23h6.76a24.58,24.58,0,0,1,3,.13c3.53.58,4.57-.69,4.59-4.39.15-26.79-.87-53.6.71-80.39q1.56-8.22,3.14-16.45l5-11.29a1.63,1.63,0,0,0,.81-1.48l0,0L59.21,227l13.45-7.07,6-3c15.53-7.72,31.11-15.33,46.55-23.22,3.32-1.7,5.39-1.31,7.72,1.44,1.41,1.68,2.48,3.88,5,5,0-6,0-11.59,0-17.2,0-7.8,1-15.76-3.79-22.78a9.55,9.55,0,0,1-.64-1.75c-1-2.52-.11-6.34-2.27-7.56s-5.57-.47-8.43-.51a21.17,21.17,0,0,1-19.83-14.42c-1.5-4.28-1-8.65-1-13a20.66,20.66,0,0,1,13.94-19.36c6.44-2.25,13.08-1.06,19.66-1,2.11,4,1.11,5.72-3.41,5.78-3,0-6,0-9,0a15.09,15.09,0,0,0-14.85,11.92c-.72,3-.37,6-.33,9a15.11,15.11,0,0,0,15,15.09c3.5.07,7,.12,10.5,0,3.15-.13,4.53,1.08,4.57,4.34a26.26,26.26,0,0,0,3.65,13.59A15.26,15.26,0,0,1,144,171.3c0,11.5-.06,23-.14,34.48a4.67,4.67,0,0,0,1.36,3.32q16.63,18.53,33.2,37.1a12.9,12.9,0,0,1,1.92,4.38c-2.57,2.3-4.92,1.92-7.12-.55-13.23-15.51-26.89-30.64-40.58-45.76-1-1.22-2.17-2.38-3.08-3.69-1-1.47-2-1.34-3.43-.62-10.7,5.47-21.43,10.87-32.15,16.3l-1.1.75c-10.4,4.76-21,9.21-30.45,15.72-6.64,4.58-10.2,11.37-10.84,19.53h0c-.66.31-.71.92-.76,1.53-2.52,7.75-2.63,15.87-2.8,23.81-.43,20.55-.13,41.11-.12,61.67,0,1,0,2,0,3,.08,6.88-.83,6,5.92,6q100.57,0,201.14,0c9,0,9,0,8.89-9,0-23.62.15-47.24-.09-70.86,0-4.36,0-9-2-13.13-1.84-12.29-9-21.36-18-29.11C240.7,223.57,238,220.33,233.72,219.43Z"/><path class="cls-2" d="M50.89,235.77q-2.52,5.65-5,11.29a13.7,13.7,0,0,0-1.7,1.89C38,259,31.75,269,25.86,279.24c-5.08,8.81-8.92,18.1-7.95,28.63A105.8,105.8,0,0,0,21.29,328c2,6.77,4.24,13.47,6.37,20.2-7.33,1.52-11.42-3.23-15-8.23-6.87-9.5-7.8-20.22-5.66-31.42,3.16-16.45,11.34-30.79,19.12-45.28C31,254.1,35.68,244.89,38.76,235A67.6,67.6,0,0,0,38,192c-2-5.89-3.79-11.89-3.54-18.24,0-1.1-.21-2.27.57-3.25a6.86,6.86,0,0,0,1.19-1.35,42.14,42.14,0,0,1,12.71-15.82c4.32-3.22,9.19-5.43,13.78-8.16,7.83-4.66,12.33-11.32,13-20.48,3.45-8.16,3.69-16.88,4.55-25.5,1.09-11.07,2-22.18,5.16-32.92,1-.53.79-1.44.78-2.3l0,0c1.06-.63,1.36-1.77,1.79-2.77,8.78-20.49,24-34,45.1-40.61,16-5.05,32.53-6.23,49.36-4.76,16.57,1.44,32.42,5,47.08,12.94a72.2,72.2,0,0,1,21.72,17.33c3.84,4.66,6.42,10,9.84,14.86l0,0c0,.86-.17,1.76.74,2.32,1.62,4.52,1.74,9.28,2.12,14,.28,3.35,0,6.74.1,10.12.22,13.23.24,26.47.49,39.7.31,16.83,0,33.71-2.12,50.44-1.76,14.26-4.43,28.33-12,41-1.68,2.79-2.8,2.79-5.31.94-11.75-8.66-23.69-17.05-35.22-26-2.55-2-4.64-1.33-6.18,1.36a39.16,39.16,0,0,1-5,7.43c0-4.85-.07-9.71,0-14.56,0-1.64,1.54-1.33,2.6-1.36a44.4,44.4,0,0,0,33.61-15.56c6.84-7.75,10.85-16.89,11-27.2.3-20.24.08-40.49.13-60.74,0-3.08-1-4.85-4.39-4.4-2.37-8.28-7.9-14.25-14.31-19.54-2-1.63-3.21-.34-4.57,1.3a112.29,112.29,0,0,1-15.57,15.49c-7.12,5.79-15.19,9.9-23.45,13.69a24.85,24.85,0,0,0-13.46,3.23c-4-.19-7.89,1.39-11.91.55a51.55,51.55,0,0,1,2.91-23.19,60.21,60.21,0,0,0,11.26-10.18c1.45-1.64,2.48-3.72.15-5.52s-3.86-.09-4.93,1.59c-2.27,3.59-5.67,5.9-9,8.27-10.47,7.56-22.42,11.55-34.95,14-2.14.42-4.19,1-3.68,3.64s2.68,2.79,5,2.2c5.76-1.45,11.54-2.79,17.32-4.18h0c0,1.12-.71,1.78-1.38,2.52a28,28,0,0,1-11.76,7.51c-1.9.67-4,1.75-3.15,4.25.86,2.66,3,2.52,5.19,1.52,3.23-1.49,6.45-3,9.68-4.52-.24,4.56-3.21,7.82-5.45,11.43-6.58,0-13.22-1.21-19.66,1a20.66,20.66,0,0,0-13.94,19.36c0,4.33-.5,8.7,1,13a21.17,21.17,0,0,0,19.83,14.42c2.86,0,6.22-.73,8.43.51s1.24,5,2.27,7.56a9.55,9.55,0,0,0,.64,1.75c4.75,7,3.79,15,3.79,22.78,0,5.61,0,11.23,0,17.2-2.48-1.11-3.55-3.31-5-5-2.33-2.75-4.4-3.14-7.72-1.44-15.44,7.89-31,15.5-46.55,23.22-.22-2.59-.06-5.18-.46-7.81-1.09-7.23-2.33-14.49-1.8-21.87.52-7.06,3.32-12.7,10.12-15.74,2.39-1.07,4.81-2.07,7.15-3.24,1.71-.85,2.9-2.23,1.82-4.22-1-1.84-2.61-2.14-4.48-1.15a30.7,30.7,0,0,1-4,2c-11.76,4.23-16.53,12.84-16.69,25-.13,10.13,3,19.93,2.37,30.06L59.21,227c1.51-7.32.54-14.6-.41-21.88-1.08-8.22-4.17-16.19-3.38-24.65.9-9.7,4.55-17.85,13.78-22.4a87.42,87.42,0,0,0,12.32-7c7.3-5.22,11.53-12.58,13.53-21.24a2.76,2.76,0,0,0-1.93-3.25,2.64,2.64,0,0,0-3.5,1.36,18.44,18.44,0,0,0-1.27,3.5c-2.11,6.63-5.74,12-11.88,15.67-3.32,2-6.73,3.79-10.1,5.66-4.36,2.43-8.65,5-11.3,9.49-6,10.19-7,21.09-4.48,32.42A152,152,0,0,1,54,217.4c.37,5.85-1.85,11.25-2.29,16.93l0,0A1.47,1.47,0,0,0,50.89,235.77Z"/><path class="cls-3" d="M173.24,250c2.2,2.47,4.55,2.85,7.12.55l.25.06a2.62,2.62,0,0,0,1.53,2.38c2.74,1.47,5.38,3.17,8.21,4.45,7,3.14,14.26,5.59,22,4.3,13-2.17,21.3-15.33,21.51-27.85,0-1.08.28-2.37-1.36-2.62a7.34,7.34,0,0,1,1.29-3.81,74.56,74.56,0,0,1,18.75,14.87c3.58,3.94,6.05,8.67,9.22,12.91,1.95,4.17,1.94,8.77,2,13.13.24,23.62.1,47.24.09,70.86-4.12,0-8.24-.07-12.36.05-2.17.06-2.68-.71-1.86-2.63s1.63-3.91,2.36-5.9c3.36-9.19,7.75-18.21,5.14-28.48-1-3.85-1.93-7.71-3-11.54a247.13,247.13,0,0,0-8.3-24c-.72-1.86-2-3.06-4-2.19s-2.36,2.44-1.5,4.37c.2.46.25,1,.44,1.43,3.2,7.85,5.85,15.88,8.26,24,2.36,7.95,4.33,15.89,1.18,24.09-2.23,5.81-4.68,11.55-6.65,17.44-.95,2.86-2.52,3.42-5.24,3.42q-66.14-.1-132.29,0c-3.27,0-4.25-.8-4.22-4.15.16-19.74.08-39.48.07-59.22a13.32,13.32,0,0,0-.15-3.35,2.91,2.91,0,0,0-5.68,0A15.5,15.5,0,0,0,95.9,276c0,19.86-.06,39.73.06,59.59,0,3-.84,3.82-3.8,3.79-14.74-.14-29.48-.07-44.22-.08,0-20.56-.31-41.12.12-61.67.17-7.94.28-16.06,2.8-23.81a1.48,1.48,0,0,0,.76-1.53h0c2.62-2.65,3.82-6.45,7-8.66,10.9-7.61,23.15-12.63,35-18.35a54.71,54.71,0,0,0,.82,5.88c5,20.11,16.31,30.28,36.55,30.8,11,.28,21.56-2.94,31.82-6.78,2.31-.87,5.13-1,6.58-3.56ZM183,270.29a9,9,0,1,0,8.94,9.13A9,9,0,0,0,183,270.29Zm14.94,44.8a9,9,0,1,0-8.9,9.18A9,9,0,0,0,197.89,315.09Z"/><path class="cls-4" d="M135.53,102.49c2.24-3.61,5.21-6.87,5.45-11.43,2.67-3,6.62-5.21,8-9.07,2.19-6.16,7-9.22,12.21-12.07a51.55,51.55,0,0,0-2.91,23.19c0,1.75-.16,3.5-.08,5.24.12,2.76,1.26,4.51,4.42,3.93a4.29,4.29,0,0,1-.19,1.09c-.92,2-.63,3.77,1.47,4.62s3.39-.64,4.18-2.51c.71-1.69,1.32-3.45,2.76-4.72,5.46-.39,10.64-1.62,15.21-4.8,2.58.44,5.14.81,6-2.67a8.86,8.86,0,0,0,3.35-1.56A92.13,92.13,0,0,0,223.05,66c1.48-2,2.31-2.13,4.4-.71,5.69,3.88,8.61,9.86,12.37,15.22V93.3a25.79,25.79,0,0,0-14-3.1c-2.12.15-3.89.76-3.85,3.12s1.78,3,3.93,2.94a29.14,29.14,0,0,1,3.37,0c7.87.51,11,4.43,10.39,13.11-1.72-.94-3.44-1.7-5.11-.05-.54.52-1.06.12-1.67-.12-3.6-1.42-5-.49-5,3.44-.06,4.6,0,9.21,0,13.77-3,.35-4.68-1-6.09-3.18a57.66,57.66,0,0,1-5.47-11.46c-.77-2.07-1.75-4.27-4.51-3.16-2.43,1-2.08,3-1.25,5.09,2.74,6.83,5,13.94,11.88,18.07,1.59.95.69,1.84-.12,2.67A12.71,12.71,0,0,1,214,138.2c-2.26.18-4.19.76-4,3.35s2.38,2.94,4.53,2.68c6.6-.77,11.84-3.67,15-9.78.29-.55.4-1.54.79-1.65,4.94-1.35,3.82-5.41,3.5-8.61-.52-5,1.81-8.22,6.32-11.31-1.35,14.53,2.24,28.82-3,42.57a38.65,38.65,0,0,1-35.6,24.79c-9.63.12-19.25.07-28.87,0-2.36,0-4.25.37-4.83,3a38.19,38.19,0,0,1-23.77-12,15.26,15.26,0,0,0-2.39-9.13A26.26,26.26,0,0,1,138,148.58c0-3.26-1.42-4.47-4.57-4.34-3.49.14-7,.09-10.5,0a15.11,15.11,0,0,1-15-15.09c0-3-.39-6,.33-9a15.09,15.09,0,0,1,14.85-11.92c3,0,6,0,9,0C136.64,108.21,137.64,106.47,135.53,102.49Zm64.18,59.79a24.17,24.17,0,0,0,8.51-.9c3.48-1.08,6.34-3,7.49-6.68a3.1,3.1,0,0,0-1.66-4.09c-1.85-.86-3.23.07-3.92,1.72-.51,1.23-1,2.31-2.31,2.72-6.94,2.2-13.74,1.46-20.44-1a2.94,2.94,0,0,1-1.61-1.93c-.73-1.9-2.3-2.29-4-1.59s-2.18,2.32-1.72,4.08a7.38,7.38,0,0,0,4.06,4.63C189,161.78,194.34,162.17,199.71,162.28ZM185.9,120.51c0-2.86.1-5.72,0-8.58-.13-3.13-1.86-4.24-4.63-3-.8.36-1.35,1-2.28.26-1.63-1.35-3.25-1.24-4.48.52s-.31,3.46,1.16,4.51c3.93,2.79,4.79,6.62,4.27,11.08a31.38,31.38,0,0,0,0,3.36c0,2,.84,3.51,3,3.53s3-1.44,3-3.47C185.91,126,185.9,123.24,185.9,120.51Z"/><path class="cls-5" d="M47.94,339.26c14.74,0,29.48-.06,44.22.08,3,0,3.82-.82,3.8-3.79-.12-19.86-.06-39.73-.06-59.59a15.5,15.5,0,0,1,.16-3.35,2.91,2.91,0,0,1,5.68,0,13.32,13.32,0,0,1,.15,3.35c0,19.74.09,39.48-.07,59.22,0,3.35,1,4.16,4.22,4.15q66.15-.17,132.29,0c2.72,0,4.29-.56,5.24-3.42,2-5.89,4.42-11.63,6.65-17.44,3.15-8.2,1.18-16.14-1.18-24.09-2.41-8.12-5.06-16.15-8.26-24-.19-.46-.24-1-.44-1.43-.86-1.93-.4-3.56,1.5-4.37s3.3.33,4,2.19a247.13,247.13,0,0,1,8.3,24c1.05,3.83,2,7.69,3,11.54,2.61,10.27-1.78,19.29-5.14,28.48-.73,2-1.54,4-2.36,5.9s-.31,2.69,1.86,2.63c4.12-.12,8.24,0,12.36-.05.13,9,.13,9-8.89,9q-100.58,0-201.14,0c-6.75,0-5.84.88-5.92-6C47.89,341.26,47.92,340.26,47.94,339.26Z"/><path class="cls-6" d="M144,171.3a38.19,38.19,0,0,0,23.77,12c.52,2.38,2.12,3.07,4.41,3,5.35-.08,10.72.17,16.06-.1,3.22-.16,4,1,3.86,4-.21,6.35-.23,12.71,0,19.05.15,4.25-.46,8.13-2.92,11.67-1.29,1.87-1.73,3.86-.24,5.88-3,6.75-6.9,13-10.52,19.37q-16.59-18.55-33.2-37.1a4.67,4.67,0,0,1-1.36-3.32C144,194.29,144,182.8,144,171.3Z"/><path class="cls-7" d="M173.24,250l-3.85,1.56c-.73.11-1.48.16-2.19.33-10.86,2.7-21.85,3.89-32.9,1.81-18-3.38-30.42-14-37.72-30.67a6.92,6.92,0,0,0,1.44-.37q16.38-8.16,32.76-16.35c.88-.44,1.87-.82,1.88-2.07C146.35,219.39,160,234.52,173.24,250Z"/><path class="cls-7" d="M178.44,246.2c3.62-6.39,7.55-12.62,10.52-19.37,2.72,1.16,4.07-.38,5.28-2.53,3.21-5.7,6.5-11.34,9.76-17,8.56,5.91,17.11,11.85,25.71,17.7,1.17.8,2.24,2.09,4,1.76l.15.74a7.34,7.34,0,0,0-1.29,3.81c-6.21,14.87-17.9,21.24-33.48,21.76-6.3.21-12.32-1.42-18.44-2.42l-.25-.06A12.9,12.9,0,0,0,178.44,246.2Z"/><path class="cls-8" d="M261,61c-3.42-4.85-6-10.2-9.84-14.86a72.2,72.2,0,0,0-21.72-17.33c-14.66-8-30.51-11.5-47.08-12.94C165.5,14.41,149,15.59,133,20.64c-21.06,6.64-36.32,20.12-45.1,40.61-.43,1-.73,2.14-1.79,2.77a69.32,69.32,0,0,1,15.21-31.28c12.8-15.31,29.94-22.26,49.17-25C171.89,4.71,193,6,213.59,13c18.69,6.39,34.08,17.11,43.13,35.34C258.7,52.34,260.7,56.41,261,61Z"/><path class="cls-9" d="M42.7,263.51c-1.58,26.79-.56,53.6-.71,80.39,0,3.7-1.06,5-4.59,4.39a24.58,24.58,0,0,0-3-.13c-3.33-9.09-6.79-18.16-8.64-27.7-1.91-9.91-3.5-19.87,1-29.6A186.7,186.7,0,0,1,42.7,263.51Z"/><path class="cls-10" d="M51.68,234.33c.44-5.68,2.66-11.08,2.29-16.93a152,152,0,0,0-3.38-22.79c-2.5-11.33-1.52-22.23,4.48-32.42,2.65-4.5,6.94-7.06,11.3-9.49,3.37-1.87,6.78-3.67,10.1-5.66,6.14-3.68,9.77-9,11.88-15.67a18.44,18.44,0,0,1,1.27-3.5,2.64,2.64,0,0,1,3.5-1.36,2.76,2.76,0,0,1,1.93,3.25c-2,8.66-6.23,16-13.53,21.24a87.42,87.42,0,0,1-12.32,7c-9.23,4.55-12.88,12.7-13.78,22.4-.79,8.46,2.3,16.43,3.38,24.65,1,7.28,1.92,14.56.41,21.88Z"/><path class="cls-11" d="M96.58,223.06c7.3,16.71,19.68,27.29,37.72,30.67,11,2.08,22,.89,32.9-1.81.71-.17,1.46-.22,2.19-.33-1.45,2.54-4.27,2.69-6.58,3.56C152.55,259,142,262.21,131,261.93c-20.24-.52-31.59-10.69-36.55-30.8a54.71,54.71,0,0,1-.82-5.88c-1-2.68-.7-5.47-.72-8.24l1.1-.75A17.39,17.39,0,0,0,96.58,223.06Z"/><path class="cls-10" d="M42.7,263.51a186.7,186.7,0,0,0-15.94,27.35c-4.48,9.73-2.89,19.69-1,29.6,1.85,9.54,5.31,18.61,8.64,27.7H27.66c-2.13-6.73-4.38-13.43-6.37-20.2a105.8,105.8,0,0,1-3.38-20.1c-1-10.53,2.87-19.82,8-28.63C31.75,269,38,259,44.14,249a13.7,13.7,0,0,1,1.7-1.89Q44.27,255.28,42.7,263.51Z"/><path class="cls-10" d="M72.66,219.9c.64-10.13-2.5-19.93-2.37-30.06.16-12.19,4.93-20.8,16.69-25a30.7,30.7,0,0,0,4-2c1.87-1,3.49-.69,4.48,1.15,1.08,2-.11,3.37-1.82,4.22-2.34,1.17-4.76,2.17-7.15,3.24-6.8,3-9.6,8.68-10.12,15.74-.53,7.38.71,14.64,1.8,21.87.4,2.63.24,5.22.46,7.81Z"/><path class="cls-6" d="M239.82,80.52c-3.76-5.36-6.68-11.34-12.37-15.22-2.09-1.42-2.92-1.33-4.4.71a92.13,92.13,0,0,1-27.68,25.72A8.86,8.86,0,0,1,192,93.29c-1.37-4.34-5.27-3.33-8.38-4,8.26-3.79,16.33-7.9,23.45-13.69a112.29,112.29,0,0,0,15.57-15.49c1.36-1.64,2.6-2.93,4.57-1.3,6.41,5.29,11.94,11.26,14.31,19.54Z"/><path class="cls-12" d="M92.9,217c0,2.77-.24,5.56.72,8.24C81.74,231,69.49,236,58.59,243.6c-3.16,2.21-4.36,6-7,8.66.64-8.16,4.2-14.95,10.84-19.53C71.89,226.22,82.5,221.77,92.9,217Z"/><path class="cls-13" d="M96.58,223.06a17.39,17.39,0,0,1-2.58-6.8c10.72-5.43,21.45-10.83,32.15-16.3,1.42-.72,2.43-.85,3.43.62.91,1.31,2,2.47,3.08,3.69,0,1.25-1,1.63-1.88,2.07Q114.4,214.53,98,222.69A6.92,6.92,0,0,1,96.58,223.06Z"/><path class="cls-8" d="M75.62,124.7c-.63,9.16-5.13,15.82-13,20.48-4.59,2.73-9.46,4.94-13.78,8.16a42.14,42.14,0,0,0-12.71,15.82A6.86,6.86,0,0,1,35,170.51c2.51-13.37,9.3-23.74,21.35-30.43,3.38-1.87,6.76-3.75,10.08-5.72C70.38,132,73.05,128.39,75.62,124.7Z"/><path class="cls-14" d="M233.67,226.75c-1.72.33-2.79-1-4-1.76-8.6-5.85-17.15-11.79-25.71-17.7,3.53-7.56,3.52-7.55,10-2.81,6,4.39,11.67,9.18,18,13.09a9.38,9.38,0,0,1,1.74,1.86C233.7,221.87,233.69,224.31,233.67,226.75Z"/><path class="cls-12" d="M233.67,226.75c0-2.44,0-4.88.05-7.32,4.23.9,7,4.14,10,6.73,9.06,7.75,16.21,16.82,18,29.11-3.16-4.24-5.63-9-9.21-12.91a74.56,74.56,0,0,0-18.75-14.87Z"/><path class="cls-8" d="M86.11,64c0,.86.19,1.77-.78,2.3C85.42,65.45,85.23,64.53,86.11,64Z"/><path class="cls-8" d="M261.69,63.3c-.91-.56-.78-1.46-.74-2.32C261.87,61.54,261.64,62.46,261.69,63.3Z"/><path class="cls-10" d="M50.89,235.77a1.47,1.47,0,0,1,.81-1.48A1.63,1.63,0,0,1,50.89,235.77Z"/><path class="cls-12" d="M51.62,252.25a1.48,1.48,0,0,1-.76,1.53C50.91,253.17,51,252.56,51.62,252.25Z"/><path class="cls-10" d="M161.18,69.92C156,72.77,151.16,75.83,149,82c-1.37,3.86-5.32,6-8,9.07-3.23,1.51-6.45,3-9.68,4.52-2.17,1-4.33,1.14-5.19-1.52-.81-2.5,1.25-3.58,3.15-4.25A28,28,0,0,0,141,82.3c.67-.74,1.42-1.4,1.38-2.52l1-.28-.18-.28-.79.55c-5.78,1.39-11.56,2.73-17.32,4.18-2.34.59-4.49.49-5-2.2s1.54-3.22,3.68-3.64c12.53-2.48,24.48-6.47,35-14,3.3-2.37,6.7-4.68,9-8.27,1.07-1.68,2.68-3.33,4.93-1.59s1.3,3.88-.15,5.52A60.21,60.21,0,0,1,161.18,69.92Z"/><path class="cls-1" d="M183.64,89.33c3.11.63,7-.38,8.38,4-.84,3.48-3.4,3.11-6,2.67-6-1.21-11.34-.62-15.21,4.8-1.44,1.27-2.05,3-2.76,4.72-.79,1.87-1.95,3.4-4.18,2.51s-2.39-2.62-1.47-4.62a4.29,4.29,0,0,0,.19-1.09,28.19,28.19,0,0,1,7.57-9.72A24.85,24.85,0,0,1,183.64,89.33Z"/><path class="cls-6" d="M170.18,92.56a28.19,28.19,0,0,0-7.57,9.72c-3.16.58-4.3-1.17-4.42-3.93-.08-1.74.05-3.49.08-5.24C162.29,94,166.2,92.37,170.18,92.56Z"/><path class="cls-11" d="M180.61,250.64c6.12,1,12.14,2.63,18.44,2.42,15.58-.52,27.27-6.89,33.48-21.76,1.64.25,1.38,1.54,1.36,2.62-.21,12.52-8.5,25.68-21.51,27.85-7.77,1.29-15-1.16-22-4.3-2.83-1.28-5.47-3-8.21-4.45A2.62,2.62,0,0,1,180.61,250.64Z"/><path class="cls-1" d="M183,270.29a9,9,0,1,1-9,9A9,9,0,0,1,183,270.29Z"/><path class="cls-1" d="M197.89,315.09a9,9,0,1,1-9.27-8.8A9,9,0,0,1,197.89,315.09Z"/><path class="cls-1" d="M199.71,162.28c-5.37-.11-10.69-.5-15.58-3.08a7.38,7.38,0,0,1-4.06-4.63c-.46-1.76,0-3.35,1.72-4.08s3.25-.31,4,1.59a2.94,2.94,0,0,0,1.61,1.93c6.7,2.5,13.5,3.24,20.44,1,1.28-.41,1.8-1.49,2.31-2.72.69-1.65,2.07-2.58,3.92-1.72a3.1,3.1,0,0,1,1.66,4.09c-1.15,3.7-4,5.6-7.49,6.68A24.17,24.17,0,0,1,199.71,162.28Z"/><path class="cls-1" d="M185.9,120.51c0,2.73,0,5.47,0,8.2,0,2-.93,3.49-3,3.47s-3-1.53-3-3.53a31.38,31.38,0,0,1,0-3.36c.52-4.46-.34-8.29-4.27-11.08-1.47-1-2.47-2.65-1.16-4.51s2.85-1.87,4.48-.52c.93.76,1.48.1,2.28-.26,2.77-1.23,4.5-.12,4.63,3C186,114.79,185.9,117.65,185.9,120.51Z"/><path class="cls-6" d="M170.83,100.76c3.87-5.42,9.25-6,15.21-4.8C181.47,99.14,176.29,100.37,170.83,100.76Z"/><path class="cls-2" d="M142.4,79.77l.79-.55.18.28-1,.28Z"/></g></g></svg>