<svg xmlns="http://www.w3.org/2000/svg" viewBox="0 0 383.92 384.03"><defs><style>.cls-1{fill:#fec451;}.cls-2{fill:#feaf4d;}.cls-3{fill:#fe984b;}.cls-4{fill:#fe7d45;}.cls-5{fill:#fe8d47;}.cls-6{fill:#fefdfd;}.cls-7{fill:#d53e8f;}.cls-8{fill:#cf3b9c;}.cls-9{fill:#de437d;}.cls-10{fill:#e6476d;}.cls-11{fill:#ed4b60;}.cls-12{fill:#fd5540;}.cls-13{fill:#fe6e43;}.cls-14{fill:#f34f53;}.cls-15{fill:#f95149;}.cls-16{fill:#fe6241;}</style></defs><title>Ресурс 1</title><g id="Слой_2" data-name="Слой 2"><g id="Слой_1-2" data-name="Слой 1"><path class="cls-1" d="M0,298.53v-57c2,.15,3,1.78,4.06,3.06,9,10.43,18,20.92,27,31.36,5.53,6.4,11.15,12.73,16.67,19.12,7.23,8.37,14.39,16.81,21.62,25.18,7,8.09,14.06,16.12,21.06,24.2,7.57,8.74,15.2,17.42,22.6,26.3,3.55,4.24,8.15,7.74,10,13.28H108.75c-.82-1.14-2-.68-3.1-.72-12-.53-23.91-.84-35.79-2.23C53,379.1,38.2,372.4,26,360.62c-13.19-12.7-19.21-29.08-23-46.53C1.89,308.92,2,303.51,0,298.53Z"/><path class="cls-2" d="M123,384c-1.84-5.54-6.44-9-10-13.28-7.4-8.88-15-17.56-22.6-26.3-7-8.08-14.06-16.11-21.06-24.2-7.23-8.37-14.39-16.81-21.62-25.18-5.52-6.39-11.14-12.72-16.67-19.12-9-10.44-18-20.93-27-31.36C3,243.31,2,241.68,0,241.53v-60c1.87.09,2.78,1.58,3.8,2.77,4,4.59,7.81,9.3,11.77,13.9,9.54,11.09,19.08,22.18,28.75,33.16,1.66,1.89,3.08,4.3,5.89,4.92.81,10.77,1.06,21.57,3,32.27,5.36,29.85,23.46,53.72,57.22,61,3.72.8,7.64.85,11.11,2.68a5.4,5.4,0,0,0,1.44,3.36q5,5.79,10,11.51c9,10.25,18,20.41,26.83,30.81,1.48,1.75,4,3.2,3.74,6.15Z"/><path class="cls-3" d="M163.5,384c.27-2.95-2.26-4.4-3.74-6.15-8.79-10.4-17.86-20.56-26.83-30.81q-5-5.73-10-11.51a5.4,5.4,0,0,1-1.44-3.36c11.67.39,23.27,1.95,35,1.67,5.58-.13,11.18.09,16.77.16-.5,2.72,1.71,3.89,3.14,5.54q17.16,19.76,34.25,39.57c1.17,1.36,2.57,2.79,2.35,4.89Z"/><path class="cls-4" d="M285.09,382.86c-2.94,1.08-6.23-.58-9.09,1.17H237c-1.54-3.61-4.51-6.1-7-9-9.31-10.75-18.71-21.43-27.8-32.36-2.17-2.62-5.83-4.5-5.69-8.71,1.74-.05,3.49-.13,5.23-.13,14.47,0,28.95.25,43.41-.38,2.61,6.37,8.06,10.56,12.25,15.68,7,8.53,14.64,16.49,21.62,25C281.22,376.86,284.73,378.83,285.09,382.86Z"/><path class="cls-3" d="M50.21,236.28c-2.81-.62-4.23-3-5.89-4.92-9.67-11-19.21-22.07-28.75-33.16-4-4.6-7.8-9.31-11.77-13.9-1-1.19-1.93-2.68-3.8-2.77V138.78c2,.14,2.92,1.78,4,3.05,2.8,3.14,5.48,6.39,8.22,9.58,5.8,6.78,11.57,13.57,17.41,20.31,5.52,6.37,11.09,12.68,16.67,19,1,1.12,2,2.3,3.74,2.05Q50.14,214.52,50.21,236.28Z"/><path class="cls-4" d="M0,84.78c1.56-4.56,1.09-9.43,2.22-14.06.26-1.06.54-2.13.81-3.19,1.14,0,1.64.82,2.32,1.61C12.63,77.61,20,86,27.3,94.47c5.51,6.38,10.79,13,16.52,19.17,2.54,2.74,4.2,6.49,8.07,7.9a32.57,32.57,0,0,1-.21,4.09c-1.78,10.57-1.22,21.25-1.61,31.89-1.76.25-2.76-.94-3.74-2.05-7.38-8.36-14.78-16.7-22.09-25.12-5.6-6.45-10.88-13.2-16.71-19.42-2.38-2.54-3.71-6.3-7.53-7.4Z"/><path class="cls-5" d="M0,103.53c3.82,1.1,5.15,4.86,7.53,7.4,5.83,6.22,11.11,13,16.71,19.42,7.31,8.42,14.71,16.76,22.09,25.12,1,1.11,2,2.3,3.74,2.05q0,17.63,0,35.25c-1.76.25-2.76-.93-3.74-2.05-5.58-6.32-11.15-12.63-16.67-19-5.84-6.74-11.61-13.53-17.41-20.31C9.52,148.22,6.84,145,4,141.83c-1.12-1.27-2-2.91-4-3.05Z"/><path class="cls-5" d="M196.51,334c-.14,4.21,3.52,6.09,5.69,8.71,9.09,10.93,18.49,21.61,27.8,32.36,2.49,2.87,5.46,5.36,7,9H213c.22-2.1-1.18-3.53-2.35-4.89Q193.6,359.3,176.4,339.57c-1.43-1.65-3.64-2.82-3.14-5.54Z"/><path class="cls-6" d="M196.51,334l-23.25,0c-5.59-.07-11.19-.29-16.77-.16-11.7.28-23.3-1.28-35-1.67-3.47-1.83-7.39-1.88-11.11-2.68-33.76-7.25-51.86-31.12-57.22-61-1.92-10.7-2.17-21.5-3-32.27q-.06-21.75-.13-43.51,0-17.62,0-35.25c.39-10.64-.17-21.32,1.61-31.89a32.57,32.57,0,0,0,.21-4.09,119.81,119.81,0,0,1,9-30.31A113.41,113.41,0,0,1,72.29,75a21.89,21.89,0,0,1,2.93-3.27,107.28,107.28,0,0,1,20-12.46c7.55-2.89,15.41-4.71,23.25-6.61,11-1.11,21.95-2.25,33-2.46l41.25,0h42A207.92,207.92,0,0,1,277.22,55c1.27.46,2.54,1,3.83,1.38a72.36,72.36,0,0,1,41.07,33.92c4.21,7.43,6.37,15.61,8.6,23.76a16.52,16.52,0,0,0,.1,3c2.47,11.9,2.74,24,2.91,36.07.12,9,.1,18,.14,26.94q0,23.63,0,47.25c-.23,12.78-.87,25.54-2.34,38.25a6.33,6.33,0,0,0-.72,1.66A72.69,72.69,0,0,1,324.87,288c-2.91,7.37-7.39,13.78-12.29,19.92-2.1,1.95-4.18,3.9-6.29,5.84-5,4.58-11.09,7.45-16.84,10.86a204.22,204.22,0,0,1-24,6.76l-20.29,2.07c-14.46.63-28.94.38-43.41.38C200,333.86,198.25,333.94,196.51,334Zm45.76-26.09c9.17-.29,18.27-1.06,27.08-3.83,8.2-2,15.65-5.38,21.7-11.43,1.54-.6,1.8-2.27,2.8-3.34a43.8,43.8,0,0,0,11.36-24.4c2.54-7.11,1.09-14.62,2.22-21.87,1-17,1.77-34,1.54-51,.46-13,.32-25.94-.34-38.89-.29-5.82-.38-11.7-1.66-17.44a83.25,83.25,0,0,0-2.57-16.55c-5.77-24.49-17-38.55-46.41-41.76-16.44-2.38-33-1.8-49.49-1.56l-32.25.08a416.4,416.4,0,0,0-42.1,1c-7.32.47-14.63,1-21.66,3.33C104.22,82,96.92,85.46,91.42,92.13c-4.77,4.8-7.37,10.74-9.06,17.17-4.75,15-5.5,30.45-5.82,46-.91,11.23-.81,22.48-.63,33.74,0,6.08-.19,12.17-.1,18.25.11,6.94-.36,13.89.55,20.81,0,15.13.82,30.16,4.66,44.87,3.61,13.84,11.64,23.83,25.47,28.58,12.4,4.26,25.29,5.32,38.27,5.82,11.5.49,23,1.18,34.5.73l37.49.14C225.26,308.38,233.77,308.63,242.27,307.9Z"/><path class="cls-7" d="M330.72,114c-2.23-8.15-4.39-16.33-8.6-23.76a72.36,72.36,0,0,0-41.07-33.92c-1.29-.43-2.56-.92-3.83-1.38,1.66-1.07.39-1.84-.29-2.64q-7.38-8.58-14.8-17.15c-7.43-8.63-15-17.18-22.2-26-2.37-2.88-5.86-5-6.68-9.06C251,0,268.74-.17,286.49.36c.61,4.08,4.1,6.08,6.47,8.87q13.17,15.48,26.46,30.83c5.62,6.5,11.35,12.88,17,19.37q11,12.69,21.85,25.46c5.74,6.7,11.24,13.62,17.31,20,2.54,2.67,3.94,6.78,8.21,7.64l.09,58.49c-2.41.19-3.47-1.71-4.73-3.18-6.95-8.08-13.81-16.24-20.75-24.32q-11.76-13.68-23.59-27.29C333.69,115,332.62,113.77,330.72,114Z"/><path class="cls-8" d="M383.75,112.54c-4.27-.86-5.67-5-8.21-7.64-6.07-6.39-11.57-13.31-17.31-20q-10.91-12.73-21.85-25.46c-5.61-6.49-11.34-12.87-17-19.37Q306.15,24.7,293,9.23c-2.37-2.79-5.86-4.79-6.47-8.87,24.35-.38,47.51,3.42,67,19.58,15.68,13,24.27,30.06,28.23,49.72C384.59,83.84,383.88,98.21,383.75,112.54Z"/><path class="cls-9" d="M330.72,114c1.9-.26,3,1,4,2.21q11.79,13.65,23.59,27.29c6.94,8.08,13.8,16.24,20.75,24.32,1.26,1.47,2.32,3.37,4.73,3.18q0,31.5,0,63c-2.41.17-3.46-1.74-4.73-3.21-5.87-6.75-11.68-13.55-17.51-20.33-5.58-6.51-11-13.17-16.8-19.46-3.5-3.78-5.92-8.68-10.91-11,0-9,0-18-.14-26.94-.17-12.09-.44-24.17-2.91-36.07A16.52,16.52,0,0,1,330.72,114Z"/><path class="cls-10" d="M333.87,180c5,2.32,7.41,7.22,10.91,11,5.81,6.29,11.22,12.95,16.8,19.46,5.83,6.78,11.64,13.58,17.51,20.33,1.27,1.47,2.32,3.38,4.73,3.21q0,23.62-.11,47.25c-2.4.1-3.41-1.83-4.68-3.29-5.59-6.48-11.13-13-16.7-19.51-5.9-6.87-11.61-13.92-17.79-20.53-3.42-3.67-5.76-8.5-10.68-10.67Q333.86,203.66,333.87,180Z"/><path class="cls-11" d="M192.74,50.12l-41.25,0c-.44-2.45-2.69-3.49-4.11-5.16-8.92-10.49-18-20.83-26.86-31.39-3.71-4.44-8.17-8.29-11-13.44H153c.81,4.21,4.3,6.45,6.85,9.39,9.3,10.76,18.69,21.44,27.76,32.38C189.61,44.35,193.05,46.15,192.74,50.12Z"/><path class="cls-10" d="M192.74,50.12c.31-4-3.13-5.77-5.14-8.19C178.53,31,169.14,20.31,159.84,9.55c-2.55-2.94-6-5.18-6.85-9.39h41.25c.26,1.83,1.42,3.1,2.63,4.4,2.54,2.72,5,5.49,7.47,8.3,7.55,8.73,15.21,17.35,22.5,26.28,2.83,3.47,7,6.06,7.9,11Z"/><path class="cls-11" d="M333.86,227.28c4.92,2.17,7.26,7,10.68,10.67,6.18,6.61,11.89,13.66,17.79,20.53,5.57,6.5,11.11,13,16.7,19.51,1.27,1.46,2.28,3.39,4.68,3.29.33,12.65.32,25.27-3.15,37.6-1.7-.05-2.65-1.25-3.63-2.39q-11.3-13.11-22.58-26.24c-5.74-6.68-11.41-13.42-17.23-20-1.6-1.81-2.91-4.11-5.6-4.68C333,252.82,333.63,240.06,333.86,227.28Z"/><path class="cls-12" d="M289.45,324.65c5.75-3.41,11.85-6.28,16.84-10.86,2.11-1.94,4.19-3.89,6.29-5.84,4.91,5.62,9.84,11.21,14.72,16.85,7.56,8.74,15.18,17.44,22.57,26.32,2.45,2.95,5.58,5.39,7.18,9-.35,2.12-2.28,2.87-3.66,4-6.57,5.41-13.67,9.92-21.87,12.5a4.13,4.13,0,0,0-1.08-3.07c-5.19-5.86-10.31-11.79-15.47-17.68-7.28-8.32-14.7-16.54-21.79-25C291.7,329.08,289.17,327.61,289.45,324.65Z"/><path class="cls-9" d="M234.74,50.12c-.86-4.92-5.07-7.51-7.9-11-7.29-8.93-15-17.55-22.5-26.28-2.43-2.81-4.93-5.58-7.47-8.3-1.21-1.3-2.37-2.57-2.63-4.4h39c.82,4,4.31,6.18,6.68,9.06,7.24,8.78,14.77,17.33,22.2,26q7.39,8.58,14.8,17.15c.68.8,1.95,1.57.29,2.64A207.92,207.92,0,0,0,234.74,50.12Z"/><path class="cls-13" d="M60.9,91.23a119.81,119.81,0,0,0-9,30.31c-3.87-1.41-5.53-5.16-8.07-7.9-5.73-6.18-11-12.79-16.52-19.17C20,86,12.63,77.61,5.35,69.14c-.68-.79-1.18-1.59-2.32-1.61A67.58,67.58,0,0,1,14,39c4.95,1.7,7,6.48,10.21,9.95,8,8.65,15.45,17.71,23.12,26.61Z"/><path class="cls-12" d="M95.25,59.22a107.28,107.28,0,0,0-20,12.46A21.89,21.89,0,0,0,72.29,75c-1.22-1.72-2.3-3.54-3.67-5.13-11.15-13-22.25-26-33.61-38.74-2.44-2.74-4.17-6.26-7.68-8A62.07,62.07,0,0,1,52.5,7.59c.65,2.53,2.69,4.14,4.26,6,10.42,12.13,21.13,24,31.44,36.24C90.7,52.75,94.19,55.13,95.25,59.22Z"/><path class="cls-14" d="M109.5.16c2.85,5.15,7.31,9,11,13.44,8.84,10.56,17.94,20.9,26.86,31.39,1.42,1.67,3.67,2.71,4.11,5.16-11,.21-22,1.35-33,2.46a4,4,0,0,0-1.07-3c-10.44-11.89-21-23.73-31.2-35.8-3.15-3.73-7.08-6.93-9-11.61A172,172,0,0,1,109.5.16Z"/><path class="cls-15" d="M357.05,360.13c-1.6-3.62-4.73-6.06-7.18-9-7.39-8.88-15-17.58-22.57-26.32-4.88-5.64-9.81-11.23-14.72-16.85,4.9-6.14,9.38-12.55,12.29-19.92,4.4.86,5.91,5,8.47,7.81,7.64,8.28,14.81,17,22.15,25.56l16.67,19.48c-3.26,7.07-8.09,13-13.49,18.5A5,5,0,0,1,357.05,360.13Z"/><path class="cls-16" d="M289.45,324.65c-.28,3,2.25,4.43,3.73,6.21,7.09,8.48,14.51,16.7,21.79,25,5.16,5.89,10.28,11.82,15.47,17.68a4.13,4.13,0,0,1,1.08,3.07c-7.83,3.77-16.22,4.8-24.76,5,0-3.27-3-4.41-4.66-6.41-9.15-10.75-18.5-21.33-27.55-32.17-3.16-3.78-7.15-6.95-9.11-11.68A204.22,204.22,0,0,0,289.45,324.65Z"/><path class="cls-15" d="M77.2,2.15c2,4.68,5.88,7.88,9,11.61,10.23,12.07,20.76,23.91,31.2,35.8a4,4,0,0,1,1.07,3c-7.84,1.9-15.7,3.72-23.25,6.61-1.06-4.09-4.55-6.47-7-9.43-10.31-12.22-21-24.11-31.44-36.24-1.57-1.82-3.61-3.43-4.26-6A83.53,83.53,0,0,1,77.2,2.15Z"/><path class="cls-14" d="M372.16,340.88,355.49,321.4c-7.34-8.56-14.51-17.28-22.15-25.56-2.56-2.78-4.07-6.95-8.47-7.81a72.69,72.69,0,0,0,5.93-20.84,6.33,6.33,0,0,1,.72-1.66c2.69.57,4,2.87,5.6,4.68,5.82,6.62,11.49,13.36,17.23,20q11.28,13.14,22.58,26.24c1,1.14,1.93,2.34,3.63,2.39A70.44,70.44,0,0,1,372.16,340.88Z"/><path class="cls-16" d="M27.33,23.08c3.51,1.74,5.24,5.26,7.68,8C46.37,43.85,57.47,56.86,68.62,69.82,70,71.41,71.07,73.23,72.29,75A113.41,113.41,0,0,0,60.9,91.23L47.35,75.51c-7.67-8.9-15.17-18-23.12-26.61C21,45.43,19,40.65,14,39A65.2,65.2,0,0,1,27.33,23.08Z"/><path class="cls-13" d="M265.44,331.41c2,4.73,5.95,7.9,9.11,11.68,9.05,10.84,18.4,21.42,27.55,32.17,1.7,2,4.67,3.14,4.66,6.41-7.2.91-14.44,1-21.67,1.19-.36-4-3.87-6-6.07-8.69-7-8.52-14.65-16.48-21.62-25-4.19-5.12-9.64-9.31-12.25-15.68Z"/><path class="cls-11" d="M176.25,75.91l32.25-.08c.85,5.4,5.61,8,8.66,11.79,6.86,8.49,14.35,16.48,21.48,24.75,11.92,13.82,23.75,27.71,35.63,41.55,9.3,10.82,18.58,21.68,28,32.39,1.92,2.17,3.6,4.82,6.69,5.72.23,17-.5,34-1.54,51-2-.21-2.9-1.83-4-3.1-2.45-2.79-4.75-5.71-7.17-8.52-7.66-8.93-15.16-18-23.14-26.64-2.62-2.83-4.25-6.81-8.29-8.24,0-1.5-.05-3-.07-4.49a72.23,72.23,0,0,0-16.84-46.56c-9.56-11.65-21.87-19.11-36.07-23.71,1.37-.68.9-1.5.21-2.38-1.69-2.15-3.25-4.4-5-6.45-9-10.3-18.09-20.48-26.92-30.9C178.58,80.28,176.08,78.83,176.25,75.91Z"/><path class="cls-4" d="M75.91,189c-.18-11.26-.28-22.51.63-33.74,2.35.37,3.43,2.36,4.81,3.89,2.23,2.48,4.22,5.18,6.4,7.72,7.67,8.93,15.18,18,23.16,26.66,2.69,2.91,4.39,7.11,8.82,8.22a73.43,73.43,0,0,0,4.42,17.68c5.75,14.15,15.65,25.23,28.06,33.92,8.73,6.12,18.93,8.82,29.3,10.82-.19,1.39.64,2.28,1.47,3.25,9.32,10.77,18.65,21.52,27.87,32.38,2.21,2.6,5.09,4.79,5.9,8.4l-37.49-.14c.16-1.4-.69-2.28-1.54-3.24q-5.46-6.13-10.79-12.36-11.19-13-22.35-26c-6.82-7.9-13.69-15.76-20.51-23.66q-11.2-13-22.37-26c-5.75-6.68-11.27-13.58-17.33-20C81.75,194.12,80.47,189.73,75.91,189Z"/><path class="cls-5" d="M75.91,189c4.56.71,5.84,5.1,8.46,7.86,6.06,6.39,11.58,13.29,17.33,20q11.17,13,22.37,26c6.82,7.9,13.69,15.76,20.51,23.66q11.19,13,22.35,26,5.34,6.21,10.79,12.36c.85,1,1.7,1.84,1.54,3.24-11.51.45-23-.24-34.5-.73,0-2.2-1.3-3.63-2.67-5.14q-6-6.63-11.84-13.4-13.62-15.76-27.19-31.6c-5.74-6.68-11.24-13.58-17.27-20-3-3.17-4.73-7.74-9.43-9.15-.91-6.92-.44-13.87-.55-20.81C75.72,201.19,75.87,195.1,75.91,189Z"/><path class="cls-10" d="M309,192c-3.09-.9-4.77-3.55-6.69-5.72-9.43-10.71-18.71-21.57-28-32.39-11.88-13.84-23.71-27.73-35.63-41.55-7.13-8.27-14.62-16.26-21.48-24.75-3-3.76-7.81-6.39-8.66-11.79C225,75.59,241.55,75,258,77.39a8.83,8.83,0,0,0,1,1.94c5,5.82,10.13,11.54,15,17.44,1,1.2,3.2,2.22,2,4.52-10.28-4.87-21.54.19-24.31,9.14-2,6.41-1,12,3.24,17.16s9.73,6.79,16.21,5.36c8.71-1.93,13.43-8.48,13.52-18.83,1.61-.26,2.53.84,3.41,1.85,4.3,4.9,8.51,9.88,12.84,14.75,1.74,2,3,4.57,6.09,5,1.28,5.74,1.37,11.62,1.66,17.44C309.29,166.09,309.43,179.06,309,192Z"/><path class="cls-13" d="M119.73,201.77c-4.43-1.11-6.13-5.31-8.82-8.22-8-8.65-15.49-17.73-23.16-26.66-2.18-2.54-4.17-5.24-6.4-7.72-1.38-1.53-2.46-3.52-4.81-3.89.32-15.53,1.07-31,5.82-46,4,5.84,9,10.83,13.6,16.23,9.09,10.82,18.4,21.45,27.64,32.14.8.92,1.54,2,3,2.09A75.9,75.9,0,0,0,119.73,201.77Z"/><path class="cls-3" d="M76.36,228.08c4.7,1.41,6.44,6,9.43,9.15,6,6.4,11.53,13.3,17.27,20q13.59,15.81,27.19,31.6,5.85,6.76,11.84,13.4c1.37,1.51,2.71,2.94,2.67,5.14-13-.5-25.87-1.56-38.27-5.82C92.66,296.78,84.63,286.79,81,273,77.18,258.24,76.31,243.21,76.36,228.08Z"/><path class="cls-14" d="M176.25,75.91c-.17,2.92,2.33,4.37,3.83,6.13,8.83,10.42,17.95,20.6,26.92,30.9,1.79,2,3.35,4.3,5,6.45.69.88,1.16,1.7-.21,2.38a81.07,81.07,0,0,0-41.58.51,3.7,3.7,0,0,0-.86-2.75c-3.1-3.53-6.1-7.14-9.2-10.67-7.41-8.47-15-16.82-22.21-25.43-1.56-1.86-4.11-3.45-3.83-6.52A416.4,416.4,0,0,1,176.25,75.91Z"/><path class="cls-15" d="M305.21,264.9a43.8,43.8,0,0,1-11.36,24.4c-1,1.07-1.26,2.74-2.8,3.34-2-2.38-3.91-4.79-5.94-7.11-10.49-12-21.15-23.93-31.42-36.14-2.44-2.9-5.81-5.15-7.11-9a86.56,86.56,0,0,0,14-23.76c2.65.34,3.89,2.51,5.42,4.26,2.2,2.51,4.26,5.15,6.43,7.69,7.59,8.84,15,17.83,22.89,26.39C298.48,258.39,300.64,262.89,305.21,264.9Z"/><path class="cls-12" d="M91.42,92.13c5.5-6.67,12.8-10.15,21.07-11.89a5.56,5.56,0,0,0,.64,1.7c11.7,13.52,23.48,27,35.1,40.54,2,2.31,4.51,4.26,5.53,7.33-5.95,4.28-11.83,8.66-16.7,14.21-2.4-.55-3.64-2.6-5.07-4.23-11.12-12.73-22.24-25.46-33.11-38.4C96.34,98.37,93,95.93,91.42,92.13Z"/><path class="cls-12" d="M246.58,240.41c1.3,3.83,4.67,6.08,7.11,9,10.27,12.21,20.93,24.11,31.42,36.14,2,2.32,4,4.73,5.94,7.11-6.05,6.05-13.5,9.45-21.7,11.43-3-3.65-5.81-7.38-8.89-10.91-9-10.37-18.19-20.58-27.08-31-1.77-2.09-4.29-3.91-4.62-7A97.25,97.25,0,0,0,246.58,240.41Z"/><path class="cls-16" d="M228.76,255.09c.33,3.12,2.85,4.94,4.62,7,8.89,10.46,18.08,20.67,27.08,31,3.08,3.53,5.93,7.26,8.89,10.91-8.81,2.77-17.91,3.54-27.08,3.83a5.55,5.55,0,0,0-1.53-3.72c-8.72-10-17.62-19.86-26.1-30.06-2.78-3.33-6.91-5.85-7.63-10.7A92.22,92.22,0,0,0,228.76,255.09Z"/><path class="cls-16" d="M91.42,92.13c1.58,3.8,4.92,6.24,7.46,9.26,10.87,12.94,22,25.67,33.11,38.4,1.43,1.63,2.67,3.68,5.07,4.23a98.77,98.77,0,0,0-10.5,15.75c-1.42-.09-2.16-1.17-3-2.09C114.36,147,105.05,136.36,96,125.54c-4.55-5.4-9.58-10.39-13.6-16.23C84.05,102.87,86.65,96.93,91.42,92.13Z"/><path class="cls-13" d="M207,263.42c.72,4.85,4.85,7.37,7.63,10.7,8.48,10.2,17.38,20.06,26.1,30.06a5.55,5.55,0,0,1,1.53,3.72c-8.5.73-17,.48-25.52.32-.81-3.61-3.69-5.8-5.9-8.4C201.63,289,192.3,278.21,183,267.44c-.83-1-1.66-1.86-1.47-3.25A83.58,83.58,0,0,0,207,263.42Z"/><path class="cls-15" d="M153.76,129.81c-1-3.07-3.56-5-5.53-7.33-11.62-13.58-23.4-27-35.1-40.54a5.56,5.56,0,0,1-.64-1.7c7-2.35,14.34-2.86,21.66-3.33-.28,3.07,2.27,4.66,3.83,6.52,7.24,8.61,14.8,17,22.21,25.43,3.1,3.53,6.1,7.14,9.2,10.67a3.7,3.7,0,0,1,.86,2.75A144.16,144.16,0,0,0,153.76,129.81Z"/><path class="cls-14" d="M305.21,264.9c-4.57-2-6.73-6.51-9.87-9.91-7.89-8.56-15.3-17.55-22.89-26.39-2.17-2.54-4.23-5.18-6.43-7.69-1.53-1.75-2.77-3.92-5.42-4.26,2.27-6.53,3.24-13.33,4.21-20.12,4,1.43,5.67,5.41,8.29,8.24,8,8.64,15.48,17.71,23.14,26.64,2.42,2.81,4.72,5.73,7.17,8.52,1.12,1.27,2,2.89,4,3.1C306.3,250.28,307.75,257.79,305.21,264.9Z"/><path class="cls-9" d="M276,101.29c1.23-2.3-1-3.32-2-4.52-4.9-5.9-10-11.62-15-17.44a8.83,8.83,0,0,1-1-1.94c29.42,3.21,40.64,17.27,46.41,41.76A83.25,83.25,0,0,1,307,135.7c-3.05-.41-4.35-3-6.09-5-4.33-4.87-8.54-9.85-12.84-14.75-.88-1-1.8-2.11-3.41-1.85A19.29,19.29,0,0,0,276,101.29Z"/><path class="cls-6" d="M264.81,196.53c-1,6.79-1.94,13.59-4.21,20.12a86.56,86.56,0,0,1-14,23.76,97.25,97.25,0,0,1-17.82,14.68A92.22,92.22,0,0,1,207,263.42a83.58,83.58,0,0,1-25.5.77c-10.37-2-20.57-4.7-29.3-10.82-12.41-8.69-22.31-19.77-28.06-33.92a73.43,73.43,0,0,1-4.42-17.68,75.9,75.9,0,0,1,6.83-42A98.77,98.77,0,0,1,137.06,144c4.87-5.55,10.75-9.93,16.7-14.21a144.16,144.16,0,0,1,16.49-7.53,81.07,81.07,0,0,1,41.58-.51c14.2,4.6,26.51,12.06,36.07,23.71A72.23,72.23,0,0,1,264.74,192C264.76,193.54,264.79,195,264.81,196.53ZM189,239.11c8.19.5,16.13-.43,23.58-4.17a37.43,37.43,0,0,0,19.29-17.36,42.52,42.52,0,0,0,6.63-23.3c2.55-25.63-17.49-48.72-42.77-49.27-8.45-.64-16.64.28-24.34,4.11a37.48,37.48,0,0,0-19.33,17.34A42,42,0,0,0,145.45,189c-.94,4.76-.06,9.43.85,14.06C150.39,224,168.55,239.26,189,239.11Z"/><path class="cls-6" d="M276,101.29a19.29,19.29,0,0,1,8.66,12.83c-.09,10.35-4.81,16.9-13.52,18.83-6.48,1.43-11.94-.19-16.21-5.36s-5.22-10.75-3.24-17.16C254.43,101.48,265.69,96.42,276,101.29Z"/><path class="cls-12" d="M152.07,166.46a37.48,37.48,0,0,1,19.33-17.34,5.68,5.68,0,0,1,2.29,1.86q13.44,15.65,26.92,31.28c5.73,6.68,11.28,13.53,17.24,20,4.71,5.09,8.38,11.13,14,15.34a37.42,37.42,0,0,1-19.3,17.36c-3.44-2.17-5.51-5.69-8.14-8.61-7.65-8.46-15-17.22-22.39-25.88-5.56-6.49-10.88-13.22-16.72-19.45C160.84,176.21,157.3,170.57,152.07,166.46Z"/><path class="cls-15" d="M231.88,217.58c-5.65-4.21-9.32-10.25-14-15.34-6-6.45-11.51-13.3-17.24-20Q187.15,166.62,173.69,151a5.68,5.68,0,0,0-2.29-1.86c7.7-3.83,15.89-4.75,24.34-4.11-.21,1.85,1.06,3.11,2,4.27,5.48,6.44,11.14,12.72,16.68,19.11s11,13.17,16.83,19.46c2.16,2.32,3.29,6,7.21,6.43A42.52,42.52,0,0,1,231.88,217.58Z"/><path class="cls-16" d="M152.07,166.46c5.23,4.11,8.77,9.75,13.26,14.54,5.84,6.23,11.16,13,16.72,19.45,7.43,8.66,14.74,17.42,22.39,25.88,2.63,2.92,4.7,6.44,8.14,8.61-7.44,3.74-15.38,4.67-23.57,4.17a13,13,0,0,0-1.4-3c-4.8-5.67-9.68-11.26-14.52-16.88-5.81-6.75-11.42-13.69-17.49-20.19-3.23-3.46-5.31-8.18-10.15-10A42,42,0,0,1,152.07,166.46Z"/><path class="cls-13" d="M145.45,189c4.84,1.84,6.92,6.56,10.15,10,6.07,6.5,11.68,13.44,17.49,20.19,4.84,5.62,9.72,11.21,14.52,16.88a13,13,0,0,1,1.4,3c-20.46.15-38.62-15.11-42.71-36C145.39,198.46,144.51,193.79,145.45,189Z"/><path class="cls-14" d="M238.51,194.28c-3.92-.41-5-4.11-7.21-6.43-5.82-6.29-11.21-13-16.83-19.46s-11.2-12.67-16.68-19.11c-1-1.16-2.26-2.42-2-4.27C221,145.56,241.06,168.65,238.51,194.28Z"/></g></g></svg>