<svg xmlns="http://www.w3.org/2000/svg" viewBox="0 0 310.6 409.44"><defs><style>.cls-1{fill:#7e3d4a;}.cls-2{fill:#dd5f89;}.cls-3{fill:#cf3b67;}.cls-4{fill:#cf3b68;}.cls-5{fill:#fc4f7b;}.cls-6{fill:#ce3b67;}.cls-7{fill:#e27da4;}.cls-8{fill:#eaa4c1;}.cls-9{fill:#fcfcfc;}</style></defs><title>Ресурс 1</title><g id="Слой_2" data-name="Слой 2"><g id="Слой_1-2" data-name="Слой 1"><path class="cls-1" d="M84.08,409.44c-6.93-6.9-12-15.24-17.1-23.42-4.28-6.88-8.66-10.1-17.14-8-7.57,1.87-15.57,1.93-23.35,3-3.12.43-5.88.31-7.95-2.32s-1.34-5.44-.08-8.25q21.09-46.89,42.11-93.79c2-4.34,2-4.47-2.63-5.44C47.57,269,41.7,262.75,39.12,252.5c-5.23-20.8-.78-14.56-18-27.05C12,218.79,8.68,210.32,10.92,199.38c.77-3.77,1.26-7.61,1.85-11.43A12.36,12.36,0,0,0,11,179.18c-2.41-3.82-4.69-7.73-7.08-11.57-5.24-8.42-5.14-16.78.1-25.16,2.12-3.38,4-6.89,6.27-10.2a14.74,14.74,0,0,0,2.22-11.74c-1-4.83-1.64-9.72-2.11-14.62-.75-7.9,2.25-14.35,8.45-19.22,4-3.13,8.1-6.06,12.24-9A12.33,12.33,0,0,0,36.2,70c1.14-5.06,2.38-10.1,3.8-15.08A20.8,20.8,0,0,1,55.1,39.82c4.59-1.32,9.25-2.43,13.93-3.44a14.42,14.42,0,0,0,9.6-6.48c2.25-3.46,4.85-6.69,7.25-10C91.69,11.72,99.65,9,109.3,10.45a64.74,64.74,0,0,1,7.08,1.26c7.3,2,13.88.83,19.83-4,12.66-10.18,25.56-10.49,38,0,8,6.79,16.69,4.67,25.39,3,11.18-2.19,19.56,1.32,26.27,10.62C238,38.12,232.1,33.91,252,38.79c10.75,2.64,16.93,8.68,19.61,19.46,5,20.14.71,14.14,17.94,26.62,9.05,6.55,12.3,14.94,10.2,25.71-.73,3.79-1.25,7.62-1.87,11.43a12.61,12.61,0,0,0,1.83,9.15c2.7,4.27,5.36,8.57,7.85,13a21.09,21.09,0,0,1,0,22c-2.42,4.28-5,8.51-7.64,12.63a13.72,13.72,0,0,0-1.9,10.29c.85,5,1.71,10,2.22,15,.84,8.22-2.3,14.84-8.83,19.82q-5.71,4.37-11.61,8.48a12.56,12.56,0,0,0-5.4,8c-.9,4.29-2.08,8.52-3.09,12.79-2.28,9.6-8.16,15.57-17.79,17.85-5.11,1.21-5.11,1.25-2.93,6.11q20.85,46.54,41.72,93.09c1.33,2.95,2.25,5.75-.07,8.57-1.89,2.3-4.36,2.66-7.21,2.3-10.57-1.34-21.16-2.47-31.72-3.86a4.09,4.09,0,0,0-4.55,2.09c-5.7,8.36-11.59,16.59-17.31,24.93a13.33,13.33,0,0,1-5.7,5.16h-3.2a12.07,12.07,0,0,1-4.95-6c-14.3-32-28.75-64-42.94-96-1.61-3.64-2.86-3.6-5.75-1.62-9,6.16-18.13,6-27.22,0-1.1-.73-2.27-1.34-3.54-2.07-.63,1.3-1.23,2.47-1.77,3.66Q115,355.1,93.67,402.75c-1.26,2.83-2.69,5.33-5.59,6.69Zm9.51-377.7a3.32,3.32,0,0,0-1.72,2.32l.13.2-.12-.2C85.33,45.44,74.46,49.37,62.36,51.19c-.52.08-1,.37-1.53.45-5.29.84-7.89,4.06-9.13,9.18C46,84.23,48.28,81.25,28.34,95.58c-4.2,3-5.82,6.7-5,11.67.67,3.94,1.21,7.9,1.93,11.83,1.23,6.69.39,13-3.39,18.75-2.39,3.68-4.47,7.57-6.87,11.25-2.62,4-2.7,7.88-.08,11.93,2.45,3.81,4.64,7.78,7.08,11.59,3.66,5.7,4.46,11.85,3.3,18.4-.67,3.8-1.18,7.63-1.9,11.42-1,5.27.46,9.37,5.09,12.38,3.57,2.32,6.89,5,10.38,7.46a24.35,24.35,0,0,1,9.9,15c1.06,4.53,2.17,9.05,3.25,13.58a9.37,9.37,0,0,0,7.43,7.48c4.39,1.06,8.77,2.21,13.19,3.19a24.68,24.68,0,0,1,15.63,10.24c2.43,3.5,5.12,6.83,7.48,10.38,2.75,4.14,6.43,5.75,11.29,4.93,4.2-.7,8.43-1.27,12.62-2a24.24,24.24,0,0,1,18,3.29c3.93,2.5,8,4.83,11.92,7.3a9.82,9.82,0,0,0,11.26,0c4.07-2.54,8.2-5,12.27-7.51A24.3,24.3,0,0,1,190.82,285c4.59.79,9.19,1.52,13.81,2.09,2.82.36,5.62.15,7.63-2.35,1.66-1,2.52-2.72,3.59-4.21C228.52,263,227,264,248.25,259c.39-.1.78-.19,1.17-.26,5.31-1,8.2-4,9.47-9.38,5.55-23.23,3.5-20.53,23.34-34.74,4.19-3,5.83-6.69,5-11.67-.69-3.93-1.21-7.89-1.94-11.82a25.11,25.11,0,0,1,3.57-19.1c2.34-3.55,4.33-7.34,6.68-10.88,2.76-4.18,2.65-8.13-.09-12.27-2.41-3.66-4.49-7.55-6.87-11.23-3.67-5.69-4.48-11.83-3.33-18.38.72-4.06,1.31-8.15,2-12.21.81-4.82-.64-8.58-4.8-11.36-3.55-2.36-6.86-5.06-10.37-7.47a24.51,24.51,0,0,1-10.34-15.55c-1-4.41-2.14-8.79-3.17-13.19a9.6,9.6,0,0,0-7.74-7.66c-4.39-1-8.76-2.23-13.18-3.19A24.33,24.33,0,0,1,222.09,38.3c-2.49-3.62-5.2-7.09-7.71-10.7-2.65-3.82-6.25-5.18-10.75-4.45q-6.1,1-12.21,2c-6.8,1.15-13.21.36-19.11-3.56-3.77-2.5-7.72-4.72-11.57-7.09a9.68,9.68,0,0,0-10.92,0c-3.85,2.37-7.8,4.59-11.57,7.09a24.79,24.79,0,0,1-17.92,3.73q-5.92-.87-11.83-1.91c-6.9-1.22-9.5-.08-13.24,6a3.3,3.3,0,0,0-1.69,2.36ZM242,290.2c-2-4.59-3.92-9.18-5.95-13.95a7.88,7.88,0,0,0-1.64,1.12c-4.11,5.35-8.17,10.73-12.27,16.08a2.28,2.28,0,0,0-.18,2.59q2.63,5.52,5.29,11c.45,1.24.83,2.51,1.37,3.71,4.43,10,8.8,20,13.39,29.86,1.89,4.07,1.69,7.41-2,10.26-5.58,1.21-7.5.23-9.93-5.16-6.37-14.19-12.7-28.4-19.12-42.58-.59-1.3-.66-3.22-3-3.09-6.44.35-12.65-1.43-19-2.26-1.32-.17-3-.94-3.84,0-1.11,1.26.41,2.67,1,3.92q14.46,32.42,29,64.8c3.4,7.6,6.82,15.18,10.5,23.38,4.26-6.09,8.09-11.63,12-17.12,2.23-3.12,4-6.65,7.25-8.9,10.48-.17,20.73,2.48,31.64,3-3.7-8.24-7.2-16.12-10.75-24Q253.87,316.52,242,290.2ZM95.39,313.47l-14.6,32.22c-2.51,5.53-4.33,6.43-10.26,5.12-3.39-3-3.43-6.44-1.61-10.41C75.39,326.25,81.69,312,88,297.84c.67-1.5,1.74-2.84.22-4.71-3.67-4.56-7-9.34-10.58-14-2.45-3.25-2.63-3.24-4.36.62Q58.63,312.49,44,345.24L34.27,366.9c10.86-.69,21-3.1,31.42-3.08a15.25,15.25,0,0,1,4.68,4.81c4.82,7,9.68,13.91,14.87,21.35l34.48-77.31c2.26-4.93,4.52-9.86,7-15.2-4.7-.07-8.7,1-12.76,1.56-4.3.56-9.67-.24-12.6,2.06-3.15,2.48-4,7.87-5.88,12A1.67,1.67,0,0,0,95.39,313.47Z"/><path class="cls-2" d="M95.26,29.4c3.74-6,6.34-7.18,13.24-6q5.9,1.05,11.83,1.91a24.79,24.79,0,0,0,17.92-3.73c3.77-2.5,7.72-4.72,11.57-7.09a9.68,9.68,0,0,1,10.92,0c3.85,2.37,7.8,4.59,11.57,7.09,5.9,3.92,12.31,4.71,19.11,3.56q6.11-1,12.21-2c4.5-.73,8.1.63,10.75,4.45,2.51,3.61,5.22,7.08,7.71,10.7A24.33,24.33,0,0,0,237.6,48.67c4.42,1,8.79,2.14,13.18,3.19a9.6,9.6,0,0,1,7.74,7.66c1,4.4,2.19,8.78,3.17,13.19A24.51,24.51,0,0,0,272,88.26c3.51,2.41,6.82,5.11,10.37,7.47,4.16,2.78,5.61,6.54,4.8,11.36-.68,4.06-1.27,8.15-2,12.21-1.15,6.55-.34,12.69,3.33,18.38,2.38,3.68,4.46,7.57,6.87,11.23,2.74,4.14,2.85,8.09.09,12.27-2.35,3.54-4.34,7.33-6.68,10.88a25.11,25.11,0,0,0-3.57,19.1c.73,3.93,1.25,7.89,1.94,11.82.87,5-.77,8.67-5,11.67-19.84,14.21-17.79,11.51-23.34,34.74-1.27,5.36-4.16,8.42-9.47,9.38-.39.07-.78.16-1.17.26-21.29,5-19.73,4-32.4,21.5-1.07,1.49-1.93,3.21-3.59,4.21a63.08,63.08,0,0,1-7.92-.46c-8.82-1.61-17.67-3.15-26.18-6.09-5.4-1.86-11.11-3.09-15.65-6.91,24.73-1.77,46.92-10.26,66.1-25.95,42.13-34.47,54.77-91.91,31.33-141.1-2.42-5.1-4.85-6.12-10.23-4.33-.18-1.76-1.19-3.16-2-4.64-1.59-3-4.3-5.21-5.37-8.5,2.46-5,2.26-6.63-1.5-10.57-2.38-2.49-4.8-4.94-7.31-7.3-4-3.8-6.64-3.82-11-.26-3.26-4-7.93-6-12.07-8.81,1.15-5.08.23-7.46-4-9.49C180.4,38,153.46,35,125.5,42.18,106.82,47,90.56,56.26,76.15,68.94c1.63-8.12,5.94-15.09,9.52-22.39,2-4.18,5.6-7.61,6.21-12.49l.12.2-.13-.2c1.93.23,1.84-1,1.72-2.32l0,0C95.33,31.84,95.33,30.65,95.26,29.4Z"/><path class="cls-2" d="M91.88,34.06c-.61,4.88-4.16,8.31-6.21,12.49-3.58,7.3-7.89,14.27-9.52,22.39a8.19,8.19,0,0,1-.73.92c-43.56,41.32-49.36,106.61-13.77,155,3.46,4.7,6.38,5.24,11.12,2.07,2.14,4.61,6.26,7.39,9.86,10.64-2.52,4.9-2.13,7.28,1.9,10.33a116.27,116.27,0,0,0,78,23.41c4.54,3.82,10.25,5.05,15.65,6.91,8.51,2.94,17.36,4.48,26.18,6.09a63.08,63.08,0,0,0,7.92.46c-2,2.5-4.81,2.71-7.63,2.35-4.62-.57-9.22-1.3-13.81-2.09a24.3,24.3,0,0,0-17.66,3.12c-4.07,2.53-8.2,5-12.27,7.51a9.82,9.82,0,0,1-11.26,0c-3.95-2.47-8-4.8-11.92-7.3a24.24,24.24,0,0,0-18-3.29c-4.19.75-8.42,1.32-12.62,2-4.86.82-8.54-.79-11.29-4.93-2.36-3.55-5.05-6.88-7.48-10.38a24.68,24.68,0,0,0-15.63-10.24c-4.42-1-8.8-2.13-13.19-3.19a9.37,9.37,0,0,1-7.43-7.48c-1.08-4.53-2.19-9.05-3.25-13.58a24.35,24.35,0,0,0-9.9-15c-3.49-2.44-6.81-5.14-10.38-7.46-4.63-3-6.09-7.11-5.09-12.38.72-3.79,1.23-7.62,1.9-11.42,1.16-6.55.36-12.7-3.3-18.4C19.6,168.79,17.41,164.82,15,161c-2.62-4-2.54-7.91.08-11.93,2.4-3.68,4.48-7.57,6.87-11.25,3.78-5.8,4.62-12.06,3.39-18.75-.72-3.93-1.26-7.89-1.93-11.83-.85-5,.77-8.65,5-11.67C48.28,81.25,46,84.23,51.7,60.82c1.24-5.12,3.84-8.34,9.13-9.18.52-.08,1-.37,1.53-.45C74.46,49.37,85.33,45.44,91.88,34.06Z"/><path class="cls-3" d="M244.88,363.85c-3.3,2.25-5,5.78-7.25,8.9-3.91,5.49-7.74,11-12,17.12-3.68-8.2-7.1-15.78-10.5-23.38q-14.53-32.39-29-64.8c-.56-1.25-2.08-2.66-1-3.92.81-.91,2.52-.14,3.84,0,6.31.83,12.52,2.61,19,2.26,2.35-.13,2.42,1.79,3,3.09,6.42,14.18,12.75,28.39,19.12,42.58,2.43,5.39,4.35,6.37,9.93,5.16C240.69,355.56,243.73,359.35,244.88,363.85Z"/><path class="cls-4" d="M65.69,363.82c-10.39,0-20.56,2.39-31.42,3.08L44,345.24q14.67-32.76,29.35-65.5c1.73-3.86,1.91-3.87,4.36-.62,3.53,4.67,6.91,9.45,10.58,14,1.52,1.87.45,3.21-.22,4.71C81.69,312,75.39,326.25,68.92,340.4c-1.82,4-1.78,7.38,1.61,10.41C70.1,355.59,66.91,359.34,65.69,363.82Z"/><path class="cls-5" d="M65.69,363.82c1.22-4.48,4.41-8.23,4.84-13,5.93,1.31,7.75.41,10.26-5.12l14.6-32.22a48.49,48.49,0,0,0,13,.71c3.8-.27,7.56-1,11.33-1.51L85.24,390c-5.19-7.44-10-14.38-14.87-21.35A15.25,15.25,0,0,0,65.69,363.82Z"/><path class="cls-5" d="M244.88,363.85c-1.15-4.5-4.19-8.29-4.88-13,3.65-2.85,3.85-6.19,2-10.26-4.59-9.89-9-19.89-13.39-29.86-.54-1.2-.92-2.47-1.37-3.71a3.92,3.92,0,0,0,2.7-1.43c4.89-4.46,8.57-9.86,12-15.43q11.91,26.32,23.82,52.64c3.55,7.85,7.05,15.73,10.75,24C265.61,366.33,255.36,363.68,244.88,363.85Z"/><path class="cls-6" d="M119.72,312.67c-3.77.52-7.53,1.24-11.33,1.51a48.49,48.49,0,0,1-13-.71,1.67,1.67,0,0,1,0-.39c1.86-4.12,2.73-9.51,5.88-12,2.93-2.3,8.3-1.5,12.6-2.06,4.06-.52,8.06-1.63,12.76-1.56C124.24,302.81,122,307.74,119.72,312.67Z"/><path class="cls-6" d="M242,290.2c-3.48,5.57-7.16,11-12,15.43a3.92,3.92,0,0,1-2.7,1.43q-2.65-5.51-5.29-11a2.28,2.28,0,0,1,.18-2.59c4.1-5.35,8.16-10.73,12.27-16.08a7.88,7.88,0,0,1,1.64-1.12C238,281,240,285.61,242,290.2Z"/><path class="cls-2" d="M95.26,29.4c.07,1.25.07,2.44-1.69,2.36A3.3,3.3,0,0,1,95.26,29.4Z"/><path class="cls-2" d="M93.59,31.74c.12,1.29.21,2.55-1.72,2.32A3.32,3.32,0,0,1,93.59,31.74Z"/><path class="cls-7" d="M82.63,237.54c-3.6-3.25-7.72-6-9.86-10.64,3-4.08,1-7.39-1.47-10.81-17-23.67-23.73-50-18.26-78.61,8.08-42.2,33.26-70,74.45-82.32,24.41-7.32,48.45-4.66,71.58,6.05,6,2.76,7.39,2.54,11.35-1.39,4.14,2.77,8.81,4.82,12.07,8.81-1.81,3.73-.94,6.82,2,9.57,2.43,2.23,4.71,4.62,7,7,3.89,4,5.85,4.25,10.79,1.59,1.07,3.29,3.78,5.54,5.37,8.5.8,1.48,1.81,2.88,2,4.64-3.13,2.84-3.3,6.13-1.53,9.74.71,1.44,1.39,2.88,2,4.34a100.84,100.84,0,0,1,7.11,57.82c-4.81,28.18-18.92,50.92-42.24,67.55-22.19,15.82-47,21.72-74.09,18.27a100.18,100.18,0,0,1-47.51-19.25C90,235.77,86.5,234.48,82.63,237.54Zm123.84-27.3c-2.4-11.58-4.77-23.16-7.22-34.73-.42-2,.95-2.87,2.09-3.94q12.75-11.82,25.51-23.64c3.83-3.56,5.57-7.79,3.81-13s-5.62-7.44-10.84-8c-11.24-1.28-22.47-2.74-33.72-3.93-2.86-.31-4.35-1.43-5.53-4.11-4.5-10.22-9.33-20.29-14-30.44-1.81-3.94-4.33-7-8.82-7.89-6.08-1.21-10.7,1.31-13.68,7.69-4.9,10.48-9.7,21-14.52,31.51-.68,1.49-1.31,2.8-3.28,3-8.47.83-16.93,1.76-25.4,2.66-.54-10.44-1.63-20.89.69-31.29.46-2-.66-3.83-2.7-4.89-2.29-1.19-3.81.15-5.3,1.51a82.72,82.72,0,0,0-22.37,33.92,90.3,90.3,0,0,0-4,45.76c3.2,19.17,12.14,35.33,25.72,48.87a84.88,84.88,0,0,0,26.67,17.88,88.72,88.72,0,0,0,49.76,6.14,94.14,94.14,0,0,0,34.07-12.78c6.2-3.71,11.19-8.91,16.59-13.59a4.25,4.25,0,0,0,1.09-5.45c-1-1.88-2.6-3.19-4.44-2.69C213.3,209.73,209.73,208.89,206.47,210.24Z"/><path class="cls-1" d="M210.42,59.82c-4,3.93-5.38,4.15-11.35,1.39-23.13-10.71-47.17-13.37-71.58-6.05C86.3,67.52,61.12,95.28,53,137.48c-5.47,28.57,1.3,54.94,18.26,78.61,2.44,3.42,4.5,6.73,1.47,10.81-4.74,3.17-7.66,2.63-11.12-2.07-35.59-48.36-29.79-113.65,13.77-155a8.19,8.19,0,0,0,.73-.92C90.56,56.26,106.82,47,125.5,42.18c28-7.2,54.9-4.22,80.88,8.15C210.65,52.36,211.57,54.74,210.42,59.82Z"/><path class="cls-1" d="M82.63,237.54c3.87-3.06,7.32-1.77,10.84.83A100.18,100.18,0,0,0,141,257.62c27.05,3.45,51.9-2.45,74.09-18.27,23.32-16.63,37.43-39.37,42.24-67.55A100.84,100.84,0,0,0,250.2,114c-.63-1.46-1.31-2.9-2-4.34-1.77-3.61-1.6-6.9,1.53-9.74,5.38-1.79,7.81-.77,10.23,4.33,23.44,49.19,10.8,106.63-31.33,141.1-19.18,15.69-41.37,24.18-66.1,25.95a116.27,116.27,0,0,1-78-23.41C80.5,244.82,80.11,242.44,82.63,237.54Z"/><path class="cls-1" d="M242.35,86.76c-4.94,2.66-6.9,2.36-10.79-1.59-2.32-2.35-4.6-4.74-7-7-3-2.75-3.85-5.84-2-9.57,4.41-3.56,7-3.54,11,.26,2.51,2.36,4.93,4.81,7.31,7.3C244.61,80.13,244.81,81.8,242.35,86.76Z"/><path class="cls-1" d="M100.89,125.43c8.47-.9,16.93-1.83,25.4-2.66,2-.2,2.6-1.51,3.28-3,4.82-10.51,9.62-21,14.52-31.51,3-6.38,7.6-8.9,13.68-7.69,4.49.89,7,4,8.82,7.89,4.65,10.15,9.48,20.22,14,30.44,1.18,2.68,2.67,3.8,5.53,4.11,11.25,1.19,22.48,2.65,33.72,3.93,5.22.6,9.09,2.92,10.84,8s0,9.39-3.81,13q-12.73,11.83-25.51,23.64c-1.14,1.07-2.51,1.92-2.09,3.94,2.45,11.57,4.82,23.15,7.22,34.73.56,5.55.08,10.71-5.29,14-5.53,3.41-10.38,1.21-15.3-1.63-9-5.17-18.15-10.07-27.12-15.29-2.46-1.43-4.28-1.59-6.82-.1-9.65,5.63-19.49,10.94-29.18,16.5-4.83,2.76-9.58,3.3-14.22-.06s-5.26-8.09-4.25-13.25c2.16-11,4.3-21.94,6.64-32.86.56-2.64.22-4.37-1.89-6.27-8.44-7.56-16.66-15.35-25-23-3.93-3.62-6-7.84-4.18-13.21s5.78-7.63,11.17-8.16C94.34,126.57,97.61,125.93,100.89,125.43Zm53.48-28,0-.08c-4.92,10.44-10,20.81-14.69,31.34-1.84,4.1-4.37,6.2-9,6.53-7.17.5-14.29,1.58-21.43,2.45-4.93.6-9.84,1.26-15.54,2,7.59,7,14.59,13.35,21.44,19.85,12,11.37,11,6.94,7.6,24.18-1.77,9.12-3.57,18.23-5.56,28.36l14-8.2,1.08-.63.07,0c6.18-3.37,12.4-6.67,18.51-10.15a8,8,0,0,1,8.64,0c6.57,3.78,13.22,7.42,19.84,11.11L193,211.74a32.78,32.78,0,0,0-.27-3.29c-2.21-11.09-4.37-22.19-6.72-33.25-.85-4-.13-7.13,3.09-10,8-7.08,15.7-14.43,23.53-21.68,1.22-1.12,2.43-2.26,4.24-3.95-13.17-1.58-25.41-3.16-37.69-4.46-3.89-.41-6.32-2.07-7.91-5.62-4.5-10.07-9.15-20.07-13.83-30-.57-1.22-.6-2.87-2.15-3.52C154.23,96,154.46,96.81,154.37,97.42Z"/><path class="cls-2" d="M100.89,125.43c-3.28.5-6.55,1.14-9.85,1.47-5.39.53-9.39,2.86-11.17,8.16s.25,9.59,4.18,13.21c8.33,7.68,16.55,15.47,25,23,2.11,1.9,2.45,3.63,1.89,6.27-2.34,10.92-4.48,21.89-6.64,32.86-1,5.16-.32,9.94,4.25,13.25s9.39,2.82,14.22.06c9.69-5.56,19.53-10.87,29.18-16.5,2.54-1.49,4.36-1.33,6.82.1,9,5.22,18.12,10.12,27.12,15.29,4.92,2.84,9.77,5,15.3,1.63,5.37-3.31,5.85-8.47,5.29-14,3.26-1.35,6.83-.51,10.2-1.42,1.84-.5,3.48.81,4.44,2.69A4.25,4.25,0,0,1,220,217c-5.4,4.68-10.39,9.88-16.59,13.59a94.14,94.14,0,0,1-34.07,12.78,88.72,88.72,0,0,1-49.76-6.14,84.88,84.88,0,0,1-26.67-17.88c-13.58-13.54-22.52-29.7-25.72-48.87a90.3,90.3,0,0,1,4-45.76A82.72,82.72,0,0,1,93.58,90.76c1.49-1.36,3-2.7,5.3-1.51,2,1.06,3.16,2.85,2.7,4.89C99.26,104.54,100.35,115,100.89,125.43Z"/><path class="cls-8" d="M154.41,97.34c.19,10.24-1.15,20.37-2.2,30.52-.31,3,.06,6.07-.6,9.13-1.3,6.09-4.85,9.82-10.65,11.75-5.52,1.83-6.17,3.82-2.53,8.24,4.29,5.22,5.19,10.81,2.91,17.14-2.92,8.13-5.65,16.32-8.45,24.49-.51,1.5-1.28,3-.46,4.62l-.07,0-1.08.63-14,8.2c2-10.13,3.79-19.24,5.56-28.36,3.36-17.24,4.37-12.81-7.6-24.18-6.85-6.5-13.85-12.83-21.44-19.85,5.7-.73,10.61-1.39,15.54-2,7.14-.87,14.26-1.95,21.43-2.45,4.62-.33,7.15-2.43,9-6.53C144.44,118.15,149.49,107.78,154.41,97.34Z"/><path class="cls-9" d="M131.28,203.84l1.08-.63Z"/></g></g></svg>