<svg xmlns="http://www.w3.org/2000/svg" viewBox="0 0 616.6 482.71"><defs><style>.cls-1,.cls-14{font-size:59px;font-family:CenturyGothic-Bold, Century Gothic;font-weight:700;letter-spacing:0.13em;}.cls-1,.cls-4{fill:#ea7f86;}.cls-14,.cls-2{fill:#7e3d4a;}.cls-3{fill:#f7d5c2;}.cls-5{fill:#e97e85;}.cls-6{fill:#f44d89;}.cls-7{fill:#e87e84;}.cls-8{fill:#fdfdfd;}.cls-9{fill:#e1e1e1;}.cls-10{fill:#c6447f;}.cls-11{fill:#f0c4b4;}.cls-12{fill:#73b798;}.cls-13{fill:#d5737a;}</style></defs><title>Ресурс 1</title><g id="Слой_2" data-name="Слой 2"><g id="Слой_1-2" data-name="Слой 1"><text class="cls-1" transform="translate(2.42 464.14)">ВООБРАЖАРИУМ</text><path class="cls-2" d="M137.62,409.59c-7-3.17-12.08-8-11.72-16.23A120.5,120.5,0,0,1,131.27,362c1.52-4.82,3.12-9.68,5.73-14a24.13,24.13,0,0,0,3.29-13.22q-.18-59.17,0-118.36c0-2.32-.26-4.19-2.2-6A23.17,23.17,0,0,1,134.8,180a7.82,7.82,0,0,0,1.63-5.1c-.3-10.07-1.36-20.25,4-29.63,1.05-1.82.83-4.41,1.1-6.65,4-33.69,17.65-63,40.58-87.95A156.51,156.51,0,0,1,321.48,2C364,8.74,398.2,29.58,424,63.83a150.19,150.19,0,0,1,29.62,74.73,30.55,30.55,0,0,0,2.57,9.93c4,8.27,2.89,17.2,2.67,25.95a8.41,8.41,0,0,0,1.51,5.52,23.21,23.21,0,0,1-3.13,30.49A6.39,6.39,0,0,0,455,215.6q.09,61.77,0,123.55a9.47,9.47,0,0,0,1.23,4.92c8.71,15.25,12.17,31.95,13.12,49.26.41,7.55-3.66,12.56-12.55,16.26Zm12-12.13c6.27.32,6.27.32,7-5.4s.71-5.77-5.38-5.49c-5.78-.78-9.43-4-10.88-10.05-1.88,5.77-2,11.36-2.43,16.87-.22,2.63,1.41,4.18,4.18,4.18C144.58,397.56,147.09,397.5,149.6,397.46Zm212-84.65-15.24,6.46a2.59,2.59,0,0,0-1.49,1.75c-1.06,3.66-2.81,7.12-3.2,11-.53,1.64-1.19,3.25-1.57,4.92A316.47,316.47,0,0,0,333,389.46c-.46,8.14-.49,7.88,7.67,8.23,4,.17,4.82-1.21,5-4.86.91-22.27,3.64-44.27,10.34-65.64,1.7-4.88,4.49-9.35,5.64-14.44l.55-.15-.15-.31Zm-128,0c-.08-.26,0-.84-.49-.21l.54.14c1.18,5.09,4,9.56,5.65,14.45,6.28,19.8,8.88,40.22,10.2,60.84.63,9.9.56,9.81,10.3,9.62,2.37,0,2.86-.78,2.73-3-.67-11.17-1.39-22.32-3-33.41-1.44-9.87-3-19.7-6-29.25-.27-3.34-1.72-6.35-2.71-9.48-.38-1.21-.49-2.64-2-3.26C243.76,317.13,238.68,315,233.6,312.81Zm212,84.65c2.26,0,4.53.15,6.79.11,3.9-.08,5.23-1.59,4.84-5.49s-.72-7.68-1.31-11.49c-2.45-15.95-7.9-30.62-19-42.74a58.79,58.79,0,0,0-22.64-15.56,6.57,6.57,0,0,0,.38,1.52c1.48,2.21,3,4.39,4.49,6.58a13,13,0,0,0,.74,1.81,139.35,139.35,0,0,1,18.74,59.4C439.21,397.79,439.35,397.78,445.63,397.46ZM327.56,337.65l3.64-13.5c-22.73,5.52-44.73,5.27-67.2.11,1.39,5,2.55,9.18,3.72,13.39a346.12,346.12,0,0,1,6.75,57c.07,2.16.63,3,3,3q20.19-.17,40.38,0c2.34,0,2.89-.8,2.95-3A339.85,339.85,0,0,1,327.56,337.65ZM342.9,92.25a100.53,100.53,0,0,1-11.6,12.61,109.2,109.2,0,0,1-13.73,10.29c-17.77,11.23-37.38,17.77-57.68,22.47-27.38,6.33-55.21,8.76-83.22,9.44-2.93.08-3.84.74-3.8,3.77.17,13.33-.05,26.66.1,40,.18,17.48,3.22,34.46,10.41,50.46,13.3,29.66,34.71,51.5,64.54,64.52,29.13,12.71,59,13.93,89.24,3.91,26.14-8.68,47-24.6,62.76-47.12a120.29,120.29,0,0,0,21.83-62c1-15.86.19-31.72.64-47.57.1-3.48-1.14-4.78-4.28-5.76-22.41-6.94-41.75-19-58.61-35.26A141,141,0,0,1,342.9,92.25ZM154.75,132.76a35.08,35.08,0,0,1,11.66-2.47c2.33,0,4.45.62,5.38,2.71,1,2.24,2.57,2.25,4.49,2.14,9.18-.52,18.38-.84,27.55-1.54,26.88-2.07,53.47-5.87,79-15.13,22.43-8.15,42.78-19.16,55.3-40.86,2.55-4.43,7.62-4.19,10.4.14,1.94,3,3.4,6.36,5.5,9.26,16.8,23.18,39.13,38.84,66,48.31,1.43.51,2.2.88,2.85-1.07,1-3,3.47-4,6.65-4,3.82.09,7.38,1.42,11.17,2.32A145.06,145.06,0,0,0,294.5,12.12C218.89,13.89,164,71.22,154.75,132.76Zm62.86,205.6c0-10.26-.23-20.54.11-30.79.13-3.95-1.3-6.25-4.25-8.58q-37-29.21-48.51-75c-.65-2.57-.53-6-2.16-7.47s-4.9.84-7.53.67c-2.37-.15-3.11.84-3.1,3.29q.11,75.39,0,150.78c0,2.74.91,3.29,3.43,3.27q29.4-.13,58.8,0c2.67,0,3.3-.8,3.27-3.36C217.53,360.23,217.61,349.3,217.61,338.36Zm174.53,59.22h29.17c5.7,0,5.74,0,5.21-5.83-3-33.61-17.5-61.5-42.06-84.4-1.82-1.7-2.81-1.6-4.38.27a65.93,65.93,0,0,0-11.2,19.67c-8.17,21.85-10.2,44.74-11.52,67.76-.16,2.87,1.46,2.54,3.22,2.53Zm50.9-71V224.75c0-6.8-.09-6.43-6.66-8.13-3.82-1-4.57,0-5.3,3.49a133.65,133.65,0,0,1-37.31,68.38c-5.75,5.71-5.61,5.4.05,11.26a24.55,24.55,0,0,0,13.53,7.5,69.73,69.73,0,0,1,20.71,8.17A87.37,87.37,0,0,1,443,326.56ZM229.62,339.33q0,16.68,0,33.37c0,9.44-4.25,13.74-13.58,13.75q-19.18,0-38.39,0c-8.54,0-8.44,0-9.41,8.26-.29,2.45.49,2.91,2.71,2.9q32-.09,64,0c2.61,0,3-.88,2.93-3.25-.32-8.13-1-16.23-1.92-24.3C234.73,359.69,233.09,349.35,229.62,339.33Zm204.7-140.82c-1.28,4,.4,5.13,2.56,5.94a11.72,11.72,0,0,0,13.5-4,11.5,11.5,0,0,0-.05-14.05,11.7,11.7,0,0,0-13.13-4.06c-1.94.66-3,1.61-2.94,4C434.46,190.75,434.32,195.25,434.32,198.51Zm-273.4-.22c0-3.12-.16-7.52.06-11.9.12-2.56-1.08-3.53-3.23-4.19a11.65,11.65,0,0,0-13.05,4.47,11.51,11.51,0,0,0,.45,14.11,11.81,11.81,0,0,0,13.36,3.61C160.8,203.52,162.12,202.18,160.92,198.29Zm0-41.28h0c0-2.39.12-4.8,0-7.18-.12-2,1.3-5-.63-5.78s-4,1.58-5.72,3a13.27,13.27,0,0,0-1.42,1.39c-5.58,6-5,13.41-4.86,20.74,0,1.51,1.17,1,2.06.83a18.5,18.5,0,0,1,8.31.08c1.85.46,2.33-.09,2.28-1.87C160.81,164.47,160.88,160.74,160.88,157Zm273.34-.18h.14c0,3.46.16,6.93-.05,10.37-.17,2.75.59,3.37,3.3,2.69a14.55,14.55,0,0,1,7.52.16c1.39.39,2,0,1.94-1.47-.06-4.25.41-8.56-.81-12.71A18.44,18.44,0,0,0,437,144.41c-1.85-1-2.9-1-2.79,1.64C434.34,149.64,434.22,153.23,434.22,156.83Z"/><path class="cls-3" d="M342.9,92.25A141,141,0,0,0,359.5,112c16.86,16.22,36.2,28.32,58.61,35.26,3.14,1,4.38,2.28,4.28,5.76-.45,15.85.39,31.71-.64,47.57a120.29,120.29,0,0,1-21.83,62C384.2,285.11,363.3,301,337.16,309.71c-30.2,10-60.11,8.8-89.24-3.91-29.83-13-51.24-34.86-64.54-64.52-7.19-16-10.23-33-10.41-50.46-.15-13.33.07-26.66-.1-40,0-3,.87-3.69,3.8-3.77,28-.68,55.84-3.11,83.22-9.44,20.3-4.7,39.91-11.24,57.68-22.47a109.2,109.2,0,0,0,13.73-10.29A100.53,100.53,0,0,0,342.9,92.25ZM210.55,148a21,21,0,0,0-20.61,19.49c-.34,3.94,1.71,6.79,5.21,7.23,3.28.42,5.68-1.56,6.57-5.43.21-.91.41-1.82.64-2.72a8.19,8.19,0,0,1,7.36-6.35c3.41-.47,6.15,1,8.26,3.76,1.3,1.71,1.36,3.74,1.78,5.65.8,3.58,3,5.3,6.5,5.07s5.34-2.89,5.21-6.77A20.89,20.89,0,0,0,210.55,148Zm153.19,20c-.07,3.49,1.31,5.93,4.95,6.62,3.34.62,5.78-1.26,6.75-5.13.23-.9.39-1.82.61-2.72a8.7,8.7,0,0,1,8-6.68,8.57,8.57,0,0,1,8.38,5,23.33,23.33,0,0,1,1.16,4.62c.86,3.49,3.41,5.38,6.61,4.91s5.26-3.06,5.18-6.52c-.24-10.93-9.72-20.13-20.78-20.18A21,21,0,0,0,363.74,168.06Zm-66.31,32.78a25.28,25.28,0,0,0,19.46-9.43c2.41-2.9,2.09-6.11-.62-8.48-2.46-2.15-5.5-1.93-8.17.57-7.76,7.27-13.2,7.27-21,0-2.67-2.5-5.72-2.71-8.17-.57-2.72,2.37-3,5.57-.63,8.49A25.42,25.42,0,0,0,297.43,200.84ZM210.7,188.76c-4,0-8,0-12,0s-6.49,2.15-6.71,5.29a5.84,5.84,0,0,0,6,6.55q12.75.4,25.51,0a6,6,0,0,0,6-6.17c-.19-3.39-2.82-5.61-6.91-5.68S214.69,188.76,210.7,188.76Zm173.88,0c-4.12,0-8.24-.08-12.36,0-3.8.09-6.42,2.36-6.53,5.62a5.55,5.55,0,0,0,5.59,6.1c8.88.35,17.8.28,26.68-.07,3.45-.13,5.4-2.67,5.24-6.32-.13-3.06-2.7-5.27-6.25-5.33C392.83,188.7,388.7,188.76,384.58,188.76Z"/><path class="cls-4" d="M154.75,132.76C164,71.22,218.89,13.89,294.5,12.12A145.06,145.06,0,0,1,440.65,132.61c-3.79-.9-7.35-2.23-11.17-2.32-3.18-.07-5.64.93-6.65,4-.65,1.95-1.42,1.58-2.85,1.07-26.85-9.47-49.18-25.13-66-48.31-2.1-2.9-3.56-6.24-5.5-9.26-2.78-4.33-7.85-4.57-10.4-.14-12.52,21.7-32.87,32.71-55.3,40.86-25.5,9.26-52.09,13.06-79,15.13-9.17.7-18.37,1-27.55,1.54-1.92.11-3.49.1-4.49-2.14-.93-2.09-3-2.75-5.38-2.71A35.08,35.08,0,0,0,154.75,132.76Zm163.5-71.41c.58-5-1.69-6.8-4.69-7.58-3.72-1-5.76,1.64-7,4.57A45.41,45.41,0,0,1,295.9,74c-10.72,10.31-23.73,16.83-37.54,21.88-11.35,4.15-23.06,7-34.85,9.58-4.58,1-6.66,4.26-5.67,7.62s4.19,4.78,8.72,3.81c8.68-1.84,17.33-3.74,25.82-6.41,21.8-6.85,42.22-15.94,57.24-34.12A48.49,48.49,0,0,0,318.25,61.35Zm-116.17,33a113.54,113.54,0,0,0,41.2-9.67,93,93,0,0,0,19.38-11c3.12-2.36,3.91-6.31,2-9.1-1.78-2.62-5.46-2.91-8.91-.68-1,.65-2,1.37-3,2a97.87,97.87,0,0,1-52.07,16.44,13.17,13.17,0,0,0-4.65,1c-2.94,1.2-3.69,3.63-3.22,6.54a4.94,4.94,0,0,0,4.82,4.51C199.14,94.48,200.62,94.37,202.08,94.37Z"/><path class="cls-5" d="M217.61,338.36c0,10.94-.08,21.87,0,32.8,0,2.56-.6,3.37-3.27,3.36q-29.4-.18-58.8,0c-2.52,0-3.43-.53-3.43-3.27q.12-75.39,0-150.78c0-2.45.73-3.44,3.1-3.29,2.63.17,5.81-2.19,7.53-.67s1.51,4.9,2.16,7.47q11.49,45.77,48.51,75c2.95,2.33,4.38,4.63,4.25,8.58C217.38,317.82,217.61,328.1,217.61,338.36Zm-39.2-17.5c0-5.72,0-11.44,0-17.16a13.39,13.39,0,0,0-.86-5.07c-1.16-2.95-3.46-3.83-6.41-3.42s-4.69,2.1-4.7,5c-.08,13.7-.13,27.41,0,41.11,0,3.09,1.7,5.17,5.32,5.09,4.26-.09,6.49-2.43,6.57-7.61C178.49,332.83,178.41,326.84,178.41,320.86Z"/><path class="cls-6" d="M392.14,397.58H360.58c-1.76,0-3.38.34-3.22-2.53,1.32-23,3.35-45.91,11.52-67.76a65.93,65.93,0,0,1,11.2-19.67c1.57-1.87,2.56-2,4.38-.27,24.56,22.9,39,50.79,42.06,84.4.53,5.83.49,5.83-5.21,5.83Z"/><path class="cls-7" d="M443,326.56a87.37,87.37,0,0,0-15-11.14,69.73,69.73,0,0,0-20.71-8.17,24.55,24.55,0,0,1-13.53-7.5c-5.66-5.86-5.8-5.55-.05-11.26a133.65,133.65,0,0,0,37.31-68.38c.73-3.48,1.48-4.47,5.3-3.49,6.57,1.7,6.66,1.33,6.66,8.13Z"/><path class="cls-8" d="M327.56,337.65a339.85,339.85,0,0,0-6.8,57c-.06,2.16-.61,3-2.95,3q-20.19-.17-40.38,0c-2.33,0-2.89-.8-3-3a346.12,346.12,0,0,0-6.75-57c9.94,1.35,19.79,3.22,29.92,3.23S317.61,338.89,327.56,337.65Z"/><path class="cls-6" d="M229.62,339.33c3.47,10,5.11,20.36,6.32,30.76.94,8.07,1.6,16.17,1.92,24.3.1,2.37-.32,3.26-2.93,3.25q-32-.15-64,0c-2.22,0-3-.45-2.71-2.9,1-8.25.87-8.26,9.41-8.26q19.2,0,38.39,0c9.33,0,13.57-4.31,13.58-13.75Q229.64,356,229.62,339.33Z"/><path class="cls-6" d="M419.22,330.39c-1.5-2.19-3-4.37-4.49-6.58a6.57,6.57,0,0,1-.38-1.52A58.79,58.79,0,0,1,437,337.85c11.06,12.12,16.51,26.79,19,42.74.59,3.81.92,7.66,1.31,11.49s-.94,5.41-4.84,5.49c-2.26,0-4.53-.07-6.79-.11-.29-2.76-.43-5.55-.91-8.27-3.59-20.38-10.62-39.4-22.62-56.42C421.34,331.69,420.87,330.35,419.22,330.39Z"/><path class="cls-6" d="M253.53,332c3,9.55,4.55,19.38,6,29.25,1.62,11.09,2.34,22.24,3,33.41.13,2.21-.36,2.94-2.73,3-9.74.19-9.67.28-10.3-9.62-1.32-20.62-3.92-41-10.2-60.84,2-.21,3.42,1.08,5.09,1.75C247.37,330.16,250.13,332,253.53,332Z"/><path class="cls-6" d="M355.94,327.19c-6.7,21.37-9.43,43.37-10.34,65.64-.15,3.65-1,5-5,4.86-8.16-.35-8.13-.09-7.67-8.23a316.47,316.47,0,0,1,7.18-52.54c.38-1.67,1-3.28,1.57-4.92a11.88,11.88,0,0,0,4.14-.86C349.34,330.12,352.18,327.46,355.94,327.19Z"/><path class="cls-9" d="M327.56,337.65c-9.95,1.24-19.79,3.23-29.92,3.23s-20-1.88-29.92-3.23c-1.17-4.21-2.33-8.41-3.72-13.39,22.47,5.16,44.47,5.41,67.2-.11Z"/><path class="cls-10" d="M434.32,198.51c0-3.26.14-7.76-.06-12.26-.1-2.35,1-3.3,2.94-4a11.7,11.7,0,0,1,13.13,4.06,11.5,11.5,0,0,1,.05,14.05,11.72,11.72,0,0,1-13.5,4C434.72,203.64,433,202.49,434.32,198.51Z"/><path class="cls-10" d="M160.92,198.29c1.2,3.89-.12,5.23-2.41,6.1a11.81,11.81,0,0,1-13.36-3.61,11.51,11.51,0,0,1-.45-14.11,11.65,11.65,0,0,1,13.05-4.47c2.15.66,3.35,1.63,3.23,4.19C160.76,190.77,160.92,195.17,160.92,198.29Z"/><path class="cls-10" d="M419.22,330.39c1.65,0,2.12,1.3,2.88,2.38,12,17,19,36,22.62,56.42.48,2.72.62,5.51.91,8.27-6.28.32-6.42.33-6.93-5.86A139.35,139.35,0,0,0,420,332.2,13,13,0,0,1,419.22,330.39Z"/><path class="cls-11" d="M160.88,157c0,3.73-.07,7.46,0,11.18,0,1.78-.43,2.33-2.28,1.87a18.5,18.5,0,0,0-8.31-.08c-.89.18-2,.68-2.06-.83-.18-7.33-.72-14.76,4.86-20.74a13.27,13.27,0,0,1,1.42-1.39c1.76-1.39,3.74-3.81,5.72-3s.51,3.78.63,5.78c.15,2.38,0,4.79,0,7.18Z"/><path class="cls-11" d="M434.22,156.83c0-3.6.12-7.19,0-10.78-.11-2.61.94-2.63,2.79-1.64a18.44,18.44,0,0,1,9.28,11.46c1.22,4.15.75,8.46.81,12.71,0,1.46-.55,1.86-1.94,1.47a14.55,14.55,0,0,0-7.52-.16c-2.71.68-3.47.06-3.3-2.69.21-3.44.05-6.91.05-10.37Z"/><path class="cls-10" d="M253.53,332c-3.4,0-6.16-1.84-9.14-3.06-1.67-.67-3.12-2-5.09-1.75-1.69-4.89-4.47-9.36-5.65-14.45l-.05.07c5.08,2.15,10.16,4.32,15.25,6.45,1.48.62,1.59,2.05,2,3.26C251.81,325.65,253.26,328.66,253.53,332Z"/><path class="cls-10" d="M355.94,327.19c-3.76.27-6.6,2.93-10.09,3.95a11.88,11.88,0,0,1-4.14.86c.39-3.86,2.14-7.32,3.2-11a2.59,2.59,0,0,1,1.49-1.75l15.24-6.46-.06-.07C360.43,317.84,357.64,322.31,355.94,327.19Z"/><path class="cls-6" d="M149.6,397.46c-2.51,0-5,.1-7.53.11-2.77,0-4.4-1.55-4.18-4.18.46-5.51.55-11.1,2.43-16.87,1.45,6.07,5.1,9.27,10.88,10.05Q150.4,392,149.6,397.46Z"/><path class="cls-10" d="M149.6,397.46q.79-5.44,1.6-10.89c6.09-.28,6.09-.28,5.38,5.49S155.87,397.78,149.6,397.46Z"/><path class="cls-12" d="M233.65,312.74l-.54-.14c.46-.63.41-.05.49.21Z"/><path class="cls-12" d="M361.64,312.81l.34-.52.15.31-.55.15Z"/><path class="cls-2" d="M210.55,148A20.89,20.89,0,0,1,231.47,168c.13,3.88-1.79,6.54-5.21,6.77s-5.7-1.49-6.5-5.07c-.42-1.91-.48-3.94-1.78-5.65-2.11-2.79-4.85-4.23-8.26-3.76a8.19,8.19,0,0,0-7.36,6.35c-.23.9-.43,1.81-.64,2.72-.89,3.87-3.29,5.85-6.57,5.43-3.5-.44-5.55-3.29-5.21-7.23A21,21,0,0,1,210.55,148Z"/><path class="cls-2" d="M363.74,168.06a21,21,0,0,1,20.86-20c11.06.05,20.54,9.25,20.78,20.18.08,3.46-2,6-5.18,6.52s-5.75-1.42-6.61-4.91a23.33,23.33,0,0,0-1.16-4.62,8.57,8.57,0,0,0-8.38-5,8.7,8.7,0,0,0-8,6.68c-.22.9-.38,1.82-.61,2.72-1,3.87-3.41,5.75-6.75,5.13C365.05,174,363.67,171.55,363.74,168.06Z"/><path class="cls-4" d="M297.43,200.84a25.42,25.42,0,0,1-19.09-9.42c-2.4-2.92-2.09-6.12.63-8.49,2.45-2.14,5.5-1.93,8.17.57,7.76,7.27,13.2,7.27,21,0,2.67-2.5,5.71-2.72,8.17-.57,2.71,2.37,3,5.58.62,8.48A25.28,25.28,0,0,1,297.43,200.84Z"/><path class="cls-4" d="M210.7,188.76c4,0,8-.06,12,0s6.72,2.29,6.91,5.68a6,6,0,0,1-6,6.17q-12.75.38-25.51,0a5.84,5.84,0,0,1-6-6.55c.22-3.14,2.84-5.25,6.71-5.29S206.71,188.76,210.7,188.76Z"/><path class="cls-4" d="M384.58,188.76c4.12,0,8.25-.06,12.37,0,3.55.06,6.12,2.27,6.25,5.33.16,3.65-1.79,6.19-5.24,6.32-8.88.35-17.8.42-26.68.07a5.55,5.55,0,0,1-5.59-6.1c.11-3.26,2.73-5.53,6.53-5.62C376.34,188.68,380.46,188.76,384.58,188.76Z"/><path class="cls-13" d="M318.25,61.35a48.49,48.49,0,0,1-8.63,15c-15,18.18-35.44,27.27-57.24,34.12-8.49,2.67-17.14,4.57-25.82,6.41-4.53,1-7.69-.32-8.72-3.81s1.09-6.62,5.67-7.62c11.79-2.59,23.5-5.43,34.85-9.58,13.81-5,26.82-11.57,37.54-21.88a45.41,45.41,0,0,0,10.7-15.67c1.2-2.93,3.24-5.54,7-4.57C316.56,54.55,318.83,56.4,318.25,61.35Z"/><path class="cls-13" d="M202.08,94.37c-1.46,0-2.94.11-4.39,0a4.94,4.94,0,0,1-4.82-4.51c-.47-2.91.28-5.34,3.22-6.54a13.17,13.17,0,0,1,4.65-1,97.87,97.87,0,0,0,52.07-16.44c1-.66,1.95-1.38,3-2,3.45-2.23,7.13-1.94,8.91.68,1.89,2.79,1.1,6.74-2,9.1a93,93,0,0,1-19.38,11A113.54,113.54,0,0,1,202.08,94.37Z"/><path class="cls-13" d="M178.41,320.86c0,6,.08,12,0,18-.08,5.18-2.31,7.52-6.57,7.61-3.62.08-5.29-2-5.32-5.09-.16-13.7-.11-27.41,0-41.11,0-2.92,1.79-4.61,4.7-5s5.25.47,6.41,3.42a13.39,13.39,0,0,1,.86,5.07C178.37,309.42,178.41,315.14,178.41,320.86Z"/><text class="cls-14" transform="translate(0 457.71)">ВООБРАЖАРИУМ</text></g></g></svg>