<svg xmlns="http://www.w3.org/2000/svg" viewBox="0 0 391.72 512"><defs><style>.cls-1{fill:#d9397d;}.cls-2{fill:#e179b1;}.cls-3{fill:#633340;}.cls-4{fill:#7e3d4a;}</style></defs><title>Ресурс 1</title><g id="Слой_2" data-name="Слой 2"><g id="Слой_1-2" data-name="Слой 1"><path class="cls-1" d="M391.72,393V358c-2.87-5.77-2.31-12.2-3.5-18.29A216.82,216.82,0,0,0,351,253.42a210.61,210.61,0,0,0-57.94-54.95c-10.69-6.81-22.15-12-33.57-17.34l-63.77-.3,0,.33,0,60.68c10.31,1.49,14.94,6.73,15,17,0,4.66.3,9.34-.09,14s1.18,7,5.51,9c18.85,8.87,28.9,30.84,23,51.87-4.9,17.48-22.85,33.31-43.31,32.57-.05.25-.11.51-.18.76v29.43c9.89-1.29,14.06-5.47,15.21-15.25s7.31-14.89,16.95-14.29c7.81.48,13.19,7,13,16-.39,15.29-7,27.84-20,35.24-8.39,4.79-10.94,10-10.26,19.07.65,8.59-5.91,14.32-14.78,14.67l0,.33q0,29.93,0,59.84h33c7.27-2.59,15-1.91,22.46-2.81,23.9-2.87,47.25-7.67,69.4-17.44,35.5-15.66,58.83-41.49,67.48-79.89C389.47,405.59,389.39,399.06,391.72,393Z"/><path class="cls-1" d="M191,235.28c-1.21,23.47,5.47,218,5.47,218L248,431.92l12.13-42.68,3.64-52.44s-25.48-29.59-24.88-34.61-11.6-43.44-11.6-43.44-23-18-23.59-20.3S191,235.28,191,235.28Z"/><path class="cls-2" d="M0,393V358c2.87-5.77,2.3-12.2,3.49-18.29a216.7,216.7,0,0,1,37.22-86.29,210.47,210.47,0,0,1,57.94-54.95c10.68-6.81,22.14-12,33.56-17.34l63.78-.3,0,.33,0,60.68c-10.31,1.49-14.94,6.73-15,17,0,4.66-.3,9.34.08,14s-1.17,7-5.5,9c-18.86,8.87-28.9,30.84-23,51.87,4.9,17.48,22.85,33.31,43.32,32.57.05.25.11.51.18.76v29.43c-9.89-1.29-14.06-5.47-15.21-15.25s-7.31-14.89-17-14.29c-7.81.48-13.19,7-13,16,.39,15.29,7,27.84,20,35.24,8.39,4.79,10.94,10,10.25,19.07-.64,8.59,5.91,14.32,14.78,14.67l0,.33q0,29.93,0,59.84H163c-7.27-2.59-15-1.91-22.46-2.81-23.91-2.87-47.26-7.67-69.41-17.44C35.64,476.09,12.3,450.26,3.66,411.86,2.25,405.59,2.33,399.06,0,393Z"/><path class="cls-1" d="M203,0c5.17,2,10.67,3.07,15.5,6.05,8.17,5,14.49,11.65,18.3,20.45,1.17,2.69,2.59,3.6,5.51,3.57,14.13-.16,28.26-.1,42.4-.06,12.16,0,18.94,9.15,15.19,20.75-7.6,23.47-15.38,46.88-23.09,70.31L196,120.84Q196,60.42,196,0Z"/><path class="cls-2" d="M196,0q0,60.42,0,120.84l0,.33-80.61,0c-7.52-22.88-14.54-45.94-22.73-68.56-5.14-14.2,5-23.42,16.48-22.8,13.6.73,27.28.12,40.92.21,2.4,0,3.89-.47,5-2.92C161.31,12.89,172.25,4.28,187.41.94A6.21,6.21,0,0,0,189,0Z"/><path class="cls-3" d="M196,120.84l80.79.23c8.68,3,16.16,7.34,20.69,15.85,10.44,19.6-3.56,43.65-25.77,44.07-4,.07-8,.1-12,.14l-63.76,0,0-.33V121.17Z"/><path class="cls-4" d="M196,121.17v59.66l-63.78.3-10-.13c-16.3-.21-28.59-10.59-30.95-26.14-2.15-14.29,6.76-27.65,21.82-32.72.77-.26,1.51-.63,2.27-1Z"/><path class="cls-4" d="M195.89,366.24c-20.47.74-38.42-15.09-43.32-32.57-5.89-21,4.15-43,23-51.87,4.33-2,5.88-4.43,5.5-9s-.1-9.31-.08-14c.05-10.24,4.68-15.48,15-17l0,.3q0,32.22,0,64.45l0,.41c-8.54-.1-15,5.94-15.06,14.19-.1,8.56,6.18,14.76,15,14.85l0,.45Q195.95,351.35,195.89,366.24Z"/><path class="cls-3" d="M195.89,366.24q0-14.88.1-29.75c17,.61,30.2,7.94,38.82,22.76a44.22,44.22,0,0,1-19.09,62.21c-3.81,1.84-5.24,4-4.76,7.93a49.69,49.69,0,0,1,0,6c0,10.37-4.74,15.66-15,16.79l0-.33q0-27.7.08-55.4V396c8.85-.53,14.11-5.95,14.1-14.55s-5.08-14-14.1-14.45C196,366.75,195.94,366.49,195.89,366.24Z"/><path class="cls-4" d="M196.07,396.43q0,27.7-.08,55.4c-8.87-.35-15.42-6.08-14.78-14.67.69-9.06-1.86-14.28-10.25-19.07-13-7.4-19.62-19.95-20-35.24-.23-9,5.15-15.48,13-16,9.64-.6,15.81,4.61,17,14.29S186.18,395.14,196.07,396.43Z"/><path class="cls-1" d="M196.07,367c9,.49,14.1,5.7,14.1,14.45s-5.25,14-14.1,14.55Z"/><path class="cls-3" d="M196,306.59q0-32.22,0-64.45c8.83.13,14.83,5.89,15,14.53.1,6.17.13,12.34,0,18.5-.07,2.65.68,4.2,3.24,5.39,16.05,7.39,24.51,20.32,26.62,37.59,1.18,9.66-4.67,17.32-13.9,18.59-7.35,1-14.48-5.26-16.24-14.28C208.48,311.17,205.89,308.37,196,306.59Z"/><path class="cls-2" d="M196,336c-8.86-.09-15.14-6.29-15-14.85.1-8.25,6.52-14.29,15.06-14.19Q196,321.52,196,336Z"/></g></g></svg>