<svg xmlns="http://www.w3.org/2000/svg" viewBox="0 0 409.61 409.9"><defs><style>.cls-1{fill:#7e3d4a;}.cls-2{fill:#f4dce0;}.cls-3{fill:#e577a0;}.cls-4{fill:#f9bbc6;}</style></defs><title>Ресурс 1</title><g id="Слой_2" data-name="Слой 2"><g id="Слой_1-2" data-name="Слой 1"><path class="cls-1" d="M0,310.7c.63-.12.76-.6.89-1.14,4.94-20.88,19.47-34,36.67-44.77C63,248.93,91.22,240.58,120.3,234.71c7.43-1.5,14.92-2.69,22.94-4.12-1.25-1.62-2.34-3-3.41-4.43-12.15-16.18-26-31.11-36.4-48.56-14.15-23.84-19.26-49.73-14.88-77.19,6-37.76,26-66.31,59.07-85.09,27.65-15.68,57.47-19.5,88-10.63C279.58,17.46,307.88,46.58,319,91c8.59,34.41,1.81,66.7-18.89,95.53-11.73,16.33-24.56,31.87-36.88,47.77-.89,1.15-1.68,2.37-2.52,3.56l-16.25,20.39a242.29,242.29,0,0,1,33,6.22c14.07,3.76,27.79,8.39,39.07,18.13,12.46,10.77,13,25.36,1.36,36.82-8.77,8.63-19.86,13.17-31.3,16.87-22.61,7.3-46,9.88-69.58,10.74-28.08,1-55.89-.9-83.22-7.66-14-3.46-27.53-8.17-39.09-17.26-14.46-11.35-15.07-27.21-1.51-39.5A57.45,57.45,0,0,1,105,274.57c6.22-3.31,9.08-2.8,13.38,2.56.87,6.19,0,8.13-5.19,11.18a81.93,81.93,0,0,0-7.1,4.43c-9,6.64-8.86,11.68.31,18.22,6.68,4.76,14.21,7.75,22,10.18,21.26,6.65,43.15,9.17,65.31,10,26.89,1,53.51-1,79.64-7.66,11.36-2.88,22.56-6.49,31.86-14.09,6.87-5.62,6.67-10.49-.44-15.82a69.37,69.37,0,0,0-17.59-9.23c-16.84-6.29-34.41-9.08-52.17-11-2-.23-2.87.83-3.86,2.1Q221.94,287.2,212.71,299c-5.53,7.09-10.44,7.08-16,0q-13.09-16.61-26.21-33.2c-4.44-5.81-9-11.54-13.25-17.48-1.65-2.3-3.43-2.8-6.06-2.46C121.5,249.7,92.47,256,65,268.27c-14.18,6.33-27.46,14.08-38.15,25.67-14,15.16-14.26,32.1-.82,47.61,9.26,10.69,20.92,18.07,33.45,24.12,33.81,16.32,70,23.32,107.06,26.57a433,433,0,0,0,103.24-3.17c28.27-4.3,55.79-11.22,81.55-24,12.6-6.24,24.4-13.73,33.35-24.88,6.56-8.17,10.69-17.19,8.12-28.05-2.76-11.67-10.43-19.85-19.49-27-14.53-11.4-31.23-18.55-48.45-24.7-6.68-2.38-7.81-4.3-7.22-11.33,3.53-5,6.42-5.9,12.25-3.84,18.12,6.37,35.69,13.83,51.12,25.55,11.51,8.74,21.4,18.9,26.08,33,6,18.06.86,33.82-11,47.78-10,11.75-22.59,20.16-36.22,27-28.07,14.15-58.1,21.78-89,26.41a402.74,402.74,0,0,1-41.31,4c-.64,0-1.36-.12-1.58.77H180c-.88-1.54-2.38-.78-3.57-.86-25-1.65-49.76-4.9-74.06-11.18-26.92-7-52.83-16.27-75.21-33.38C16.45,356.29,7.5,346.59,2.71,333.62c-1-2.81-1.09-5.91-2.71-8.52ZM306.39,117.81c-1-27.83-9.67-50.79-27.85-69.34-29.4-30-65.13-39.78-105-26.92-38.83,12.52-62.13,40.48-69.1,80.86-4.69,27.09,1.2,52.56,17.68,74.49,26.33,35,53.7,69.28,80.57,103.9,1.61,2.07,2.34,2.11,4,0,26.85-34.63,54.07-69,80.6-103.86C300.86,159.1,306.5,138.29,306.39,117.81Z"/><path class="cls-2" d="M118.38,277.13c-4.3-5.36-7.16-5.87-13.38-2.56a57.45,57.45,0,0,0-11.85,8.05c-13.56,12.29-13,28.15,1.51,39.5,11.56,9.09,25.09,13.8,39.09,17.26,27.33,6.76,55.14,8.68,83.22,7.66,23.62-.86,47-3.44,69.58-10.74,11.44-3.7,22.53-8.24,31.3-16.87,11.66-11.46,11.1-26.05-1.36-36.82-11.28-9.74-25-14.37-39.07-18.13a242.29,242.29,0,0,0-33-6.22l16.25-20.39,20.68,3.22c.22,5.52,2.08,8.36,6.18,9.44,3.86,1,7.19-.85,9.84-5.55,5.44.15,10.42,2.34,15.63,3.55a23.64,23.64,0,0,0,4.64.63c-.59,7,.54,9,7.22,11.33,17.22,6.15,33.92,13.3,48.45,24.7,9.06,7.11,16.73,15.29,19.49,27,2.57,10.86-1.56,19.88-8.12,28.05-8.95,11.15-20.75,18.64-33.35,24.88-25.76,12.77-53.28,19.69-81.55,24a433,433,0,0,1-103.24,3.17C129.49,389,93.29,382,59.48,365.67,47,359.62,35.29,352.24,26,341.55c-13.44-15.51-13.16-32.45.82-47.61,10.69-11.59,24-19.34,38.15-25.67,27.47-12.25,56.5-18.57,86.18-22.38,2.63-.34,4.41.16,6.06,2.46,4.26,5.94,8.81,11.67,13.25,17.48a230.5,230.5,0,0,0-26.14,4.05,9.37,9.37,0,0,0-4.25-5.45c-4.53-2.45-12.57.25-11.42,9.42C125,274.29,121.85,276.15,118.38,277.13Z"/><path class="cls-1" d="M297.37,245c-2.65,4.7-6,6.58-9.84,5.55-4.1-1.08-6-3.92-6.18-9.44,2.26-4.91,5.72-7.1,9.71-6.14C295.45,236,297.52,239.31,297.37,245Z"/><path class="cls-3" d="M306.39,117.81c.11,20.48-5.53,41.29-19.1,59.12-26.53,34.87-53.75,69.23-80.6,103.86-1.65,2.12-2.38,2.08-4,0-26.87-34.62-54.24-68.87-80.57-103.9-16.48-21.93-22.37-47.4-17.68-74.49,7-40.38,30.27-68.34,69.1-80.86,39.86-12.86,75.59-3.08,105,26.92C296.72,67,305.43,90,306.39,117.81Zm-51-37a18.61,18.61,0,0,0,2.18-3.73,7.54,7.54,0,0,0-2.81-8.8c-3.27-2.51-6.33-2.23-10.86.89a58.45,58.45,0,0,0-13.45-7.85c.77-6.29-.85-9.26-6.13-10.73-16.08-4.48-32-3.8-47.29,2.84-31.25,13.6-47.67,43-43.44,76.78,5.46,43.55,52.33,72.21,94,57.88,34.51-11.86,55.93-48.52,47-85-1.94-7.91-3.76-9.52-11.33-9.12A61.24,61.24,0,0,0,255.36,80.79Z"/><path class="cls-4" d="M144.35,269.88a230.5,230.5,0,0,1,26.14-4.05q13.11,16.6,26.21,33.2c5.57,7.05,10.48,7.06,16,0q9.22-11.81,18.42-23.64c1-1.27,1.83-2.33,3.86-2.1,17.76,2,35.33,4.75,52.17,11a69.37,69.37,0,0,1,17.59,9.23c7.11,5.33,7.31,10.2.44,15.82-9.3,7.6-20.5,11.21-31.86,14.09-26.13,6.62-52.75,8.62-79.64,7.66-22.16-.79-44.05-3.31-65.31-10-7.77-2.43-15.3-5.42-22-10.18-9.17-6.54-9.26-11.58-.31-18.22a81.93,81.93,0,0,1,7.1-4.43c5.14-3.05,6.06-5,5.19-11.18,3.47-1,6.66-2.84,10.3-3.28,2.67,4.49,5.93,6.35,9.51,5.43C142.23,278.24,144.11,275.37,144.35,269.88Z"/><path class="cls-1" d="M144.35,269.88c-.24,5.49-2.12,8.36-6.16,9.4-3.58.92-6.84-.94-9.51-5.43-1.15-9.17,6.89-11.87,11.42-9.42A9.37,9.37,0,0,1,144.35,269.88Z"/><path class="cls-1" d="M230.42,61.3c-3.33,5-5.59,5.65-12.33,4.18-21.74-4.74-40.55.8-55.29,17.42-14.45,16.28-18,35.49-10.59,55.87,7.27,20,22,32.46,43.16,36,34.63,5.75,64.92-20,65.3-55.1a58,58,0,0,0-1.91-14.21c-1.37-5.75-.35-8.15,4.48-11.5,7.57-.4,9.39,1.21,11.33,9.12,8.93,36.5-12.49,73.16-47,85-41.68,14.33-88.55-14.33-94-57.88C129.33,96.44,145.75,67,177,53.41c15.26-6.64,31.21-7.32,47.29-2.84C229.57,52,231.19,55,230.42,61.3Z"/><path class="cls-1" d="M255.36,80.79c-4.8,2.37-8.42,2.11-11.13-.8s-2.82-6.38-.36-10.84c4.53-3.12,7.59-3.4,10.86-.89a7.54,7.54,0,0,1,2.81,8.8A18.61,18.61,0,0,1,255.36,80.79Z"/></g></g></svg>