<svg xmlns="http://www.w3.org/2000/svg" viewBox="0 0 409.63 409.55"><defs><style>.cls-1{fill:#7e3d4a;}.cls-2{fill:#cf3b68;}.cls-3{fill:#fdcbab;}.cls-4{fill:#fccbaa;}.cls-5{fill:#e27da4;}.cls-6{fill:#fecedb;}.cls-7{fill:#fac9a9;}.cls-8{fill:#d4aedd;}.cls-9{fill:#f7ae83;}.cls-10{fill:#bbb;}</style></defs><title>Ресурс 1</title><g id="Слой_2" data-name="Слой 2"><g id="Слой_1-2" data-name="Слой 1"><path class="cls-1" d="M235.2,409.55c-5.65-3.42-6.63-5.81-5.15-12.54,4.95-22.6,8.72-45.47,14.76-67.82,6.59-24.4,20.28-44.37,40-60.06,11.16-8.86,23.3-16.38,35.19-24.2,11.74-7.71,24.07-6.55,35.48,2.85,1-1.32.47-2.81.47-4.15,0-30.12,0-60.24.05-90.37,0-12.92,7-23,18.28-26.71,17.81-5.87,35.16,7.17,35.26,26.66.11,22.79,0,45.59,0,68.38,0,17.59-.07,35.19,0,52.78a79.22,79.22,0,0,1-15,47.5q-29.38,41.34-58.7,82.73a16.8,16.8,0,0,1-5.54,4.95h-4.8c-2.82-2-5.12-4.34-5.46-8a18.81,18.81,0,0,1,3.35-7.14c18.61-26.15,37-52.46,55.84-78.45a73.3,73.3,0,0,0,14.36-45.1c-.3-37.19-.09-74.39-.1-111.58,0-2.8.15-5.62-.11-8.39a10.65,10.65,0,0,0-21-1.14,24.74,24.74,0,0,0-.41,5.16c0,30.79-.21,61.59.05,92.38.16,17.2-5.65,31.66-17.52,44-11.65,12.1-23.05,24.44-34.59,36.64A18.44,18.44,0,0,1,316.4,331a7.8,7.8,0,0,1-11.78-6.16c-.26-3.42,1.63-5.73,3.77-8,12.06-12.81,24.15-25.59,36.14-38.47,5-5.4,5.18-12.8.67-18.17-4.24-5.05-10.91-5.62-17.27-1.38q-12.94,8.64-25.85,17.39c-16.46,11.19-29.05,25.67-37.2,43.92-4.71,10.53-7,21.74-9.27,33q-5,24.24-9.94,48.45a11,11,0,0,1-6.47,8Z"/><path class="cls-1" d="M0,145.55c1.17-.21,1.22-1.27,1.54-2.1,5.07-13.29,17.06-20.26,30.61-17.79,12.44,2.27,21.36,13.41,21.4,27.15.08,30.12,0,60.25,0,90.38v5c4.79-4.21,9.68-6.86,15.44-7.81,6-1,11.89-.49,17,2.65,14.85,9.13,29.72,18.32,43,29.7,21.21,18.21,33.5,41.59,39,68.82,3.73,18.51,7.69,37,11.59,55.46,1.42,6.75.5,9.13-5.16,12.55h-4.8a13,13,0,0,1-5.67-8,10.33,10.33,0,0,0-.07-1.58c-3.73-17.84-7.68-35.64-11.16-53.53-4.84-24.88-15.71-46.31-35.36-62.7-11.77-9.82-25-17.63-37.73-26.15a10.44,10.44,0,0,0-8.46-1.3c-10,2.39-13.34,14.24-6.05,22.12,11.77,12.72,23.72,25.28,35.57,37.92a25.89,25.89,0,0,1,3.25,4,7.32,7.32,0,0,1,0,7.94,7.55,7.55,0,0,1-7,3.84c-3.11,0-5.14-1.89-7.09-4-11.78-12.52-23.51-25.1-35.38-37.55-11.49-12.07-17.06-26.27-16.94-43,.22-31.46.09-62.93,0-94.39,0-7.24-4.67-12.15-11-12S16,146.12,16,153.31q0,60.8,0,121.6a61.85,61.85,0,0,0,9.29,33.38c4.66,7.47,10,14.42,15,21.67,3.81,5.55,3.77,8-.38,13.15-6.11,2.42-8.72,1.67-12.56-3.72s-7.67-10.87-11.55-16.26A85.49,85.49,0,0,1,3,297.23c-1.06-3.61-.84-7.57-3-10.88Z"/><path class="cls-1" d="M89.47,401.52c-.48,3.94-2.73,6.49-6.27,8h-4c-3.41-1.59-5.32-4.62-7.36-7.56-2.65-3.82-5.42-7.57-8.07-11.39-3.3-4.75-3.18-7.64.38-12.22,5.8-2.89,9-2.12,12.81,3.18,2.56,3.53,5.05,7.09,7.58,10.64C86.59,395.09,88.89,397.85,89.47,401.52Z"/><path class="cls-1" d="M183.48,244.68c-1.29,5.64-3.61,7.79-9.34,7.83q-22.78.17-45.58,0c-6.16-.05-9.17-3.32-9.23-9.57-.09-9.06-.14-18.13.06-27.19.06-2.59-.7-3.06-3.08-3-10.53.13-21.07.08-31.6,0-7,0-10-3-10-9.94,0-8.76-.82-17.68,2.45-26.08,5.07-13,14.83-20.75,28.31-23.94,3.37-.8,6.72-1.66,10.09-2.39s2.84-2.22,1-4.07c-.84-.85-1.84-1.54-2.71-2.36-6-5.7-10.13-12.57-10.74-20.83-.88-11.77-2-23.67,1.58-35.27C111.5,66,139.51,56.59,158.22,70c2.75,2,3.57,1.9,5.25-1.24,8.85-16.57,22.92-25.54,41.67-25.42,18.53.11,32.4,9,41.34,25.42.7,1.29.54,4.51,3.81,2.08,22.2-16.55,54.29-2.41,56.59,25.73.75,9.14,1,18.38-.34,27.52-1.26,8.67-5.62,15.66-12.22,21.33-1.06.91-2.63,1.49-2.36,3.37.31,2.2,2.26,1.54,3.48,1.86,7.82,2.08,16,3.25,22.82,8,11,7.59,16.31,18.29,16.78,31.49.16,4.53.15,9.07,0,13.6q-.3,9-9.33,9c-10.8.07-21.6.09-32.39,0-2.37,0-3.17.41-3.11,3,.21,8.79.11,17.59.08,26.39,0,7.35-3.05,10.38-10.45,10.4q-22.2.06-44.39,0c-6.35,0-8.84-2-10.13-7.86,1.07-5.92,3.45-8,9.39-8.13a40.26,40.26,0,0,1,4.79,0c2.25.22,3-.56,2.95-2.88-.17-4.26-.13-8.53,0-12.79.12-5.23,3.31-8.79,7.81-8.9s8,3.56,8.15,9c.09,4.13.13,8.27,0,12.39-.09,2.31.35,3.43,3,3.24a85.37,85.37,0,0,1,10,0c2.23.1,3-.59,3-2.91-.15-5.86.09-11.73-.09-17.59-.52-16.78-10.43-28.93-26.73-32.93-6-1.46-12-2.64-17.84-4.32-2.43-.69-3.22,0-4.1,2.08-4.14,9.65-8.48,19.21-12.62,28.86-1.6,3.72-3.81,6.44-8.19,6.42s-6.53-2.82-8.11-6.51c-4.15-9.65-8.5-19.21-12.61-28.87-.92-2.16-1.82-2.65-4.15-2-6,1.66-12.17,2.85-18.22,4.4-11.76,3-20.12,10-24.36,21.5-2.29,6.26-2.17,12.83-2,19.36.12,4.06-1.85,9.62.87,11.78s7.91.46,12,.75c2.64.18,3.12-.9,3-3.22-.17-4-.1-8,0-12,.08-5.71,3.39-9.48,8.15-9.37s7.75,3.76,7.83,9.28c.06,4.27.09,8.54,0,12.8,0,1.93.62,2.64,2.52,2.48a43.05,43.05,0,0,1,4.4,0C180,236.69,182.36,238.71,183.48,244.68ZM234.32,84a5,5,0,0,0,.42.49c.43-.31.29-.6-.09-.85-.8-6.54-4.11-11.8-8.83-16.09-9.58-8.7-20.74-10.86-32.62-5.93-11.54,4.79-17.84,13.91-18.8,26.49-.1,1.29-.86,2.92,1.71,3.07,13.25.72,25.5-1.14,35-11.74,3.83-4.28,6.95-4.42,12.1-1.59C226.91,79.93,230.29,82.58,234.32,84Zm1.26,28.24c0-8.54,0-8.54-6.38-12.29-2.53-1.48-5.14-2.82-7.55-4.48-1.87-1.29-3.09-1.05-4.83.38a49.6,49.6,0,0,1-32.09,11.3c-11.09.06-11.27.11-10.25,11.18,1.09,11.88,7.34,20.53,18.15,25.29,10.66,4.69,21.15,3.48,30.58-3.54C232.81,133,236.21,123,235.58,112.28Zm-75.69,54.31c-3.08-.73-6-1.48-9-2.13-4.77-1.05-8.09-3.47-8.15-8.79,0-1.86-.82-2.25-2.44-2.07a14.87,14.87,0,0,1-3.59,0c-2.16-.31-3.07.28-3.08,2.68,0,4.32-2.57,6.8-6.65,7.8-5.55,1.35-11.12,2.66-16.68,4-13.92,3.33-19.84,11-19.73,25.37,0,2.53.56,3.45,3.29,3.39,8.79-.18,17.59-.15,26.38,0a4,4,0,0,0,4.22-2.64c6.38-13,16.6-21.52,30.49-25.7C156.56,168,158.42,168,159.89,166.59Zm89.74.08a7.89,7.89,0,0,0,1.55.86c15.78,3.89,27.5,12.83,34.46,27.67a2.66,2.66,0,0,0,2.84,1.6c9.45,0,18.9,0,28.34,0,1.35,0,2.08-.19,2.3-1.89,1.61-12.78-5.33-23.07-17.93-26.26-5.92-1.5-11.88-2.84-17.79-4.37-5.27-1.35-7-3.17-7.37-8.45-.16-2.1-1-2.4-2.7-2.21a10.94,10.94,0,0,1-3.18,0c-2.39-.43-3.17.36-3.28,2.86-.18,4-2.63,6.53-6.55,7.52C256.85,164.88,253.38,165.73,249.63,166.67Zm-91.47-51.95c0-6.17,0-6.17-5.78-4.2-.75.26-1.52.47-2.28.7-9.29,2.8-18.83,3.14-28.43,3-1.42,0-3.07-.68-3.28,2.06-1,13.6,12.34,24.53,25.4,20.57C153.38,134,158.15,126.62,158.16,114.72Zm93.67-6.18c0,4.2-.24,7.66,0,11.08.94,11.31,10.18,18.87,21.7,17.95,10.19-.81,18.2-10.44,17.67-21.08-.08-1.69-.46-2.33-2.24-2.27C276.42,114.58,264,113.66,251.83,108.54Zm31.39-10.3a42.29,42.29,0,0,1,4.78,0c2.82.31,3.34-.7,2.62-3.34-2.22-8.09-7.43-13.08-15.48-14.84a19.76,19.76,0,0,0-20.39,8.65c-1.45,2.22-1.13,3.11,1.36,4.24C264.76,96.92,273.86,98.19,283.22,98.24Zm-156.75,0c9.4,0,18.52-1.35,27.21-5.27,2.71-1.22,2.59-2.32,1.15-4.34-4.86-6.85-11.5-9.89-19.72-8.57-7.9,1.26-13.16,6.08-15.71,13.66-1.48,4.4-1.3,4.52,3.47,4.52C124.07,98.25,125.27,98.24,126.47,98.24Zm78.36,90.25c3.26-7.45,6.11-14,9-20.47.57-1.29.32-2.61.46-3.91.25-2.21-.63-2.79-2.74-2.34a30.42,30.42,0,0,1-12.64.08c-2.9-.6-4,.12-3.54,3a13,13,0,0,0,.51,3.09C198.67,174.52,201.56,181,204.83,188.49Zm-27.71-34.15c-2.35-2.58-4.73-5.17-7.08-7.79-5.09-5.68-5.21-5.69-10.39,0a3.19,3.19,0,0,0-.74.92c-.43,1.09-.42,2.27.9,2.61C165.64,151.61,171.49,153,177.12,154.34Zm54.46.22c5-1.19,10-2.25,14.9-3.63,1.53-.43,3.9.15,4.46-1.94.62-2.35-1.91-2.88-3.12-4.16-.64-.68-1.42-1.24-2-2-1.2-1.6-2.07-1.58-3.24.14A60.14,60.14,0,0,1,231.58,154.56Z"/><path class="cls-2" d="M183.48,244.68c-1.12-6-3.45-8-9.4-8.13a43.05,43.05,0,0,0-4.4,0c-1.9.16-2.57-.55-2.52-2.48.12-4.26.09-8.53,0-12.8-.08-5.52-3.21-9.17-7.83-9.28s-8.07,3.66-8.15,9.37c-.06,4-.13,8,0,12,.09,2.32-.39,3.4-3,3.22-4.09-.29-9.42,1.29-12-.75s-.75-7.72-.87-11.78c-.2-6.53-.32-13.1,2-19.36,4.24-11.52,12.6-18.5,24.36-21.5,6-1.55,12.2-2.74,18.22-4.4,2.33-.64,3.23-.15,4.15,2,4.11,9.66,8.46,19.22,12.61,28.87,1.58,3.69,3.73,6.49,8.11,6.51s6.59-2.7,8.19-6.42c4.14-9.65,8.48-19.21,12.62-28.86.88-2.07,1.67-2.77,4.1-2.08,5.88,1.68,11.89,2.86,17.84,4.32,16.3,4,26.21,16.15,26.73,32.93.18,5.86-.06,11.73.09,17.59.06,2.32-.76,3-3,2.91a85.37,85.37,0,0,0-10,0c-2.65.19-3.09-.93-3-3.24.15-4.12.11-8.26,0-12.39-.12-5.4-3.52-9.08-8.15-9s-7.69,3.67-7.81,8.9c-.1,4.26-.14,8.53,0,12.79.09,2.32-.7,3.1-2.95,2.88a40.26,40.26,0,0,0-4.79,0c-5.94.14-8.32,2.21-9.39,8.13l-12.43,0c-1.3-5.6-3.75-8-8.09-8s-6.85,2.47-8.09,8Z"/><path class="cls-1" d="M212.76,14.14c0,2,.15,4,0,6-.4,4.58-3.85,7.85-8,7.79a7.94,7.94,0,0,1-7.78-7.59,100,100,0,0,1,0-12.72A7.94,7.94,0,0,1,204.7,0c4.19-.06,7.64,3.2,8,7.77C212.91,9.88,212.76,12,212.76,14.14Z"/><path class="cls-1" d="M231.93,31.81c0-5.1,11.26-16.27,16.32-16.16A7.53,7.53,0,0,1,255,19.78c1.44,2.66,1.55,5.45-.3,7.9a56.29,56.29,0,0,1-10.63,10.68c-2.54,2-5.43,1.92-8.21.31A7.38,7.38,0,0,1,231.93,31.81Z"/><path class="cls-1" d="M161.54,15.34a7,7,0,0,1,2.17.55c5.65,3.4,10.5,7.74,13.44,13.67,1.5,3,.06,6-2.49,8.19s-5.75,2.74-8.49.91a37.6,37.6,0,0,1-11.94-12.1C151.39,21.67,155.75,15.22,161.54,15.34Z"/><path class="cls-1" d="M196.71,244.66c1.24-5.55,3.74-8,8.09-8s6.79,2.42,8.09,8c-1.46,5.24-4.09,7.76-8.09,7.76S198.12,249.87,196.71,244.66Z"/><path class="cls-3" d="M320.14,401.52l-74.47,0q5-24.23,9.94-48.45c2.29-11.21,4.56-22.42,9.27-33,8.15-18.25,20.74-32.73,37.2-43.92q12.89-8.76,25.85-17.39c6.36-4.24,13-3.67,17.27,1.38,4.51,5.37,4.36,12.77-.67,18.17-12,12.88-24.08,25.66-36.14,38.47-2.14,2.28-4,4.59-3.77,8A7.8,7.8,0,0,0,316.4,331a18.44,18.44,0,0,0,3.59-3.14c11.54-12.2,22.94-24.54,34.59-36.64,11.87-12.33,17.68-26.79,17.52-44-.26-30.79-.08-61.59-.05-92.38a24.74,24.74,0,0,1,.41-5.16,10.65,10.65,0,0,1,21,1.14c.26,2.77.11,5.59.11,8.39,0,37.19-.2,74.39.1,111.58a73.3,73.3,0,0,1-14.36,45.1c-18.84,26-37.23,52.3-55.84,78.45A18.81,18.81,0,0,0,320.14,401.52Z"/><path class="cls-3" d="M89.47,401.52c-.58-3.67-2.88-6.43-4.93-9.32-2.53-3.55-5-7.11-7.58-10.64-3.85-5.3-7-6.07-12.81-3.18-1.26-4.09-4.66-6.83-6.59-10.48,4.17-5.18,4.14-9.8-.1-13-3-2.24-6.15-1.67-9.33-.48L40,343.11c4.15-5.15,4.19-7.6.38-13.15-5-7.25-10.36-14.2-15-21.67A61.85,61.85,0,0,1,16,274.91q-.11-60.81,0-121.6c0-7.19,4.2-11.94,10.49-12.09s11,4.76,11,12c.05,31.46.18,62.93,0,94.39-.12,16.74,5.45,30.94,16.94,43,11.87,12.45,23.6,25,35.38,37.55,2,2.07,4,3.95,7.09,4a7.55,7.55,0,0,0,7-3.84,7.32,7.32,0,0,0,0-7.94,25.89,25.89,0,0,0-3.25-4c-11.85-12.64-23.8-25.2-35.57-37.92-7.29-7.88-4-19.73,6.05-22.12a10.44,10.44,0,0,1,8.46,1.3c12.71,8.52,26,16.33,37.73,26.15,19.65,16.39,30.52,37.82,35.36,62.7,3.48,17.89,7.43,35.69,11.16,53.53a10.33,10.33,0,0,1,.07,1.58Z"/><path class="cls-1" d="M48.13,354.43c3.18-1.19,6.34-1.76,9.33.48,4.24,3.19,4.27,7.81.1,13-3.76,1.73-7.43,2.18-10.54-1.2a7.63,7.63,0,0,1-1.29-9.17A20.6,20.6,0,0,1,48.13,354.43Z"/><path class="cls-4" d="M235.58,112.28c.63,10.69-2.77,20.69-12.37,27.84-9.43,7-19.92,8.23-30.58,3.54-10.81-4.76-17.06-13.41-18.15-25.29-1-11.07-.84-11.12,10.25-11.18a49.6,49.6,0,0,0,32.09-11.3c1.74-1.43,3-1.67,4.83-.38,2.41,1.66,5,3,7.55,4.48C235.58,103.74,235.58,103.74,235.58,112.28Z"/><path class="cls-5" d="M159.89,166.59c-1.47,1.45-3.33,1.43-4.93,1.91-13.89,4.18-24.11,12.69-30.49,25.7a4,4,0,0,1-4.22,2.64c-8.79-.15-17.59-.18-26.38,0-2.73.06-3.27-.86-3.29-3.39-.11-14.32,5.81-22,19.73-25.37,5.56-1.33,11.13-2.64,16.68-4,4.08-1,6.63-3.48,6.65-7.8,0-2.4.92-3,3.08-2.68a14.87,14.87,0,0,0,3.59,0c1.62-.18,2.42.21,2.44,2.07.06,5.32,3.38,7.74,8.15,8.79C153.87,165.11,156.81,165.86,159.89,166.59Z"/><path class="cls-5" d="M249.63,166.67c3.75-.94,7.22-1.79,10.69-2.67,3.92-1,6.37-3.48,6.55-7.52.11-2.5.89-3.29,3.28-2.86a10.94,10.94,0,0,0,3.18,0c1.72-.19,2.54.11,2.7,2.21.41,5.28,2.1,7.1,7.37,8.45,5.91,1.53,11.87,2.87,17.79,4.37,12.6,3.19,19.54,13.48,17.93,26.26-.22,1.7-.95,1.9-2.3,1.89-9.44,0-18.89,0-28.34,0a2.66,2.66,0,0,1-2.84-1.6c-7-14.84-18.68-23.78-34.46-27.67A7.89,7.89,0,0,1,249.63,166.67Z"/><path class="cls-6" d="M234.32,84c-4-1.46-7.41-4.11-11.11-6.15-5.15-2.83-8.27-2.69-12.1,1.59-9.5,10.6-21.75,12.46-35,11.74-2.57-.15-1.81-1.78-1.71-3.07,1-12.58,7.26-21.7,18.8-26.49,11.88-4.93,23-2.77,32.62,5.93,4.72,4.29,8,9.55,8.83,16.09Z"/><path class="cls-7" d="M158.16,114.72c0,11.9-4.78,19.26-14.37,22.17-13.06,4-26.44-7-25.4-20.57.21-2.74,1.86-2.07,3.28-2.06,9.6.1,19.14-.24,28.43-3,.76-.23,1.53-.44,2.28-.7C158.17,108.55,158.17,108.55,158.16,114.72Z"/><path class="cls-4" d="M251.83,108.54c12.18,5.12,24.59,6,37.17,5.68,1.78-.06,2.16.58,2.24,2.27.53,10.64-7.48,20.27-17.67,21.08-11.52.92-20.76-6.64-21.7-17.95C251.59,116.2,251.83,112.74,251.83,108.54Z"/><path class="cls-8" d="M283.22,98.24c-9.36,0-18.46-1.32-27.11-5.25-2.49-1.13-2.81-2-1.36-4.24a19.76,19.76,0,0,1,20.39-8.65c8.05,1.76,13.26,6.75,15.48,14.84.72,2.64.2,3.65-2.62,3.34A42.29,42.29,0,0,0,283.22,98.24Z"/><path class="cls-8" d="M126.47,98.24c-1.2,0-2.4,0-3.6,0-4.77,0-5-.12-3.47-4.52,2.55-7.58,7.81-12.4,15.71-13.66,8.22-1.32,14.86,1.72,19.72,8.57,1.44,2,1.56,3.12-1.15,4.34C145,96.89,135.87,98.2,126.47,98.24Z"/><path class="cls-9" d="M204.83,188.49c-3.27-7.47-6.16-14-9-20.52a13,13,0,0,1-.51-3.09c-.44-2.91.64-3.63,3.54-3a30.42,30.42,0,0,0,12.64-.08c2.11-.45,3,.13,2.74,2.34-.14,1.3.11,2.62-.46,3.91C210.94,174.52,208.09,181,204.83,188.49Z"/><path class="cls-10" d="M234.65,83.68c.38.25.52.54.09.85a5,5,0,0,1-.42-.49Z"/></g></g></svg>