<svg xmlns="http://www.w3.org/2000/svg" viewBox="0 0 367.6 362.12"><defs><style>.cls-1{fill:#fecbd2;}.cls-2{fill:#fee6ea;}.cls-3{fill:#fde6e9;}.cls-4{fill:#7e3d4a;}</style></defs><title>Ресурс 2</title><g id="Слой_2" data-name="Слой 2"><g id="Слой_1-2" data-name="Слой 1"><path class="cls-1" d="M367.6,199.73a17.9,17.9,0,0,1-6.45,7.29c-5.75,3.78-5.71,11.66,0,15.61a18,18,0,0,1,6.5,7.25v4.31a16.07,16.07,0,0,0-.83,1.52c-6.93,16.87-18.86,28.43-36.36,33.91-3.22,1-2,2.29-.88,4.06,11.15,18.14,12.24,36.82,3.22,56.2-2.91,6.24-7.66,8.84-14.81,6.16-2.42-.91-4.91-1.84-7.65-1.06-5.9,1.67-8.4,6.36-7,13.26,1.1,5.28-1.4,10-6.48,11.54a41.45,41.45,0,0,1-9.39,2.08c-18.61,1.33-34.87-3.87-47.92-17.72-3.29-3.49-3.46-3.51-6.7.12-7.31,8.18-16.5,13.15-27,16a55.41,55.41,0,0,1-32-1c-5.26-1.7-7.8-6-6.75-11.3,1.76-8.94-4.64-14.57-13.47-11.87-6.29,1.93-11,0-13.59-5.74-8.74-19.4-8.34-38.34,3.17-56.59,1.52-2.41,1.07-3.39-1.57-4.25-15.82-5.17-27.2-15.44-34.33-30.43-3.37-7.09-3.33-11.46,4.07-16.39,5.87-3.92,5.76-11.51.07-15.66-.87-.63-1.71-1.3-2.56-1.95-3.15-2.39-4.39-5.42-3.35-9.34,1.49-5.65,4.51-10.49,7.87-15.15,1.23-1.7,2-2.73-1.08-3.38a37.91,37.91,0,0,1-20-11.19c-1.66-1.75-2.91-1.62-4.42.09a34.62,34.62,0,0,1-12.75,9A38.42,38.42,0,0,1,48,176.57c-4-1.28-6-4.45-5.43-8.14,1-6.53-2.81-9.7-9.33-7.87-4.22,1.18-7.4-.24-9.11-4.09-5.84-13.1-5.6-25.95,1.84-38.36,1.41-2.35.91-2.93-1.41-3.77A39.57,39.57,0,0,1,1.85,94.13C-1,88.43-.58,86.73,4.32,82.45c4.16-3.63,4-7.82-.38-11.07-4-3-4.85-5.15-3-9.48A39.06,39.06,0,0,1,23.12,40.26,37.27,37.27,0,0,1,48,39c2.3.67,3.32.29,3.06-2.32a25.8,25.8,0,0,1,1.44-10.56C56.32,14.19,63.72,5.48,75.47.82,78.75-.48,81.72-.19,84,3c4.27,5.84,7.61,5.85,12.48.2,2.76-3.21,5.29-4,8.82-2.37,15.31,7,23.53,18.94,24.56,35.69.18,2.82.87,3,3.3,2.31C151,33.71,171.35,43.22,178.91,60c2.56,5.69,2,8-2.7,11.77-4,3.13-3.91,7.74.15,10.77,4.44,3.32,5.1,6.11,2.7,11.11a39.24,39.24,0,0,1-22.72,20.56c-2.29.83-3.1,1.41-1.56,4,7,11.57,8,23.7,2.53,36.17-1.16,2.62-.28,3.15,2.14,3a41.7,41.7,0,0,1,16.19,2.24c2.86,1,3.25,0,3.21-2.51a52.52,52.52,0,0,1,3.48-19.57c5.82-15.36,16.15-26.48,31.27-33.15,6.26-2.76,10-1.93,14.16,3.69,1.49,2,3.13,4,5.69,4.71,4.56,1.36,8.56-.37,11.78-5.08,3-4.37,7.05-5.95,11.33-4.38A55.31,55.31,0,0,1,283.9,125c6.4,9.48,10.19,19.93,9.74,31.57-.11,3,.4,4.21,3.73,3.05,5.8-2,11.86-2.42,18-2.23,14.2.44,26.39,5.65,36.85,15.14,7,6.38,11.7,14.33,15.39,22.94ZM120,93.67V92.6c0-6.08,0-6.08-6.17-6.38L111.9,81a3.84,3.84,0,0,1,.21-1c2.65-4.94,2.65-4.94-1.47-9.07-3.8-3.79-3.8-3.79-8.92-.26l-6.09-2.11c-.23-6.6-.23-6.6-7.07-6.6-5.82,0-5.82,0-6,6.57l-5.75,2a3.94,3.94,0,0,1-.7-.09c-1.83-.63-2.65-3.69-4.4-3.08-1.94.67-3.36,2.84-5,4.36-.6.57-1.14,1.22-1.77,1.75-1.76,1.47-2.32,3-.25,4.63a4.19,4.19,0,0,1,1.62,3c-.6,1.74-1.21,3.47-1.81,5.21-7.43,0-6.16-.83-6.3,6.07,0,.48,0,1,0,1.42.14,6.91-1.14,6,6.29,6.09q.92,2.59,1.82,5.2c-.22.66-.24,1.59-.7,2-3.48,2.69-2.17,4.87.59,7a13.6,13.6,0,0,1,1,1c1.36,1.31,2.53,3.18,4.15,3.78,2.09.77,2.74-2.16,4.42-2.88a5.53,5.53,0,0,1,1-.21l5.74,2c.17,6.58.17,6.58,6.71,6.58,6.12,0,6.12,0,6.35-6.6l6.07-2.12c5.15,3.53,5,3.41,9.73-1,2.84-2.63,4.72-4.93.82-8.08-.29-.23-.24-.88-.35-1.34l1.9-5.21C120,99.77,120,99.77,120,93.67Zm169.87,147c2.85,0,4-.6,3.92-3.71-.12-9.27,0-9.26-9.37-9.28-5.59,0-11.19-.08-16.79-.13-.57-3.87-2.42-7.26-4.06-10.73,0-1.53,1.27-2.22,2.16-3.12,4.6-4.66,9.17-9.35,13.92-13.86,1.64-1.57,1.59-2.5-.06-3.92-2.42-2.09-4.53-6-7-6.16s-4.64,3.89-6.94,6.09c-3.1,3-6.06,6.06-9.12,9.07-.82.81-1.47,1.93-2.86,1.94-3.52-1.59-6.9-3.57-10.82-4.13,0-7.77-.17-15.55,0-23.32.05-2.69-.79-3.46-3.46-3.45-9.52,0-9.51-.09-9.52,9.53,0,5.74-.05,11.48-.08,17.22a38.73,38.73,0,0,0-10.62,4.18c-5.86-4.89-10.94-10.6-16.32-16-1.87-1.88-2.91-1.95-4.82,0-6.93,7-7,6.93-.15,13.79,3,3,6.09,6.06,9.1,9.11.89.91,2.12,1.64,2.08,3.18-1.22,3.55-3.66,6.71-3.55,10.71-7.86,0-15.72.08-23.58,0-2.32,0-3.23.7-3.06,3.06a42.63,42.63,0,0,1,0,6.78c-.22,2.62.95,3.2,3.33,3.16,7.74-.12,15.48-.06,23.21-.06.18,3.87,2.34,7,3.76,10.47,0,1.63-1.23,2.5-2.23,3.5-4.53,4.56-9,9.14-13.65,13.62-1.67,1.61-1.68,2.82,0,4.42,8.49,8.08,5.4,7.82,13.22.33,3.27-3.13,6.41-6.39,9.61-9.58.92-.92,1.74-2,3.24-2,3.49,1.32,6.64,3.61,10.55,3.76,0,7.74.06,15.47-.07,23.21,0,2.41.6,3.3,3.18,3.33,9.78.09,9.78.18,9.78-9.54,0-5.71,0-11.42,0-17.14,4,.15,7.1-2.29,10.6-3.58,1.52,0,2.29,1.13,3.2,2,4.56,4.53,9.16,9,13.62,13.67,1.73,1.8,3.07,1.88,4.68,0,2-2.35,5.94-4.12,5.82-6.74-.1-2.24-3.65-4.35-5.73-6.46-3.09-3.14-6.24-6.23-9.33-9.36-.9-.91-2.11-1.65-2.09-3.18a54.71,54.71,0,0,0,4.18-10.64C275.06,240.7,282.45,240.55,289.83,240.71ZM180.42,172.17c-8.15,7.16-8.12,7.79-.08,15,1.43,1.29,2.2,1.09,3.5-.11,8-7.34,8-7.93-.25-15l-1.47-1.23C181.51,171.33,180.94,171.72,180.42,172.17Zm109,108.39c-8.59,7.05-8.55,7.36-.68,15.09,1.59,1.56,2.5,1.64,3.94,0a60.13,60.13,0,0,1,5.28-5.31c1.42-1.28,1.75-2.27.13-3.7-2-1.81-3.88-3.85-5.83-5.77a18.26,18.26,0,0,0-1.65-1.31C290.11,279.94,289.76,280.26,289.39,280.56Zm24-40c6.12,0,6.12,0,6.12-6.22,0-6.65,0-6.65-6.72-6.65-6.15,0-6.15,0-6.15,6.19C306.66,240.56,306.66,240.56,313.41,240.56Zm-160.35-6.65c0,6.65,0,6.65,6.78,6.65,6.09,0,6.09,0,6.09-6.25,0-6.62,0-6.62-6.75-6.62C153.06,227.69,153.06,227.69,153.06,233.91Zm76.79,77c0,6.51,0,6.51,6.58,6.51,6.3,0,6.3,0,6.3-6.4s0-6.48-6.55-6.48C229.85,304.52,229.85,304.52,229.85,310.89Zm12.88-153.47c0-6.58,0-6.58-6.53-6.58-6.35,0-6.35,0-6.35,6.45s0,6.43,6.74,6.43C242.73,163.71,242.73,163.71,242.73,157.42Zm42.08,25.65c5.82,5.72,5.78,5.75,11.53,0,3.38-3.38,3.38-3.38.12-6.65-5.79-5.79-5.8-5.8-11.69.15a14.9,14.9,0,0,0-3.58,4.17A21.34,21.34,0,0,1,284.81,183.07Zm-102,113.59c2.54-2.51,5.06-5.05,7.59-7.58.56-.56.32-1-.12-1.5s-.68-.67-1-1c-7.65-8-7.65-8-14.91.5-.62.72-1.46,1.25-.38,2.29,2.4,2.32,4.72,4.71,7.08,7.07.25.25.56.44.89.71A3.75,3.75,0,0,0,182.79,296.66ZM112,61.36c-.73,1.17.79,1.78,1.46,2.5,1.45,1.58,3.14,3,4.5,4.6,1.74,2.09,3,2.21,5,.14s2.18-3.46-.12-5.33c-1.84-1.49-3.4-3.34-5.1-5-.41-.4-.88-.74-1.9-1.59A41.93,41.93,0,0,0,112,61.36ZM118.79,117c-2,1.92-3.78,4-5.86,5.78-2.43,2.09-.21,3,.91,4.12s2,3.39,4.13.94c1.62-1.9,3.57-3.52,5.25-5.37.71-.78,2.39-1.36,1.42-2.83a56.7,56.7,0,0,0-3.64-4.48C119.85,116.14,119.28,116.54,118.79,117Zm-52.62,8.16c1.11-1.55-.68-2-1.35-2.8-1.33-1.53-3-2.77-4.24-4.37-2-2.54-3.44-2.4-5.56,0-1.59,1.78-2.09,2.83-.06,4.53s3.57,3.52,5.36,5.28c.5.49,1.07.92,2.16,1.84C63.76,128.12,65.07,126.72,66.17,125.19ZM134.1,90.78c0-4.08-1.67-5.25-5.7-4.19-1.28.33-1.31,1.14-1.31,2.12,0,3,0,5.94,0,8.91s2.11,2,3.55,2,3.61.79,3.49-2.08c-.07-1.55,0-3.1,0-4.64ZM86.44,48.26c-3.4,0-5.09,2.89-3.67,6.11.46,1.05,1.28.92,2.08.93,2.26,0,4.54-.12,6.8.05,2.65.2,4.21-.15,4-3.51-.14-2.62-.51-4.09-3.51-3.6a20.33,20.33,0,0,1-3.22,0ZM57.2,70.14c1.47,1,2-.74,2.78-1.42,1.43-1.24,2.57-2.84,4.08-4,2.8-2.09,2.7-3.75,0-6-1.61-1.33-2.53-1.7-4,0-1.71,2-3.67,3.71-5.5,5.57-.48.48-.9,1-1.82,2.09A56.24,56.24,0,0,0,57.2,70.14ZM91.82,138c3.4.65,3.88-1,3.84-4,0-2.57-.85-3.38-3.3-3.15a33.48,33.48,0,0,1-6.09,0c-2.73-.27-3.79.55-3.69,3.51.09,2.63.49,4.12,3.51,3.62a20.35,20.35,0,0,1,3.22,0A13.14,13.14,0,0,1,91.82,138ZM44.43,95.66c-.59,3.38,1.09,4,4,3.84,1.92-.13,2.85-.53,2.72-2.64a51.7,51.7,0,0,1,0-7.15c.21-2.53-1-2.87-3.15-2.95-2.71-.1-4.07.6-3.62,3.54a19.48,19.48,0,0,1,0,2.86A14.88,14.88,0,0,1,44.43,95.66Z"/><path class="cls-2" d="M229.81,249.57c-3.73,4.46-8.38,6.95-10.55,11.81-1.5,0-2.32,1.09-3.24,2-3.2,3.19-6.34,6.45-9.61,9.58-7.82,7.49-4.73,7.75-13.22-.33-1.68-1.6-1.67-2.81,0-4.42,4.61-4.48,9.12-9.06,13.65-13.62,1-1,2.23-1.87,2.23-3.5,1.87.48,2.36-1.28,3.32-2.15,2.71-2.45,5.28-5,8.65-8.32H205.31c-7.73,0-15.47-.06-23.21.06-2.38,0-3.55-.54-3.33-3.16a42.63,42.63,0,0,0,0-6.78c-.17-2.36.74-3.1,3.06-3.06,7.86.1,15.72,0,23.58,0H221c-4.64-3.84-7.09-8.59-12-10.71,0-1.54-1.19-2.27-2.08-3.18-3-3-6.06-6.07-9.1-9.11-6.85-6.86-6.78-6.78.15-13.79,1.91-1.93,2.95-1.86,4.82,0,5.38,5.39,10.46,11.1,16.32,16,2.44,4.44,6.79,7.07,10.62,11.66V202.75c0-5.74.07-11.48.08-17.22,0-9.62,0-9.52,9.52-9.53,2.67,0,3.51.76,3.46,3.45-.14,7.77,0,15.55,0,23.32v15.94c3.84-4.44,8.19-7.27,10.82-11.81,1.39,0,2-1.13,2.86-1.94,3.06-3,6-6.1,9.12-9.07,2.3-2.2,4.35-6.31,6.94-6.09s4.6,4.07,7,6.16c1.65,1.42,1.7,2.35.06,3.92-4.75,4.51-9.32,9.2-13.92,13.86-.89.9-2.15,1.59-2.16,3.12-4.7,2.34-7.16,7.06-11,10.73h15c5.6,0,11.2.12,16.79.13,9.38,0,9.25,0,9.37,9.28,0,3.11-1.07,3.76-3.92,3.71-7.38-.16-14.77,0-22.15,0H252c4.23,3.89,7,8.1,11.48,10.64,0,1.53,1.19,2.27,2.09,3.18,3.09,3.13,6.24,6.22,9.33,9.36,2.08,2.11,5.63,4.22,5.73,6.46.12,2.62-3.86,4.39-5.82,6.74-1.61,1.91-2.95,1.83-4.68,0-4.46-4.64-9.06-9.14-13.62-13.67-.91-.91-1.68-2.07-3.2-2,.55-1.55-.86-2.07-1.6-2.87a59,59,0,0,0-9-8.26V265c0,5.72,0,11.43,0,17.14,0,9.72,0,9.63-9.78,9.54-2.58,0-3.22-.92-3.18-3.33.13-7.74.06-15.47.07-23.21Zm-6.35-14.36c0,6.89,5.85,11.66,14.12,11.78a9.17,9.17,0,0,0,6.67-2.5,13.25,13.25,0,0,0,5-12.12c-.47-5.94-6-11.11-12.92-11.11C228.11,221.26,223.46,226.3,223.46,235.21Z"/><path class="cls-3" d="M95.63,108.67v9.09c-.23,6.6-.23,6.6-6.35,6.6-6.54,0-6.54,0-6.71-6.58v-8.69c-2.27,2.35-5.06,3.53-5.74,6.67a5.53,5.53,0,0,0-1,.21c-1.68.72-2.33,3.65-4.42,2.88-1.62-.6-2.79-2.47-4.15-3.78a13.6,13.6,0,0,0-1-1c-2.76-2.12-4.07-4.3-.59-7,.46-.36.48-1.29.7-2,.76.94,1.39.49,2.06-.15,1.62-1.57,3.26-3.11,5.57-5.31-3.81-.29-6.62-.78-9.45.26-7.43,0-6.15.82-6.29-6.09,0-.47,0-.94,0-1.42.14-6.9-1.13-6,6.3-6.07,2.74,1.19,5.54.17,8.3.57l.7-1-5.68-5.08c-.63-.56-1.07-.09-1.51.32a4.19,4.19,0,0,0-1.62-3c-2.07-1.68-1.51-3.16.25-4.63.63-.53,1.17-1.18,1.77-1.75,1.63-1.52,3-3.69,5-4.36,1.75-.61,2.57,2.45,4.4,3.08a3.94,3.94,0,0,0,.7.09c.63,3,3.53,4.15,5.75,7V68.49c.17-6.57.17-6.57,6-6.57,6.84,0,6.84,0,7.07,6.6v8.69c2.51-2.18,5-3.73,6.09-6.58,5.12-3.53,5.12-3.53,8.92.26C114.76,75,114.76,75,112.11,80a3.84,3.84,0,0,0-.21,1c-3.61,0-4.32,3.62-6.67,5.36,3,.3,5.78,1.14,8.57-.14,6.16.3,6.16.3,6.16,6.38v1.07c0,6.1,0,6.1-6.16,6.38-2.68-1.48-5.53-.21-8.48-.36,2.07,2,2.91,5.39,6.58,5.57.11.46.06,1.11.35,1.34,3.9,3.15,2,5.45-.82,8.08-4.7,4.37-4.58,4.49-9.73,1C100.75,112.76,98.06,111.45,95.63,108.67ZM82.2,93.17c0,4.21,2.8,6.86,7.2,6.83a6.5,6.5,0,0,0,6.72-6.91c0-4.23-2.76-6.85-7.17-6.82C84.89,86.29,82.19,89.06,82.2,93.17Z"/><path class="cls-4" d="M182.12,170.85c-.61.48-1.18.87-1.7,1.32-8.15,7.16-8.12,7.79-.08,15,1.43,1.29,2.2,1.09,3.5-.11,8-7.34,8-7.93-.25-15Z"/><path class="cls-4" d="M290.58,279.53c-.47.41-.82.73-1.19,1-8.59,7.05-8.55,7.36-.68,15.09,1.59,1.56,2.5,1.64,3.94,0a60.13,60.13,0,0,1,5.28-5.31c1.42-1.28,1.75-2.27.13-3.7-2-1.81-3.88-3.85-5.83-5.77A18.26,18.26,0,0,0,290.58,279.53Z"/><path class="cls-4" d="M306.66,233.88c0,6.68,0,6.68,6.75,6.68,6.12,0,6.12,0,6.12-6.22,0-6.65,0-6.65-6.72-6.65C306.66,227.69,306.66,227.69,306.66,233.88Z"/><path class="cls-4" d="M159.18,227.69c-6.12,0-6.12,0-6.12,6.22,0,6.65,0,6.65,6.78,6.65,6.09,0,6.09,0,6.09-6.25C165.93,227.69,165.93,227.69,159.18,227.69Z"/><path class="cls-4" d="M236.18,304.52c-6.33,0-6.33,0-6.33,6.37s0,6.51,6.58,6.51c6.3,0,6.3,0,6.3-6.4S242.73,304.52,236.18,304.52Z"/><path class="cls-4" d="M236.59,163.72c6.14,0,6.14,0,6.14-6.3,0-6.58,0-6.58-6.53-6.58-6.35,0-6.35,0-6.35,6.45S229.85,163.72,236.59,163.72Z"/><path class="cls-4" d="M281.19,180.74a21.34,21.34,0,0,1,3.62,2.33c5.82,5.72,5.78,5.75,11.53,0,3.38-3.38,3.38-3.38.12-6.65-5.79-5.79-5.8-5.8-11.69.15A14.9,14.9,0,0,0,281.19,180.74Z"/><path class="cls-4" d="M181.93,297.14a3.75,3.75,0,0,0,.86-.48c2.54-2.51,5.06-5.05,7.59-7.58.56-.56.32-1-.12-1.5s-.68-.67-1-1c-7.65-8-7.65-8-14.91.5-.62.72-1.46,1.25-.38,2.29,2.4,2.32,4.72,4.71,7.08,7.07C181.29,296.68,181.6,296.87,181.93,297.14Z"/><path class="cls-4" d="M115.85,56.66a41.93,41.93,0,0,0-3.89,4.7c-.73,1.17.79,1.78,1.46,2.5,1.45,1.58,3.14,3,4.5,4.6,1.74,2.09,3,2.21,5,.14s2.18-3.46-.12-5.33c-1.84-1.49-3.4-3.34-5.1-5C117.34,57.85,116.87,57.51,115.85,56.66Z"/><path class="cls-4" d="M121,115.19c-1.15,1-1.72,1.35-2.21,1.84-2,1.92-3.78,4-5.86,5.78-2.43,2.09-.21,3,.91,4.12s2,3.39,4.13.94c1.62-1.9,3.57-3.52,5.25-5.37.71-.78,2.39-1.36,1.42-2.83A56.7,56.7,0,0,0,121,115.19Z"/><path class="cls-4" d="M62.48,129.64c1.28-1.52,2.59-2.92,3.69-4.45s-.68-2-1.35-2.8c-1.33-1.53-3-2.77-4.24-4.37-2-2.54-3.44-2.4-5.56,0-1.59,1.78-2.09,2.83-.06,4.53s3.57,3.52,5.36,5.28C60.82,128.29,61.39,128.72,62.48,129.64Z"/><path class="cls-4" d="M134.1,92.92V90.78c0-4.08-1.67-5.25-5.7-4.19-1.28.33-1.31,1.14-1.31,2.12,0,3,0,5.94,0,8.91s2.11,2,3.55,2,3.61.79,3.49-2.08C134,96,134.1,94.46,134.1,92.92Z"/><path class="cls-4" d="M263.53,216.86c-4.7,2.34-7.16,7.06-11,10.73h15C267,223.72,265.17,220.33,263.53,216.86Z"/><path class="cls-4" d="M242.79,202.77v15.94c3.84-4.44,8.19-7.27,10.82-11.81C250.09,205.31,246.71,203.33,242.79,202.77Z"/><path class="cls-4" d="M219.08,206.93c2.44,4.44,6.79,7.07,10.62,11.66V202.75A38.73,38.73,0,0,0,219.08,206.93Z"/><path class="cls-4" d="M267.68,240.72H252c4.23,3.89,7,8.1,11.48,10.64A54.71,54.71,0,0,0,267.68,240.72Z"/><path class="cls-4" d="M205.42,227.71H221c-4.64-3.84-7.09-8.59-12-10.71C207.75,220.55,205.31,223.71,205.42,227.71Z"/><path class="cls-4" d="M253.33,261.42c.55-1.55-.86-2.07-1.6-2.87a59,59,0,0,0-9-8.26V265C246.71,265.15,249.83,262.71,253.33,261.42Z"/><path class="cls-4" d="M88.94,48.26h-2.5c-3.4,0-5.09,2.89-3.67,6.11.46,1.05,1.28.92,2.08.93,2.26,0,4.54-.12,6.8.05,2.65.2,4.21-.15,4-3.51-.14-2.62-.51-4.09-3.51-3.6A20.33,20.33,0,0,1,88.94,48.26Z"/><path class="cls-4" d="M52.75,66.46a56.24,56.24,0,0,0,4.45,3.68c1.47,1,2-.74,2.78-1.42,1.43-1.24,2.57-2.84,4.08-4,2.8-2.09,2.7-3.75,0-6-1.61-1.33-2.53-1.7-4,0-1.71,2-3.67,3.71-5.5,5.57C54.09,64.85,53.67,65.4,52.75,66.46Z"/><path class="cls-4" d="M89.31,138a13.14,13.14,0,0,1,2.51,0c3.4.65,3.88-1,3.84-4,0-2.57-.85-3.38-3.3-3.15a33.48,33.48,0,0,1-6.09,0c-2.73-.27-3.79.55-3.69,3.51.09,2.63.49,4.12,3.51,3.62A20.35,20.35,0,0,1,89.31,138Z"/><path class="cls-4" d="M209.07,251.1c1.87.48,2.36-1.28,3.32-2.15,2.71-2.45,5.28-5,8.65-8.32H205.31C205.49,244.5,207.65,247.67,209.07,251.1Z"/><path class="cls-4" d="M229.81,265.14V249.57c-3.73,4.46-8.38,6.95-10.55,11.81C222.75,262.7,225.9,265,229.81,265.14Z"/><path class="cls-4" d="M44.45,93.16a14.88,14.88,0,0,1,0,2.5c-.59,3.38,1.09,4,4,3.84,1.92-.13,2.85-.53,2.72-2.64a51.7,51.7,0,0,1,0-7.15c.21-2.53-1-2.87-3.15-2.95-2.71-.1-4.07.6-3.62,3.54A19.48,19.48,0,0,1,44.45,93.16Z"/><path class="cls-4" d="M111.9,81c-3.61,0-4.32,3.62-6.67,5.36,3,.3,5.78,1.14,8.57-.14Q112.84,83.61,111.9,81Z"/><path class="cls-4" d="M113.8,100.05c-2.68-1.48-5.53-.21-8.48-.36,2.07,2,2.91,5.39,6.58,5.57Q112.85,102.67,113.8,100.05Z"/><path class="cls-4" d="M64.52,86.35c2.74,1.19,5.54.17,8.3.57l.7-1-5.68-5.08c-.63-.56-1.07-.09-1.51.32C65.73,82.88,65.12,84.61,64.52,86.35Z"/><path class="cls-4" d="M66.33,105.13c.76.94,1.39.49,2.06-.15,1.62-1.57,3.26-3.11,5.57-5.31-3.81-.29-6.62-.78-9.45.26Q65.43,102.53,66.33,105.13Z"/><path class="cls-4" d="M95.63,68.52v8.69c2.51-2.18,5-3.73,6.09-6.58Z"/><path class="cls-4" d="M101.7,115.64c-1-2.88-3.64-4.19-6.07-7v9.09Z"/><path class="cls-4" d="M76.82,70.52c.63,3,3.53,4.15,5.75,7V68.49Z"/><path class="cls-4" d="M82.57,117.78v-8.69c-2.27,2.35-5.06,3.53-5.74,6.67Z"/><path class="cls-4" d="M236.35,221.26c-8.24,0-12.89,5-12.89,14,0,6.89,5.85,11.66,14.12,11.78a9.17,9.17,0,0,0,6.67-2.5,13.25,13.25,0,0,0,5-12.12C248.8,226.43,243.23,221.26,236.35,221.26Z"/><path class="cls-4" d="M89,86.27c-4.06,0-6.76,2.79-6.75,6.9S85,100,89.4,100a6.5,6.5,0,0,0,6.72-6.91C96.12,88.86,93.36,86.24,89,86.27Z"/></g></g></svg>