<svg xmlns="http://www.w3.org/2000/svg" viewBox="0 0 367.6 362.12"><defs><style>.cls-1{fill:#fecbd2;}.cls-2{fill:#fee6ea;}.cls-3{fill:#fde6e9;}.cls-4{fill:#7e3d4a;}</style></defs><title>Ресурс 2</title><g id="Слой_2" data-name="Слой 2"><g id="Слой_1-2" data-name="Слой 1"><path class="cls-1" d="M0,195.43c3.69-8.61,8.37-16.56,15.39-22.94C25.85,163,38,157.79,52.24,157.35c6.13-.19,12.19.21,18,2.23,3.33,1.16,3.84-.06,3.73-3.05-.46-11.64,3.33-22.09,9.73-31.57A55.39,55.39,0,0,1,111,103.33c4.29-1.57,8.36,0,11.34,4.38,3.22,4.71,7.22,6.44,11.78,5.08,2.56-.76,4.2-2.68,5.69-4.71,4.13-5.62,7.9-6.45,14.16-3.69,15.12,6.67,25.44,17.79,31.27,33.15a52.52,52.52,0,0,1,3.48,19.57c0,2.49.35,3.52,3.21,2.51a41.7,41.7,0,0,1,16.19-2.24c2.42.13,3.3-.4,2.14-3-5.49-12.47-4.47-24.6,2.53-36.17,1.54-2.54.73-3.12-1.56-4a39.24,39.24,0,0,1-22.72-20.56c-2.41-5-1.74-7.79,2.7-11.11,4.06-3,4.12-7.64.15-10.77-4.72-3.72-5.26-6.08-2.71-11.77,7.57-16.81,27.95-26.32,45.72-21.22,2.43.69,3.12.51,3.3-2.31,1-16.75,9.25-28.71,24.56-35.69,3.53-1.6,6.06-.84,8.82,2.37,4.86,5.65,8.21,5.64,12.48-.2,2.32-3.17,5.29-3.46,8.57-2.16,11.75,4.66,19.15,13.37,23,25.25a25.8,25.8,0,0,1,1.44,10.56c-.27,2.61.76,3,3.06,2.32a37.24,37.24,0,0,1,24.85,1.31,39,39,0,0,1,22.2,21.64c1.84,4.33,1,6.51-3,9.48-4.4,3.25-4.54,7.44-.38,11.07,4.9,4.28,5.31,6,2.47,11.68a39.56,39.56,0,0,1-22.67,20.21c-2.31.84-2.82,1.42-1.4,3.77,7.44,12.41,7.68,25.26,1.84,38.36-1.72,3.85-4.89,5.27-9.11,4.09-6.52-1.83-10.29,1.34-9.33,7.87.53,3.69-1.42,6.86-5.43,8.14a38.42,38.42,0,0,1-27.25-1.48,34.53,34.53,0,0,1-12.75-9c-1.51-1.71-2.76-1.84-4.42-.09a37.91,37.91,0,0,1-20,11.19c-3.13.65-2.31,1.68-1.08,3.38,3.36,4.66,6.38,9.5,7.87,15.15,1,3.92-.2,6.95-3.35,9.34-.85.65-1.69,1.32-2.56,1.95-5.69,4.15-5.8,11.74.07,15.66,7.4,4.93,7.44,9.3,4.06,16.39-7.12,15-18.5,25.26-34.32,30.43-2.64.86-3.09,1.84-1.57,4.25,11.51,18.25,11.91,37.19,3.17,56.59C225,336,220.25,338,214,336c-8.84-2.7-15.23,2.93-13.47,11.87,1,5.31-1.49,9.6-6.75,11.3a55.44,55.44,0,0,1-32,1c-10.44-2.82-19.63-7.79-26.94-16-3.25-3.63-3.41-3.61-6.7-.12C115,358,98.75,363.19,80.14,361.86a41.45,41.45,0,0,1-9.39-2.08c-5.08-1.58-7.58-6.26-6.48-11.54,1.43-6.9-1.06-11.59-7-13.26-2.74-.78-5.23.15-7.65,1.06-7.15,2.68-11.9.08-14.81-6.16-9-19.38-7.93-38.06,3.22-56.2,1.08-1.77,2.34-3-.89-4.06-17.49-5.48-29.42-17-36.36-33.91A14,14,0,0,0,0,234.19v-4.31a18,18,0,0,1,6.5-7.25c5.66-3.95,5.7-11.83,0-15.61A17.9,17.9,0,0,1,0,199.73Zm253.8-95.38,1.9,5.21c-.11.46-.06,1.11-.35,1.34-3.91,3.15-2,5.45.82,8.08,4.7,4.37,4.58,4.49,9.73,1l6.07,2.12c.23,6.6.23,6.6,6.35,6.6,6.54,0,6.54,0,6.71-6.58l5.74-2a5.7,5.7,0,0,1,1,.21c1.68.72,2.33,3.65,4.41,2.88,1.63-.6,2.79-2.47,4.16-3.78a13.6,13.6,0,0,1,1-1c2.76-2.12,4.07-4.3.59-7-.46-.36-.48-1.29-.7-2q.9-2.61,1.82-5.2c7.43,0,6.15.82,6.29-6.09,0-.47,0-.94,0-1.42-.14-6.9,1.13-6-6.3-6.07-.61-1.74-1.21-3.47-1.81-5.21a4.19,4.19,0,0,1,1.62-3c2.07-1.68,1.51-3.16-.25-4.63-.64-.53-1.17-1.18-1.77-1.75-1.63-1.52-3.06-3.69-5-4.36-1.75-.61-2.57,2.45-4.4,3.08a4.06,4.06,0,0,1-.7.09l-5.75-2c-.17-6.57-.17-6.57-6-6.57-6.83,0-6.83,0-7.06,6.6l-6.09,2.11c-5.12-3.53-5.12-3.53-8.92.26C252.83,75,252.84,75,255.49,80a3.49,3.49,0,0,1,.2,1l-1.89,5.22c-6.16.3-6.16.3-6.16,6.38v1.07C247.64,99.77,247.64,99.77,253.8,100.05ZM99.92,240.72a54.71,54.71,0,0,0,4.18,10.64c0,1.53-1.19,2.27-2.09,3.18-3.09,3.13-6.24,6.22-9.33,9.36-2.08,2.11-5.63,4.22-5.74,6.46-.12,2.62,3.86,4.39,5.83,6.74,1.61,1.91,3,1.83,4.68,0,4.46-4.64,9.06-9.14,13.62-13.67.91-.91,1.68-2.07,3.2-2,3.5,1.29,6.61,3.73,10.6,3.58l0,17.14c0,9.72,0,9.63,9.78,9.54,2.58,0,3.22-.92,3.18-3.33-.13-7.74-.06-15.47-.07-23.21,3.91-.15,7.06-2.44,10.55-3.76,1.5,0,2.32,1.09,3.23,2,3.21,3.19,6.35,6.45,9.61,9.58,7.83,7.49,4.74,7.75,13.23-.33,1.68-1.6,1.67-2.81,0-4.42-4.62-4.48-9.12-9.06-13.66-13.62-1-1-2.22-1.87-2.22-3.5,1.42-3.43,3.58-6.6,3.76-10.47,7.73,0,15.47-.06,23.21.06,2.38,0,3.55-.54,3.33-3.16a42.63,42.63,0,0,1,0-6.78c.17-2.36-.74-3.1-3.07-3.06-7.85.1-15.71,0-23.57,0,.11-4-2.33-7.16-3.55-10.71,0-1.54,1.18-2.27,2.08-3.18,3-3,6.06-6.07,9.09-9.11,6.86-6.86,6.79-6.78-.14-13.79-1.91-1.93-2.95-1.86-4.83,0-5.37,5.39-10.45,11.1-16.32,16a38.54,38.54,0,0,0-10.61-4.18c0-5.74-.07-11.48-.08-17.22,0-9.62,0-9.52-9.52-9.53-2.67,0-3.51.76-3.46,3.45.14,7.77,0,15.55,0,23.32-3.92.56-7.3,2.54-10.82,4.13-1.39,0-2-1.13-2.86-1.94-3.06-3-6-6.1-9.12-9.07-2.3-2.2-4.35-6.31-6.94-6.09s-4.6,4.07-7,6.16c-1.65,1.42-1.7,2.35-.06,3.92,4.74,4.51,9.32,9.2,13.92,13.86.89.9,2.15,1.59,2.16,3.12-1.64,3.47-3.49,6.86-4.06,10.73-5.6,0-11.2.12-16.79.13-9.39,0-9.25,0-9.37,9.28,0,3.11,1.07,3.76,3.91,3.71C85.15,240.55,92.53,240.7,99.92,240.72Zm85.55-69.87L184,172.08c-8.26,7.09-8.25,7.68-.25,15,1.3,1.2,2.07,1.4,3.5.11,8-7.25,8.07-7.88-.08-15C186.66,171.72,186.09,171.33,185.47,170.85ZM77,279.53a18.26,18.26,0,0,0-1.65,1.31c-2,1.92-3.79,4-5.83,5.77-1.62,1.43-1.29,2.42.13,3.7A60.13,60.13,0,0,1,75,295.62c1.44,1.67,2.35,1.59,3.93,0,7.88-7.73,7.91-8-.67-15.09C77.84,280.26,77.49,279.94,77,279.53ZM60.94,233.88c0-6.19,0-6.19-6.15-6.19-6.73,0-6.73,0-6.73,6.65,0,6.22,0,6.22,6.13,6.22C60.94,240.56,60.94,240.56,60.94,233.88Zm147.48-6.19c-6.76,0-6.76,0-6.76,6.62,0,6.25,0,6.25,6.1,6.25,6.78,0,6.78,0,6.78-6.65C214.54,227.69,214.54,227.69,208.42,227.69Zm-77,76.83c-6.55,0-6.55,0-6.55,6.48s0,6.4,6.3,6.4c6.58,0,6.58,0,6.58-6.51S137.75,304.52,131.42,304.52ZM131,163.72c6.74,0,6.74,0,6.74-6.43s0-6.45-6.35-6.45c-6.53,0-6.53,0-6.53,6.58C124.87,163.71,124.87,163.71,131,163.72Zm-44.6,17a15.24,15.24,0,0,0-3.58-4.17c-5.89-5.95-5.9-5.94-11.69-.15-3.26,3.27-3.26,3.27.12,6.65,5.74,5.75,5.71,5.72,11.53,0A21,21,0,0,1,86.41,180.74Zm99.26,116.4c.33-.27.64-.46.89-.71,2.36-2.36,4.68-4.75,7.08-7.07,1.08-1,.24-1.57-.38-2.29-7.26-8.5-7.26-8.5-14.91-.5-.33.34-.68.66-1,1s-.68.94-.12,1.5c2.53,2.53,5.05,5.07,7.58,7.58A4.05,4.05,0,0,0,185.67,297.14ZM251.75,56.66c-1,.85-1.5,1.19-1.91,1.59a70.85,70.85,0,0,1-5.09,5c-2.31,1.87-2.28,3.18-.12,5.33s3.31,2,5.05-.14c1.36-1.65,3-3,4.5-4.6.66-.72,2.19-1.33,1.46-2.5A41.93,41.93,0,0,0,251.75,56.66Zm-5.15,58.53a54.54,54.54,0,0,0-3.64,4.48c-1,1.47.71,2,1.41,2.83,1.69,1.85,3.63,3.47,5.26,5.37,2.1,2.45,3,.14,4.13-.94s3.34-2,.91-4.12c-2.08-1.79-3.9-3.86-5.86-5.78C248.32,116.54,247.75,116.14,246.6,115.19Zm58.52,14.45c1.09-.92,1.66-1.35,2.16-1.84,1.79-1.76,3.44-3.68,5.36-5.28s1.53-2.75-.06-4.53c-2.13-2.37-3.6-2.51-5.56,0-1.23,1.6-2.91,2.84-4.24,4.37-.67.77-2.46,1.25-1.35,2.8S303.84,128.12,305.12,129.64ZM233.5,92.92c0,1.54.06,3.09,0,4.64-.12,2.87,2,2.1,3.49,2.08s3.6.88,3.54-2,0-5.94,0-8.91c0-1,0-1.79-1.32-2.12-4-1.06-5.68.11-5.69,4.19Zm45.15-44.66a20.21,20.21,0,0,1-3.21,0c-3-.49-3.37,1-3.51,3.6-.19,3.36,1.37,3.71,4,3.51,2.26-.17,4.54,0,6.8-.05.8,0,1.62.12,2.08-.93,1.42-3.22-.27-6.09-3.67-6.11Zm36.2,18.2c-.92-1.06-1.34-1.61-1.82-2.09-1.84-1.86-3.79-3.61-5.5-5.57-1.48-1.7-2.4-1.33-4,0-2.68,2.21-2.78,3.87,0,6,1.5,1.12,2.65,2.72,4.08,4,.78.68,1.31,2.41,2.78,1.42A56.24,56.24,0,0,0,314.85,66.46ZM278.28,138a20.47,20.47,0,0,1,3.23,0c3,.5,3.42-1,3.51-3.62.1-3-1-3.78-3.69-3.51a33.48,33.48,0,0,1-6.09,0c-2.46-.23-3.26.58-3.3,3.15,0,2.93.44,4.63,3.84,4A13,13,0,0,1,278.28,138Zm44.87-44.86a19.48,19.48,0,0,1,0-2.86c.45-2.94-.91-3.64-3.62-3.54-2.17.08-3.36.42-3.15,2.95a51.7,51.7,0,0,1,0,7.15c-.13,2.11.8,2.51,2.72,2.64,2.95.19,4.63-.46,4-3.84A14.88,14.88,0,0,1,323.15,93.16Z"/><path class="cls-2" d="M137.79,265.14c0,7.74-.06,15.47.07,23.21,0,2.41-.6,3.3-3.18,3.33-9.78.09-9.78.18-9.78-9.54l0-17.14V250.29a58.56,58.56,0,0,0-9,8.26c-.74.8-2.15,1.32-1.6,2.87-1.52,0-2.29,1.13-3.2,2-4.56,4.53-9.16,9-13.62,13.67-1.73,1.8-3.07,1.88-4.68,0-2-2.35-6-4.12-5.83-6.74.11-2.24,3.66-4.35,5.74-6.46,3.09-3.14,6.24-6.23,9.33-9.36.9-.91,2.11-1.65,2.09-3.18,4.44-2.54,7.25-6.75,11.48-10.64H99.92c-7.39,0-14.77-.17-22.16,0-2.84,0-4-.6-3.91-3.71.12-9.27,0-9.26,9.37-9.28,5.59,0,11.19-.08,16.79-.13h15c-3.84-3.67-6.29-8.39-11-10.73,0-1.53-1.27-2.22-2.16-3.12-4.6-4.66-9.18-9.35-13.92-13.86-1.64-1.57-1.59-2.5.06-3.92,2.42-2.09,4.53-6,7-6.16s4.64,3.89,6.94,6.09c3.1,3,6.06,6.06,9.12,9.07.82.81,1.47,1.93,2.86,1.94,2.63,4.54,7,7.37,10.82,11.81V202.77c0-7.77.17-15.55,0-23.32,0-2.69.79-3.46,3.46-3.45,9.52,0,9.51-.09,9.52,9.53,0,5.74.05,11.48.08,17.22v15.84c3.83-4.59,8.18-7.22,10.61-11.66,5.87-4.89,11-10.6,16.32-16,1.88-1.88,2.92-1.95,4.83,0,6.93,7,7,6.93.14,13.79-3,3-6.08,6.06-9.09,9.11-.9.91-2.13,1.64-2.08,3.18-4.95,2.12-7.4,6.87-12,10.71h15.59c7.86,0,15.72.08,23.57,0,2.33,0,3.24.7,3.07,3.06a42.63,42.63,0,0,0,0,6.78c.22,2.62-1,3.2-3.33,3.16-7.74-.12-15.48-.06-23.21-.06H146.56c3.37,3.27,5.94,5.87,8.65,8.32,1,.87,1.45,2.63,3.32,2.15,0,1.63,1.23,2.5,2.22,3.5,4.54,4.56,9,9.14,13.66,13.62,1.67,1.61,1.68,2.82,0,4.42-8.49,8.08-5.4,7.82-13.23.33-3.26-3.13-6.4-6.39-9.61-9.58-.91-.92-1.73-2-3.23-2-2.17-4.86-6.82-7.35-10.55-11.81Zm-6.54-43.88c-6.88,0-12.45,5.17-12.92,11.11a13.25,13.25,0,0,0,5,12.12A9.17,9.17,0,0,0,130,247c8.27-.12,14.12-4.89,14.12-11.78C144.14,226.3,139.49,221.26,131.25,221.26Z"/><path class="cls-3" d="M265.9,115.64c-5.15,3.53-5,3.41-9.73-1-2.84-2.63-4.73-4.93-.82-8.08.29-.23.24-.88.35-1.34,3.67-.18,4.51-3.53,6.58-5.57-2.95.15-5.8-1.12-8.48.36-6.16-.28-6.16-.28-6.16-6.38V92.6c0-6.08,0-6.08,6.16-6.38,2.79,1.28,5.61.44,8.57.14-2.35-1.74-3.06-5.31-6.68-5.36a3.49,3.49,0,0,0-.2-1C252.84,75,252.83,75,257,70.89c3.8-3.79,3.8-3.79,8.92-.26,1.13,2.85,3.58,4.4,6.09,6.58V68.52c.23-6.6.23-6.6,7.06-6.6,5.83,0,5.83,0,6,6.57v9.07c2.22-2.89,5.12-4,5.75-7a4.06,4.06,0,0,0,.7-.09c1.83-.63,2.65-3.69,4.4-3.08,1.93.67,3.36,2.84,5,4.36.6.57,1.13,1.22,1.77,1.75,1.76,1.47,2.32,3,.25,4.63a4.19,4.19,0,0,0-1.62,3c-.44-.41-.88-.88-1.51-.32l-5.68,5.08.7,1c2.76-.4,5.55.62,8.3-.57,7.43,0,6.16-.83,6.3,6.07,0,.48,0,1,0,1.42-.14,6.91,1.14,6-6.29,6.09-2.83-1-5.64-.55-9.45-.26,2.31,2.2,3.95,3.74,5.57,5.31.66.64,1.3,1.09,2.06.15.22.66.24,1.59.7,2,3.48,2.69,2.17,4.87-.59,7a13.6,13.6,0,0,0-1,1c-1.37,1.31-2.53,3.18-4.16,3.78-2.08.77-2.73-2.16-4.41-2.88a5.7,5.7,0,0,0-1-.21c-.68-3.14-3.47-4.32-5.74-6.67v8.69c-.17,6.58-.17,6.58-6.71,6.58-6.12,0-6.12,0-6.35-6.6v-9.09C269.54,111.45,266.85,112.76,265.9,115.64Zm12.74-29.37c-4.4,0-7.16,2.59-7.16,6.82A6.5,6.5,0,0,0,278.2,100c4.4,0,7.19-2.62,7.2-6.83A6.47,6.47,0,0,0,278.64,86.27Z"/><path class="cls-4" d="M185.47,170.85c.62.48,1.19.87,1.71,1.32,8.15,7.16,8.11,7.79.08,15-1.43,1.29-2.2,1.09-3.5-.11-8-7.34-8-7.93.25-15Z"/><path class="cls-4" d="M77,279.53c.47.41.82.73,1.19,1,8.58,7.05,8.55,7.36.67,15.09-1.58,1.56-2.49,1.64-3.93,0a60.13,60.13,0,0,0-5.28-5.31c-1.42-1.28-1.75-2.27-.13-3.7,2-1.81,3.88-3.85,5.83-5.77A18.26,18.26,0,0,1,77,279.53Z"/><path class="cls-4" d="M60.94,233.88c0,6.68,0,6.68-6.75,6.68-6.13,0-6.13,0-6.13-6.22,0-6.65,0-6.65,6.73-6.65C60.94,227.69,60.94,227.69,60.94,233.88Z"/><path class="cls-4" d="M208.42,227.69c6.12,0,6.12,0,6.12,6.22,0,6.65,0,6.65-6.78,6.65-6.1,0-6.1,0-6.1-6.25C201.66,227.69,201.66,227.69,208.42,227.69Z"/><path class="cls-4" d="M131.42,304.52c6.33,0,6.33,0,6.33,6.37s0,6.51-6.58,6.51c-6.3,0-6.3,0-6.3-6.4S124.87,304.52,131.42,304.52Z"/><path class="cls-4" d="M131,163.72c-6.14,0-6.14,0-6.14-6.3,0-6.58,0-6.58,6.53-6.58,6.35,0,6.35,0,6.35,6.45S137.75,163.72,131,163.72Z"/><path class="cls-4" d="M86.41,180.74a21,21,0,0,0-3.62,2.33c-5.82,5.72-5.79,5.75-11.53,0-3.38-3.38-3.38-3.38-.12-6.65,5.79-5.79,5.8-5.8,11.69.15A15.24,15.24,0,0,1,86.41,180.74Z"/><path class="cls-4" d="M185.67,297.14a4.05,4.05,0,0,1-.87-.48c-2.53-2.51-5.05-5.05-7.58-7.58-.56-.56-.32-1,.12-1.5s.68-.67,1-1c7.65-8,7.65-8,14.91.5.62.72,1.46,1.25.38,2.29-2.4,2.32-4.72,4.71-7.08,7.07C186.31,296.68,186,296.87,185.67,297.14Z"/><path class="cls-4" d="M251.75,56.66a41.93,41.93,0,0,1,3.89,4.7c.73,1.17-.8,1.78-1.46,2.5-1.45,1.58-3.14,3-4.5,4.6-1.74,2.09-3,2.21-5.05.14s-2.19-3.46.12-5.33a70.85,70.85,0,0,0,5.09-5C250.25,57.85,250.73,57.51,251.75,56.66Z"/><path class="cls-4" d="M246.6,115.19c1.15,1,1.72,1.35,2.21,1.84,2,1.92,3.78,4,5.86,5.78,2.43,2.09.21,3-.91,4.12s-2,3.39-4.13.94c-1.63-1.9-3.57-3.52-5.26-5.37-.7-.78-2.38-1.36-1.41-2.83A54.54,54.54,0,0,1,246.6,115.19Z"/><path class="cls-4" d="M305.12,129.64c-1.28-1.52-2.59-2.92-3.69-4.45s.68-2,1.35-2.8c1.33-1.53,3-2.77,4.24-4.37,2-2.54,3.43-2.4,5.56,0,1.59,1.78,2.09,2.83.06,4.53s-3.57,3.52-5.36,5.28C306.78,128.29,306.21,128.72,305.12,129.64Z"/><path class="cls-4" d="M233.5,92.92V90.78c0-4.08,1.67-5.25,5.69-4.19,1.29.33,1.32,1.14,1.32,2.12,0,3,0,5.94,0,8.91s-2.1,2-3.54,2-3.61.79-3.49-2.08C233.56,96,233.5,94.46,233.5,92.92Z"/><path class="cls-4" d="M104.07,216.86c4.7,2.34,7.15,7.06,11,10.73H100C100.58,223.72,102.43,220.33,104.07,216.86Z"/><path class="cls-4" d="M124.81,202.77v15.94c-3.84-4.44-8.19-7.27-10.82-11.81C117.51,205.31,120.89,203.33,124.81,202.77Z"/><path class="cls-4" d="M148.51,206.93c-2.43,4.44-6.78,7.07-10.61,11.66V202.75A38.54,38.54,0,0,1,148.51,206.93Z"/><path class="cls-4" d="M99.92,240.72h15.66c-4.23,3.89-7,8.1-11.48,10.64A54.71,54.71,0,0,1,99.92,240.72Z"/><path class="cls-4" d="M162.18,227.71H146.59c4.64-3.84,7.09-8.59,12-10.71C159.85,220.55,162.29,223.71,162.18,227.71Z"/><path class="cls-4" d="M114.27,261.42c-.55-1.55.86-2.07,1.6-2.87a58.56,58.56,0,0,1,9-8.26V265C120.88,265.15,117.77,262.71,114.27,261.42Z"/><path class="cls-4" d="M278.65,48.26h2.51c3.4,0,5.09,2.89,3.67,6.11-.46,1.05-1.28.92-2.08.93-2.26,0-4.54-.12-6.8.05-2.65.2-4.21-.15-4-3.51.14-2.62.51-4.09,3.51-3.6A20.21,20.21,0,0,0,278.65,48.26Z"/><path class="cls-4" d="M314.85,66.46a56.24,56.24,0,0,1-4.45,3.68c-1.47,1-2-.74-2.78-1.42-1.43-1.24-2.58-2.84-4.08-4-2.8-2.09-2.7-3.75,0-6,1.61-1.33,2.53-1.7,4,0,1.71,2,3.66,3.71,5.5,5.57C313.51,64.85,313.93,65.4,314.85,66.46Z"/><path class="cls-4" d="M278.28,138a13,13,0,0,0-2.5,0c-3.4.65-3.88-1-3.84-4,0-2.57.84-3.38,3.3-3.15a33.48,33.48,0,0,0,6.09,0c2.73-.27,3.79.55,3.69,3.51-.09,2.63-.5,4.12-3.51,3.62A20.47,20.47,0,0,0,278.28,138Z"/><path class="cls-4" d="M158.53,251.1c-1.87.48-2.36-1.28-3.32-2.15-2.71-2.45-5.28-5-8.65-8.32h15.73C162.11,244.5,160,247.67,158.53,251.1Z"/><path class="cls-4" d="M137.79,265.14V249.57c3.73,4.46,8.38,6.95,10.55,11.81C144.85,262.7,141.7,265,137.79,265.14Z"/><path class="cls-4" d="M323.15,93.16a14.88,14.88,0,0,0,0,2.5c.59,3.38-1.09,4-4,3.84-1.92-.13-2.85-.53-2.72-2.64a51.7,51.7,0,0,0,0-7.15c-.21-2.53,1-2.87,3.15-2.95,2.71-.1,4.07.6,3.62,3.54A19.48,19.48,0,0,0,323.15,93.16Z"/><path class="cls-4" d="M255.69,81c3.62,0,4.33,3.62,6.68,5.36-3,.3-5.78,1.14-8.57-.14Z"/><path class="cls-4" d="M253.8,100.05c2.68-1.48,5.53-.21,8.48-.36-2.07,2-2.91,5.39-6.58,5.57Q254.76,102.67,253.8,100.05Z"/><path class="cls-4" d="M303.08,86.35c-2.75,1.19-5.54.17-8.3.57l-.7-1,5.68-5.08c.63-.56,1.07-.09,1.51.32C301.87,82.88,302.47,84.61,303.08,86.35Z"/><path class="cls-4" d="M301.27,105.13c-.76.94-1.4.49-2.06-.15-1.62-1.57-3.26-3.11-5.57-5.31,3.81-.29,6.62-.78,9.45.26Q302.18,102.53,301.27,105.13Z"/><path class="cls-4" d="M272,68.52v8.69c-2.51-2.18-5-3.73-6.09-6.58Z"/><path class="cls-4" d="M265.9,115.64c1-2.88,3.64-4.19,6.07-7v9.09Z"/><path class="cls-4" d="M290.78,70.52c-.63,3-3.53,4.15-5.75,7V68.49Z"/><path class="cls-4" d="M285,117.78v-8.69c2.27,2.35,5.06,3.53,5.74,6.67Z"/><path class="cls-4" d="M131.25,221.26c8.24,0,12.89,5,12.89,14,0,6.89-5.85,11.66-14.12,11.78a9.17,9.17,0,0,1-6.67-2.5,13.25,13.25,0,0,1-5-12.12C118.8,226.43,124.37,221.26,131.25,221.26Z"/><path class="cls-4" d="M278.64,86.27a6.47,6.47,0,0,1,6.76,6.9c0,4.21-2.8,6.86-7.2,6.83a6.5,6.5,0,0,1-6.72-6.91C271.48,88.86,274.24,86.24,278.64,86.27Z"/></g></g></svg>