<svg xmlns="http://www.w3.org/2000/svg" viewBox="0 0 383.93 384.11"><defs><style>.cls-1{fill:#7b424b;}.cls-2{fill:#322b20;}</style></defs><title>Ресурс 1</title><g id="Слой_2" data-name="Слой 2"><g id="Слой_1-2" data-name="Слой 1"><path class="cls-1" d="M70.5,384.11c-1.27-1.39-3.09-1.24-4.69-1.71-17-5-29.39-20.86-29.7-38.61-.2-11-.72-22,.39-33S42.1,290.48,49,282.1c4.71-5.7,9.32-11.42,10.54-19.07a42.06,42.06,0,0,0,.47-6.71c0-9.38-.08-18.75,0-28.13a17.62,17.62,0,1,1,35.23-.06c.12,11.5,0,23,0,34.5,0,9.08,5,14.07,14.22,14.08,35.25,0,70.5,0,105.75,0,13.13,0,21.7,12,17.2,23.83-2.68,7-9.15,11.4-17.27,11.43-14.87.06-29.75,0-44.62,0h-4c2,8.4.47,15.49-6.59,20.71-1.22.91-.34,1.76,0,2.61,3,8.36,1.43,15.06-5.28,20.87-1.37,1.19-1.37,2-.67,3.38a11.44,11.44,0,0,1,1.3,6.9c-.4,2.56,1.07,2.89,2.86,3.21,40.25,7.2,79,2.44,115.35-16.42,50.33-26.1,82.7-67,94.74-122.47,12.44-57.31-.85-109.09-37.79-154.73-.86-1.06-1.82-2.06-2.64-3.16-2.17-2.93-2-5.91.46-8s5.93-1.82,8.29,1c3.76,4.5,7.57,9,10.95,13.78,28.55,40.26,40.58,85,35.07,134.06-9.27,82.68-69.74,148.92-151.56,166.4a151.51,151.51,0,0,1-23.35,3.25c-.59,0-1.27-.1-1.47.73h-30c-.24-.24-.46-.66-.72-.68a202.79,202.79,0,0,1-24-3.69,2.9,2.9,0,0,0-2.14.14c-2.44,2.14-5.5,3-8.37,4.23Zm112.3-83.35h30.36c.88,0,1.76,0,2.63,0,4.08-.31,6.71-3,6.55-6.71s-2.75-5.89-6.74-6c-1,0-2,0-3,0q-51.36,0-102.71,0c-15.85,0-25.8-9.91-25.82-25.65,0-11.25,0-22.49,0-33.74,0-4.13-2.68-6.78-6.41-6.73-3.57,0-6.07,2.61-6.32,6.53,0,.74,0,1.49,0,2.24,0,6.88-.36,13.77.08,20.62.91,14.39-3.47,26.69-13.09,37.39-7.94,8.85-11.34,19.44-11.05,31.32.18,7.49,0,15,.05,22.49A30.35,30.35,0,0,0,77.5,372.81c19.74.16,39.48.06,59.22,0,4.44,0,7.08-2.13,7.39-5.76.32-3.94-1.78-6.2-6.51-7-3.46-.6-5.64-3.06-5.38-6.07s2.61-5.06,6.23-5.16c2-.06,4,.11,6-.1a6.37,6.37,0,0,0,.45-12.61c-.36-.07-.75,0-1.12-.09-3.53-.59-5.71-2.93-5.55-5.93.18-3.23,2.59-5.22,6.46-5.31,1.63,0,3.26.06,4.88,0,3.81-.21,6.32-2.48,6.57-5.85.28-3.7-1.83-6.19-5.82-6.87s-6.37-3-6.05-6.22,2.73-5.06,7.05-5.06Q167.06,300.74,182.8,300.76Z"/><path class="cls-1" d="M0,176.36c1.79-4.16,1.41-8.68,2.14-13,10.56-63,43.93-110,99.71-140.64C139.28,2.15,179.7-4,221.85,2.47c36.26,5.58,68.25,20.73,96,44.71,3,2.6,3.51,6,1.37,8.54-2.32,2.73-5.49,2.79-8.9-.17A178.31,178.31,0,0,0,255,22.7C226,12,196.08,8.57,165.47,13.46c-58,9.26-101.81,39.68-131.14,90.38C16.3,135,9.27,169,11.82,205a179.13,179.13,0,0,0,20.31,71.41c1.4,2.68,2.38,5.29.08,8-2.84,3.3-7.34,2.41-9.71-2a188.24,188.24,0,0,1-13.44-32,200.27,200.27,0,0,1-8.29-41c-.07-.77.41-1.81-.77-2.23v-8.25a5.63,5.63,0,0,0,0-6v-5.25c1.05-1,1.11-2,0-3Z"/><path class="cls-2" d="M0,192.86a5.63,5.63,0,0,1,0,6Z"/><path class="cls-2" d="M0,184.61c1.11,1,1.05,2,0,3Z"/><path class="cls-1" d="M126,223.32c.21-3.37,2.7-5.28,6.89-5.2a192.61,192.61,0,0,1,34.52,4,251.85,251.85,0,0,1,54.23,17.61c.56.26,1.12.54,1.67.82,3.81,1.91,5.25,5,3.76,8.08s-4.63,3.76-8.39,2.15-7.75-3.39-11.68-5c-23.57-9.34-47.85-15.49-73.31-16.43C128.43,229.25,125.77,227.05,126,223.32Z"/><path class="cls-1" d="M264.72,151.54c-.26,2.46-.34,6.1-1.4,9.59a20.66,20.66,0,0,1-40.28-8.3c.42-4,.8-7.94,1.21-11.91a20.79,20.79,0,0,1,20.53-18.53c4.29,0,7,2.12,7.13,5.53s-2.36,5.55-6.74,5.75c-5.59.26-9.1,3.46-9.72,8.91-.43,3.84-.92,7.68-1.2,11.54a9.44,9.44,0,0,0,8.31,10.23,9.21,9.21,0,0,0,10.27-8.13c.35-2.22.53-4.46.72-6.7.44-5.18,2.69-7.9,6.33-7.59S265.17,145,264.72,151.54Z"/><path class="cls-1" d="M97.47,139.48c.32-2.86.65-7.73,1.46-12.52a20.28,20.28,0,0,1,21.12-16.82c3.92.22,6.1,2.24,6.09,5.63s-2.22,5.39-6.12,5.66c-6.88.48-9.87,3.38-10.45,10.16-.32,3.6-.77,7.21-.86,10.82a9.27,9.27,0,0,0,18.34,2.17c.65-3,.75-6.18,1.13-9.28.46-3.83,2.69-5.89,6.06-5.65s5.41,2.8,5.14,6.53a92.25,92.25,0,0,1-1.08,9.67c-2,11.06-11.7,18.61-22.15,17.39C104.65,161.89,97.05,153.07,97.47,139.48Z"/><path class="cls-1" d="M149.4,95.55c0,2.64-1,4.26-3,5.26a5.69,5.69,0,0,1-6.31-.69A61.15,61.15,0,0,0,117,90c-12.17-2.61-23.8-1-35.05,4.08-.57.26-1.12.55-1.7.77-3.36,1.29-6.18.3-7.59-2.63s-.37-5.83,2.85-7.47a64.41,64.41,0,0,1,29.87-7.3c14.76.06,28.18,4.6,40.38,12.84C147.78,91.65,149.58,93.2,149.4,95.55Z"/><path class="cls-1" d="M228,113.47c-2.94-.13-5-1.6-5.43-4.83s1.35-5.63,4.92-6.39c5.85-1.24,11.74-2.32,17.6-3.49,13.82-2.76,27.62-5.55,41.44-8.28,3.59-.71,6.4,1,7.13,4.3a5.45,5.45,0,0,1-4.57,6.59q-29.67,6.06-59.38,12A16.34,16.34,0,0,1,228,113.47Z"/></g></g></svg>