<svg xmlns="http://www.w3.org/2000/svg" viewBox="0 0 512 512"><defs><style>.cls-1{fill:#00ade7;}.cls-2{fill:#01c2fe;}.cls-3{fill:#01b5f1;}.cls-4{fill:#01a6d7;}.cls-5{fill:#00baf5;}.cls-6{fill:#00bdf9;}.cls-7{fill:#02a3d0;}.cls-8{fill:#02a9db;}.cls-9{fill:#00abe1;}.cls-10{fill:#00b7f1;}.cls-11{fill:#01a9de;}.cls-12{fill:#00a8db;}.cls-13{fill:#00b3ee;}.cls-14{fill:#00afea;}.cls-15{fill:#fdfefe;}</style></defs><title>Ресурс 1</title><g id="Слой_2" data-name="Слой 2"><g id="Слой_1-2" data-name="Слой 1"><path class="cls-1" d="M512,232v73c-1.58.84-.94,2.35-1,3.56q-1.77,56.73-8.09,113.12c-2.22,19.69-9.89,37.15-23.81,51.59-1.2-2.9-3.77-2.16-6-2.27-17-.83-33.85,2.64-50.94,1.21-10-.83-20.07-.57-30.13-1-13.43-.53-26.9-1.09-40.35-1.12-10.39,0-20.19-3.33-30.2-5a202,202,0,0,1-30.7-7.94c-2.81-.95-4.07-1.92-3.74-4.65.54-4.54-1.61-6-5.83-5.59-1.35.13-3.3.75-3.9-1.19-.46-1.51.67-2.84,1.57-4a23.53,23.53,0,0,1,2.08-2.16c63.79-64.14,128.37-127.49,191.35-192.44,1.57-1.63,5.22-3.17,3.71-5.5-1.35-2.1-4.06,1-6.27,1.28-1.47.18-3.17,2.21-4.41,0-1-1.74.35-3.12,1.57-4.33,5.19-5.18,10.18-10.58,15.62-15.48,3.93-3.54,4.5-6.72.66-10.45A4.5,4.5,0,0,1,482,209c4.68,3.92,9.65,7.55,13.65,12.2C500.1,226.38,506.47,228.53,512,232Z"/><path class="cls-2" d="M206,0h99c.49,1.25,1.61.94,2.55,1,8.82.36,17.64.54,26.45,1.06,23.43,1.36,46.86,2.68,70.19,5.35-.28,2.8-2.6,3.78-4.62,4.74-10,4.81-20.17,9.38-30.19,14.19-7.49,3.6-15.34,5.43-23.57,4.6-9.69-1-19.32-1.9-29.07-1-6.64.65-13.22-.83-19.84-.9C279.94,28.88,263,29,246,29c-23.74-.57-47.41,1.41-71.12,2.18-4.92.16-10,0-14.81,1-5.69,1.23-11.59-.51-17.07,1.8-12.52,1-25.13,1.42-37.54,3.22-32.07,4.65-58.67,29.65-66.6,61.43-2.71,10.84-2.86,21.92-4.07,32.91C33.05,147.34,32.15,163.18,31,179c-6.32,3.16-12.6,6.43-19,9.44C8.76,190,5.57,191.87,1.8,192c0-1.49-.09-3,0-4.48,1.06-32.12,3.93-64.11,7.11-96.08,4.26-42.79,39.42-78.2,82.05-82.53,32.63-3.3,65.29-6,98.07-7.34C194.64,1.34,200.5,2.23,206,0Z"/><path class="cls-3" d="M512,232c-5.53-3.47-11.9-5.62-16.35-10.8-4-4.65-9-8.28-13.65-12.2q-18.88-20.12-39-39l-19-20a14.88,14.88,0,0,0,7.63-1.86c18.42-8.67,36.81-17.42,55.25-26.07,6-2.8,12.06-5.39,18.1-8.07.3,1.8.73,3.59.88,5.4,1.85,23.18,3.62,46.36,4.57,69.6.26,6.32-.58,12.81,1.56,19Z"/><path class="cls-4" d="M72.93,499.18a45.17,45.17,0,0,1-14.17-6.05c2.1-1.34,4.45-1.13,6.78-1.13q81.93,0,163.85-.05c4.18,0,7.94.81,11.16,3.41,2.63,2.13,5.51,2.66,8.81,2.69,31.19.25,62.37-.4,93.55-1.08,8.95-.19,17.92-.4,26.86-.68,18.24-.56,36.44-1.83,54.68-2.31,6.29-.16,12.61.62,18.88-.88a8.82,8.82,0,0,1,6.78.95c-8,5.35-17.18,7.69-26.48,8.85-26.63,3.32-53.43,5-80.2,6.87-11.1.75-22.24.8-33.36,1.27-1.69.07-3.66-.81-5.07,1h-7a33.35,33.35,0,0,0-18,0H255c-1.43-4.58-5.78-6.68-8.61-10.07-3-3.56-7-4.93-11.52-4.93H78C76,497,73.91,496.79,72.93,499.18Z"/><path class="cls-5" d="M4.31,368C2.58,349,1.93,330,1,311c-.08-1.67.9-3.67-1-5v-6c1.65-1.46,1-3.41,1-5.15.07-9.62,0-19.23,0-28.85,9.85-4.42,20.67-7.15,28-16-.72,25.06,1.13,50.08,1,75.13,0,3,1.73,5.83,1,8.83a29.58,29.58,0,0,0-.15,12.74c.68,3.86.19,9-3,11C20.57,362.23,12.88,366.27,4.31,368Z"/><path class="cls-6" d="M29,250c-7.31,8.85-18.13,11.58-28,16-.06-1.09.15-2.28-1-3V249c1.07-.82,1-2,1-3.15Q1,231,1,216.15c0-1.16.07-2.34-1-3.15v-6c2.41-4.78.15-10.13,1.8-15,3.77-.13,7-2,10.21-3.56,6.39-3,12.67-6.28,19-9.44.08,4.8-.83,9.6-.82,14.31,0,15.25-1.9,30.44-1.18,45.69Z"/><path class="cls-7" d="M72.93,499.18C73.91,496.79,76,497,78,497H234.87c4.53,0,8.55,1.37,11.52,4.93,2.83,3.39,7.18,5.49,8.61,10.07H234a45.84,45.84,0,0,0-21,0h-8c-.47-1.26-1.59-1-2.52-1-24.74-.41-49.43-2-74-4.24-16.73-1.53-33.66-1.7-50.13-5.71A20.1,20.1,0,0,1,72.93,499.18Z"/><path class="cls-8" d="M213,512a45.84,45.84,0,0,1,21,0Z"/><path class="cls-8" d="M280,512a33.35,33.35,0,0,1,18,0Z"/><path class="cls-9" d="M479.12,473.27a48.48,48.48,0,0,1-12.44,11.06,23,23,0,0,0-9.31-1.35c-20.23.7-40.47,1.2-60.7,2.06-21.39.91-42.66-1.37-64-2-2.77-.08-5.95,1.47-8.28.57-8.65-3.34-17.84-2.17-26.62-3.12-13.4-1.45-26.93-1.5-40.31-4.17-4.75-.95-9.45-2.2-14.13-3-4.84-.8-9.75-1.58-14.62-2.41-6.12-1-9.43-7.11-15.44-8.63-2.35-.6.33-3.29-.44-4.91a4.21,4.21,0,0,0-1.28-1.35c-5.73-4.38-5.82-5.28-.9-10.21q42.39-42.39,84.78-84.8c1.72-1.72,4.05-3.16,3.53-6.18,13-9.43,25.53-19.26,36.23-31.4a198.81,198.81,0,0,0,27.71-39.94A201.71,201.71,0,0,0,378.14,243c1.49,0,2.39-1,3.32-2q21.94-22.42,43.88-44.88c1.16-1.19,2.62-2.56,2.16-4.24-.6-2.22-3,.92-4.33-1.28L443,170q20.1,18.9,39,39a4.5,4.5,0,0,0,1.18,3.67c3.84,3.73,3.27,6.91-.66,10.45-5.44,4.9-10.43,10.3-15.62,15.48-1.22,1.21-2.57,2.59-1.57,4.33,1.24,2.18,2.94.15,4.41,0,2.21-.27,4.92-3.38,6.27-1.28,1.51,2.33-2.14,3.87-3.71,5.5-63,64.95-127.56,128.3-191.35,192.44a23.53,23.53,0,0,0-2.08,2.16c-.9,1.19-2,2.52-1.57,4,.6,1.94,2.55,1.32,3.9,1.19,4.22-.39,6.37,1.05,5.83,5.59-.33,2.73.93,3.7,3.74,4.65a202,202,0,0,0,30.7,7.94c10,1.67,19.81,5,30.2,5,13.45,0,26.92.59,40.35,1.12,10.06.4,20.16.14,30.13,1,17.09,1.43,34-2,50.94-1.21C475.35,471.11,477.92,470.37,479.12,473.27Z"/><path class="cls-5" d="M489.2,52.93c7.93,10.79,11.92,23.13,13.64,36.21,1.08,8.24,1.45,16.57,2.15,24.86-6,2.68-12.12,5.27-18.1,8.07-18.44,8.65-36.83,17.4-55.25,26.07A14.88,14.88,0,0,1,424,150a77.08,77.08,0,0,1-10.38-10.45c-2.46-2.92-4.51-6.57-8.76-7.48a125.45,125.45,0,0,1-35.71,13.69c-2.93.63-5.2.33-7.67-1.9a65.59,65.59,0,0,0-87.88-.5c-9.26,8.11-15.15,18.38-19.56,29.65-2.46-.35-4.5.81-6.67,1.66-1.1.43-3.21.91-2.86-1.22.49-3-1.34-6.23,1.19-9,.77-.85,1.89-2.38.82-3.59s-2.42.2-3.52.69c-7.14,3.16-14.2,6.48-21.36,9.59-4.18,1.81-5,.91-4.82-3.58a20.81,20.81,0,0,1,2.58-9.48c.58-1.05,2-2.33.8-3.53s-2.81-.17-4.15.45q-7.69,3.57-15.37,7.17c-1.23.58-2.45,1.22-3.69.12-1.48-1.3-.81-2.71-.09-4.07,1.89-3.51,3.84-7,5.67-10.53.65-1.25,2.1-2.6.8-4-1.16-1.29-2.47,0-3.61.5-4.55,2-9,4.34-13.62,6.17-2.06.82-4.54,3.16-6.71.29-1.85-2.45-2.14-5.12,0-7.78a16.52,16.52,0,0,0,2.09-4c.57-1.31,2.09-2.68.94-4.09-1.3-1.58-2.68.19-4,.49-4.68,1-8.33,5.35-13.47,4.63a19.86,19.86,0,0,0-7.22.61c-2.77.59-5.86,4.43-8.08,1.59s1.36-5.65,2.86-8.32c.88-1.56,2.43-3.46.88-5A5,5,0,0,0,147,128a41.93,41.93,0,0,1-5.85,2.81,3.23,3.23,0,0,1-3.34-.21c-1.2-1.08,0-2.17.47-3.11,1.79-3.75,3.74-7.43,5.55-11.18.53-1.12,1.76-2.39.54-3.63s-2.52-.06-3.62.5c-7.84,4-16.67,5.66-24.33,10.11-.86.5-1.87,1.05-2.77.25-1.16-1-.34-2.17.19-3.16,1.42-2.63,3.1-5.14,4.31-7.86,1-2.31,4.07-4.74,2.12-7.15-2.13-2.63-4.76.38-7.12,1.11-2.12.65-3.48.74-2.39-2.08a44,44,0,0,1,2.1-5c4.75-9,9.57-17.88,14.35-26.81,5.42-10.11,10.58-20.38,16.4-30.25,2-3.43,2.79-5.72-.64-8.24,5.48-2.31,11.38-.57,17.07-1.8,4.76-1,9.89-.86,14.81-1,23.71-.77,47.38-2.75,71.12-2.18,3.2,3.91,1.35,7.26-1.07,10.64-.91,1.27-2.52,2.72-1.1,4.39s3.31.83,5,0c3.63-1.66,7.21-3.44,10.95-4.79,2.2-.79,4.91-.8,6.49,1.23s-.56,3.61-1.52,5.25a14.25,14.25,0,0,0-1,1.73c-.69,1.76-2.79,3.52-1,5.43,1.91,2.08,4.27,1,6.45,0a75.12,75.12,0,0,1,8.24-3.5c2.53-.79,6.12-1.52,7.6.24,1.6,1.91-1.43,4.25-2.43,6.43s-3.85,4.16-1.7,6.61,5,.52,7.35-.41c2.16-.84,4.17-2.07,6.28-3.06s4.81-2.84,7-2.07c7.34,2.54,12.74-2.07,18.79-4.35,1.08-.41,2.06-1.13,3.16-1.48,1.29-.41,2.28-.31,2,1.61-.76,4.51,1.46,7.52,5,9.6s6.17,1.14,9.29-.38c5.74-2.8,11.6-5.37,18.69-8.62-1.42,3.16-2.5,5-3.06,7-.63,2.21-1.34,5.25,1.73,5.85,4.72.92,9.32,2.7,14.46,0,9.39-4.94,19.21-9.08,28.86-13.56.89-.41,1.86-1.11,2.76-.33,1.05.88.07,1.83-.29,2.67-.93,2.2-2.07,5.34,0,6.38,3.77,1.88,7.65,5,12.49,2.75,3.61-1.68,7.63-2.77,10.81-5,7.56-5.39,15.17-4.55,22.34-.25,6.82,4.09,12.43,3.38,19.37-.1C474.41,55.63,480.76,49.91,489.2,52.93Z"/><path class="cls-10" d="M143,34c3.43,2.52,2.66,4.81.64,8.24-5.82,9.87-11,20.14-16.4,30.25-4.78,8.93-9.6,17.85-14.35,26.81a44,44,0,0,0-2.1,5c-1.09,2.82.27,2.73,2.39,2.08,2.36-.73,5-3.74,7.12-1.11,2,2.41-1.1,4.84-2.12,7.15-1.21,2.72-2.89,5.23-4.31,7.86-.53,1-1.35,2.12-.19,3.16.9.8,1.91.25,2.77-.25,7.66-4.45,16.49-6.09,24.33-10.11,1.1-.56,2.39-1.76,3.62-.5s0,2.51-.54,3.63c-1.81,3.75-3.76,7.43-5.55,11.18-.45.94-1.67,2-.47,3.11a3.23,3.23,0,0,0,3.34.21A41.93,41.93,0,0,0,147,128a5,5,0,0,1,6.39.81c1.55,1.53,0,3.43-.88,5-1.5,2.67-5,5.61-2.86,8.32s5.31-1,8.08-1.59a19.86,19.86,0,0,1,7.22-.61c5.14.72,8.79-3.58,13.47-4.63,1.36-.3,2.74-2.07,4-.49,1.15,1.41-.37,2.78-.94,4.09a16.52,16.52,0,0,1-2.09,4c-2.16,2.66-1.87,5.33,0,7.78,2.17,2.87,4.65.53,6.71-.29,4.63-1.83,9.07-4.13,13.62-6.17,1.14-.52,2.45-1.79,3.61-.5,1.3,1.44-.15,2.79-.8,4-1.83,3.54-3.78,7-5.67,10.53-.72,1.36-1.39,2.77.09,4.07,1.24,1.1,2.46.46,3.69-.12q7.68-3.61,15.37-7.17c1.34-.62,2.87-1.69,4.15-.45s-.22,2.48-.8,3.53a20.81,20.81,0,0,0-2.58,9.48c-.17,4.49.64,5.39,4.82,3.58,7.16-3.11,14.22-6.43,21.36-9.59,1.1-.49,2.32-2,3.52-.69s-.05,2.74-.82,3.59c-2.53,2.79-.7,6-1.19,9-.35,2.13,1.76,1.65,2.86,1.22,2.17-.85,4.21-2,6.67-1.66a72.93,72.93,0,0,0-2.92,22.7c.08,3.19,3.45,7.06-.27,9.66-3.07,2.15-6.78-.08-10.18-.39a171.2,171.2,0,0,1-53.76-14.5,187,187,0,0,1-65.33-48.43c-3-3.41-4-2.49-5.32,1.2-1,2.92-2,5.84-2.9,8.81-7.76,26.08-2.39,48.6,17.88,67.21a69.81,69.81,0,0,1,5.1,5.89c-10.38-1.29-19.57-2.91-28.27-7.76,0,1.86,0,3,0,4.17a29.85,29.85,0,0,0,.23,3,70.19,70.19,0,0,0,15.88,36c-7.7,6-17,8.8-25.6,13-2.49,1.21-2.92-1-2.34-2.73,1.61-4.83-.77-4-3.56-2.66-2.25,1.06-4.44,2.26-6.71,3.3-1.32.61-3.49.44-2.65-1.19,2-3.75.93-7.36.79-11.06-.06-1.7,2.73-3.37.77-4.82-1.68-1.24-3.78.49-5.63,1.07-1.56.5-3,1.49-4.49,2.14-1.31.56-2.77,2.1-4.07.83-1.48-1.47-.73-3.44.16-5.09,1.65-3.07,3.51-6,5-9.18.68-1.46,2.92-3.13,1.1-4.74-1.41-1.25-3.46-.15-5.13.66q-12.12,5.85-24.25,11.62c-1.25.59-2.66,2.08-4,.58-1.2-1.31-.27-2.84.42-4.15,2.26-4.25,4.62-8.45,6.8-12.73.5-1,2-2.75-.2-3.17-4.08-.76-7.89-3.15-12.52,0-3.17,2.13-6.37,4.07-9,6.82-.72-15.25,1.2-30.44,1.18-45.69,0-4.71.9-9.51.82-14.31,1.15-15.82,2-31.66,3.79-47.44,1.21-11,1.36-22.07,4.07-32.91,7.93-31.78,34.53-56.78,66.6-61.43C117.87,35.42,130.48,35,143,34Z"/><path class="cls-6" d="M489.2,52.93c-8.44-3-14.79,2.7-21.26,6-6.94,3.48-12.55,4.19-19.37.1-7.17-4.3-14.78-5.14-22.34.25-3.18,2.27-7.2,3.36-10.81,5-4.84,2.25-8.72-.87-12.49-2.75-2.09-1-.95-4.18,0-6.38.36-.84,1.34-1.79.29-2.67-.9-.78-1.87-.08-2.76.33-9.65,4.48-19.47,8.62-28.86,13.56-5.14,2.7-9.74.92-14.46,0-3.07-.6-2.36-3.64-1.73-5.85.56-2,1.64-3.81,3.06-7-7.09,3.25-12.95,5.82-18.69,8.62-3.12,1.52-5.77,2.47-9.29.38s-5.73-5.09-5-9.6c.32-1.92-.67-2-2-1.61-1.1.35-2.08,1.07-3.16,1.48-6.05,2.28-11.45,6.89-18.79,4.35-2.23-.77-4.79,1-7,2.07s-4.12,2.22-6.28,3.06c-2.38.93-5.15,2.94-7.35.41s.74-4.52,1.7-6.61,4-4.52,2.43-6.43c-1.48-1.76-5.07-1-7.6-.24a75.12,75.12,0,0,0-8.24,3.5c-2.18,1-4.54,2.09-6.45,0-1.76-1.91.34-3.67,1-5.43a14.25,14.25,0,0,1,1-1.73c1-1.64,3.09-3.25,1.52-5.25s-4.29-2-6.49-1.23c-3.74,1.35-7.32,3.13-10.95,4.79-1.72.78-3.57,1.67-5,0s.19-3.12,1.1-4.39c2.42-3.38,4.27-6.73,1.07-10.64,17,0,33.94-.12,50.9.06,6.62.07,13.2,1.55,19.84.9,9.75-.94,19.38,0,29.07,1,8.23.83,16.08-1,23.57-4.6,10-4.81,20.16-9.38,30.19-14.19,2-1,4.34-1.94,4.62-4.74,18.16,1.72,36.33,3.31,52.51,13.14C470.18,28.72,481.86,38.62,489.2,52.93Z"/><path class="cls-8" d="M404.87,132.07c4.25.91,6.3,4.56,8.76,7.48A77.08,77.08,0,0,0,424,150l19,20-19.84,20.64c1.29,2.2,3.73-.94,4.33,1.28.46,1.68-1,3.05-2.16,4.24Q403.41,218.61,381.46,241c-.93,1-1.83,2-3.32,2,3.33-15.46,5.38-31.08,5-46.93a8.48,8.48,0,0,1,3.85-7.85,97.74,97.74,0,0,0,26.12-29.09l.48-.83-1.08.22c-3.44,1.19-6.84,2.5-10.32,3.55a86.15,86.15,0,0,1-10.57,2.69c-3.39.56-6.76,1.84-11.1,1.38,2.18-1.7,3.78-2.83,5.26-4.1C395.2,154,401.94,144.24,404.87,132.07Z"/><path class="cls-11" d="M299,354.87c.52,3-1.81,4.46-3.53,6.18q-42.37,42.42-84.78,84.8c-4.92,4.93-4.83,5.83.9,10.21a4.21,4.21,0,0,1,1.28,1.35c.77,1.62-1.91,4.31.44,4.91,6,1.52,9.32,7.59,15.44,8.63,4.87.83,9.78,1.61,14.62,2.41,4.68.77,9.38,2,14.13,3,13.38,2.67,26.91,2.72,40.31,4.17,8.78.95,18-.22,26.62,3.12,2.33.9,5.51-.65,8.28-.57,21.34.62,42.61,2.9,64,2,20.23-.86,40.47-1.36,60.7-2.06a23,23,0,0,1,9.31,1.35c-1.66.68-2.36,2.95-4.56,2.71-11.12.31-22.22,0-33.37.73-18.22,1.14-36.54.48-54.83,1-21.74.56-43.54.9-65.35-.39-8-.47-16.1.15-24.21-.11-17.08-.55-34.07-2.9-51.09-3-59.79-.49-119.6-.19-179.4-.2-2,0-4.08-.08-5,2.31a21.94,21.94,0,0,1-6.93-5.15c.88-3.55,3.78-2.08,5.78-2.09q82.64-.12,165.26-.06c1.33,0,2.67-.07,4,0,3,.15,3.3-1.67,2.89-3.9-.78-4.25-10.41-13.33-14.86-14.11a88,88,0,0,0-12.19-12.44A332.88,332.88,0,0,1,167,424a9.16,9.16,0,0,0,5.55-3c9.85-9.88,19.75-19.72,29.57-29.63a13.21,13.21,0,0,0,3.88-6.22,200,200,0,0,0,59.56-13C277.31,367.51,288.1,361.14,299,354.87Z"/><path class="cls-12" d="M48.87,487.3c.92-2.39,3-2.31,5-2.31,59.8,0,119.61-.29,179.4.2,17,.14,34,2.49,51.09,3,8.11.26,16.25-.36,24.21.11,21.81,1.29,43.61,1,65.35.39,18.29-.48,36.61.18,54.83-1,11.15-.7,22.25-.42,33.37-.73a27.33,27.33,0,0,1-12,7,8.82,8.82,0,0,0-6.78-.95c-6.27,1.5-12.59.72-18.88.88-18.24.48-36.44,1.75-54.68,2.31-8.94.28-17.91.49-26.86.68-31.18.68-62.36,1.33-93.55,1.08-3.3,0-6.18-.56-8.81-2.69-3.22-2.6-7-3.42-11.16-3.41q-81.93.12-163.85.05c-2.33,0-4.68-.21-6.78,1.13A25.91,25.91,0,0,1,48.87,487.3Z"/><path class="cls-13" d="M29,239c2.67-2.75,5.87-4.69,9-6.82,4.63-3.11,8.44-.72,12.52,0,2.22.42.7,2.2.2,3.17-2.18,4.28-4.54,8.48-6.8,12.73-.69,1.31-1.62,2.84-.42,4.15,1.37,1.5,2.78,0,4-.58q12.15-5.74,24.25-11.62c1.67-.81,3.72-1.91,5.13-.66,1.82,1.61-.42,3.28-1.1,4.74-1.47,3.15-3.33,6.11-5,9.18-.89,1.65-1.64,3.62-.16,5.09,1.3,1.27,2.76-.27,4.07-.83,1.52-.65,2.93-1.64,4.49-2.14,1.85-.58,4-2.31,5.63-1.07,2,1.45-.83,3.12-.77,4.82.14,3.7,1.17,7.31-.79,11.06-.84,1.63,1.33,1.8,2.65,1.19,2.27-1,4.46-2.24,6.71-3.3,2.79-1.33,5.17-2.17,3.56,2.66-.58,1.72-.15,3.94,2.34,2.73,8.6-4.19,17.9-7,25.6-13l7.86,7.27,1.18,1.06-.13-.14c.23,1,1,1.21,1.83,1.3l0,0,1.14.9-.05-.08c-.15,2.16,1.58,3.14,2.79,4.43,2.7,2.89,5.43,5.74,8.15,8.61-4.92.85-9.81.27-15-.78,4.27,14.3,12.84,24.95,24,33.78l1.24.95-.14-.14c.25,1.09,1.07,1.24,2,1.21l0-.05c-.11,2.57,2.14,3.55,3.47,5.14,4.29,5.15,10.37,8.68,13.5,14.88-21.9,12.92-45.67,18.43-71,18-2,0-4.3-1.21-6,.87a1.91,1.91,0,0,0,2,1.16h0l1.23.87,0-.12c-.47,2.45,1.63,3.4,2.87,4.83,5.15,6,12.24,10,16.92,16.44.64,4.39-1.38,6.78-5.51,8.08a57.09,57.09,0,0,0-7.68,3.53c-7.31,3.54-14.58,7.19-22.35,9.7-.93.3-1.9,1-2.79.15s-.75-2.18-.22-3.23c1.48-3,3-5.94,4.65-8.8.83-1.43,1.25-2.78.35-4.19-1.17-1.81-2.81-.73-4-.17-12.13,5.64-24.51,10.64-37,15.39-8.18,3.11-8.65,5.53-6.71,14.17,1.6,7.11,2.91,14.2,7,20.5,1.29,2,3.18,5.67-1.42,6.76-4.81,1.14-9.54,2.57-14.5,3.25S21.74,447.23,17,449.07c-5-9.54-7.23-19.85-8.25-30.48C7.08,401.74,5.17,384.92,4.31,368c8.57-1.73,16.26-5.77,23.47-10.31,3.19-2,3.68-7.13,3-11A29.58,29.58,0,0,1,30.93,334c.77-3-1-5.82-1-8.83.16-25.05-1.69-50.07-1-75.13Z"/><path class="cls-14" d="M17,449.07c4.78-1.84,9.89-2.24,14.87-2.93s9.69-2.11,14.5-3.25c4.6-1.09,2.71-4.79,1.42-6.76-4.14-6.3-5.45-13.39-7-20.5-1.94-8.64-1.47-11.06,6.71-14.17,12.52-4.75,24.9-9.75,37-15.39,1.2-.56,2.84-1.64,4,.17.9,1.41.48,2.76-.35,4.19-1.67,2.86-3.17,5.83-4.65,8.8-.53,1-.8,2.29.22,3.23s1.86.15,2.79-.15c7.77-2.51,15-6.16,22.35-9.7a57.09,57.09,0,0,1,7.68-3.53c4.13-1.3,6.15-3.69,5.51-8.08,1.72,1.55,3.53,3,5.14,4.67C140,398.89,153.63,411.32,167,424a332.88,332.88,0,0,0,25.81,25.56A88,88,0,0,1,205,462c.24,3.49-2.27,3.06-4.4,3-13.28-.44-26.54.1-39.86-.76-19.39-1.26-38.88.35-58.34-1.13-19.19-1.47-38.24,2.85-57.51,2.26-5.48-.17-11.64-.69-17.15,1.76A48.26,48.26,0,0,1,17,449.07Z"/><path class="cls-9" d="M27.74,467.12c5.51-2.45,11.67-1.93,17.15-1.76,19.27.59,38.32-3.73,57.51-2.26,19.46,1.48,38.95-.13,58.34,1.13,13.32.86,26.58.32,39.86.76,2.13.07,4.64.5,4.4-3,4.45.78,14.08,9.86,14.86,14.11.41,2.23.09,4.05-2.89,3.9-1.32-.08-2.66,0-4,0q-82.64,0-165.26.06c-2,0-4.9-1.46-5.78,2.09C36.52,477.79,31.52,473,27.74,467.12Z"/><path class="cls-15" d="M132.06,267.82l-7.86-7.27a70.19,70.19,0,0,1-15.88-36,29.85,29.85,0,0,1-.23-3c0-1.16,0-2.31,0-4.17,8.7,4.85,17.89,6.47,28.27,7.76a69.81,69.81,0,0,0-5.1-5.89c-20.27-18.61-25.64-41.13-17.88-67.21.89-3,1.87-5.89,2.9-8.81,1.31-3.69,2.33-4.61,5.32-1.2a187,187,0,0,0,65.33,48.43A171.2,171.2,0,0,0,240.68,205c3.4.31,7.11,2.54,10.18.39,3.72-2.6.35-6.47.27-9.66a72.93,72.93,0,0,1,2.92-22.7c4.41-11.27,10.3-21.54,19.56-29.65a65.59,65.59,0,0,1,87.88.5c2.47,2.23,4.74,2.53,7.67,1.9a125.45,125.45,0,0,0,35.71-13.69c-2.93,12.17-9.67,21.92-19.06,30-1.48,1.27-3.08,2.4-5.26,4.1,4.34.46,7.71-.82,11.1-1.38a86.15,86.15,0,0,0,10.57-2.69c3.48-1,6.88-2.36,10.32-3.55.19.21.39.41.6.61A97.74,97.74,0,0,1,387,188.22a8.48,8.48,0,0,0-3.85,7.85c.35,15.85-1.7,31.47-5,46.93a201.71,201.71,0,0,1-15.24,40.53,198.81,198.81,0,0,1-27.71,39.94c-10.7,12.14-23.26,22-36.23,31.4-10.86,6.27-21.65,12.64-33.4,17.25a200,200,0,0,1-59.56,13,82.09,82.09,0,0,1-20.06,0c-10.39-1.33-20.81-2.34-31.06-4.63-18.64-4.17-35.95-11.7-52.67-20.76l0,.12L101,359h0l-2-1.16c1.74-2.08,4-.9,6-.87,25.29.38,49.06-5.13,71-18,5.49-2.58,10.29-6.09,15.75-10.7-12.59-.65-22.89-4.21-32.72-9.32l0,.05a2.27,2.27,0,0,0-2-1.21l.14.14-1.24-.95c-11.15-8.83-19.72-19.48-24-33.78,5.18,1.05,10.07,1.63,15,.78,4.48.58,8.67-.79,13.1-2-8.58-2.65-16.31-6.85-24-11.07l.05.08-1.14-.9,0,0-1.83-1.3.13.14Z"/><path class="cls-15" d="M412.54,158.52l1.08-.22-.48.83C412.93,158.93,412.73,158.73,412.54,158.52Z"/><path class="cls-4" d="M102.21,359.73c16.72,9.06,34,16.59,52.67,20.76,10.25,2.29,20.67,3.3,31.06,4.63a82.09,82.09,0,0,0,20.06,0,13.21,13.21,0,0,1-3.88,6.22c-9.82,9.91-19.72,19.75-29.57,29.63a9.16,9.16,0,0,1-5.55,3c-13.37-12.68-27-25.11-39.86-38.33-1.61-1.65-3.42-3.12-5.14-4.67-4.68-6.47-11.77-10.46-16.92-16.44C103.84,363.13,101.74,362.18,102.21,359.73Z"/><path class="cls-7" d="M159.06,318.89c9.83,5.11,20.13,8.67,32.72,9.32-5.46,4.61-10.26,8.12-15.75,10.7-3.13-6.2-9.21-9.73-13.5-14.88C161.2,322.44,159,321.46,159.06,318.89Z"/><path class="cls-7" d="M136.06,270.88c7.73,4.22,15.46,8.42,24,11.07-4.43,1.18-8.62,2.55-13.1,2-2.72-2.87-5.45-5.72-8.15-8.61C137.64,274,135.91,273,136.06,270.88Z"/><path class="cls-7" d="M157.1,317.73a2.27,2.27,0,0,1,2,1.21C158.17,319,157.35,318.82,157.1,317.73Z"/><path class="cls-7" d="M133.11,268.74l1.83,1.3C134.08,270,133.34,269.7,133.11,268.74Z"/><path class="cls-4" d="M99,357.83l2,1.16A1.91,1.91,0,0,1,99,357.83Z"/><path class="cls-7" d="M156,316.92l1.24.95Z"/><path class="cls-4" d="M101,359l1.23.87Z"/><path class="cls-7" d="M132.06,267.82l1.18,1.06Z"/><path class="cls-7" d="M135,270.06l1.14.9Z"/></g></g></svg>